M48
; DRILL file {KiCad (6.0.2)} date Sat Nov 18 15:24:32 2023
; FORMAT={2:4/ absolute / inch / suppress leading zeros}
; #@! TF.CreationDate,2023-11-18T15:24:32-05:00
; #@! TF.GenerationSoftware,Kicad,Pcbnew,(6.0.2)
; #@! TF.FileFunction,Plated,1,2,PTH
FMAT,2
INCH,TZ
; #@! TA.AperFunction,Plated,PTH,ViaDrill
T1C0.0157
; #@! TA.AperFunction,Plated,PTH,ComponentDrill
T2C0.0197
; #@! TA.AperFunction,Plated,PTH,ComponentDrill
T3C0.0236
; #@! TA.AperFunction,Plated,PTH,ComponentDrill
T4C0.0394
; #@! TA.AperFunction,Plated,PTH,ComponentDrill
T5C0.0409
; #@! TA.AperFunction,Plated,PTH,ComponentDrill
T6C0.0579
; #@! TA.AperFunction,Plated,PTH,ComponentDrill
T7C0.0984
; #@! TA.AperFunction,Plated,PTH,ComponentDrill
T8C0.0984
%
G90
G05
T1
X1240Y9230
X1387Y18950
X1750Y1580
X1961Y9012
X2462Y17534
X2560Y24075
X3197Y20545
X3209Y22311
X3579Y28189
X3709Y5988
X3721Y29150
X4245Y22862
X4461Y13118
X4556Y25039
X4658Y21010
X4970Y32620
X5016Y7433
X5130Y27390
X5177Y31190
X5370Y23000
X5536Y21866
X5697Y22547
X5812Y7425
X5839Y31307
X6027Y27140
X6161Y12629
X6198Y9050
X6210Y34450
X6230Y15024
X6320Y33520
X6357Y21540
X6366Y20051
X6370Y29689
X6437Y27180
X6504Y20984
X6548Y23787
X6646Y13653
X6823Y22252
X7217Y19921
X7249Y6087
X7361Y29338
X7481Y22683
X7611Y29575
X7623Y13556
X7705Y26969
X7870Y36040
X7905Y31855
X7977Y20213
X8090Y33980
X8103Y19882
X8162Y25472
X8213Y22606
X8240Y31310
X8247Y32410
X8260Y27571
X8343Y29642
X8343Y7551
X8371Y30165
X8445Y24835
X8477Y20874
X8619Y27484
X8741Y31398
X8753Y21150
X8809Y28026
X8823Y24614
X8867Y16382
X8958Y23399
X9056Y18823
X9067Y17390
X9306Y28287
X9360Y21890
X9370Y36120
X9376Y18226
X9382Y15598
X9406Y9724
X9680Y22230
X9717Y14000
X9974Y16216
X10178Y23562
X10217Y8425
X10249Y19335
X10391Y17267
X10427Y18073
X10548Y23543
X10552Y9583
X10701Y16924
X10738Y28107
X10743Y18093
X10745Y29606
X10750Y13180
X10770Y15640
X10819Y21354
X10997Y21016
X11025Y17670
X11170Y13140
X11186Y20177
X11210Y15640
X11256Y28413
X11391Y17636
X11469Y5768
X11470Y20386
X11784Y16465
X11790Y28100
X11792Y7386
X11808Y13906
X11834Y2190
X11837Y21705
X11896Y22206
X11982Y20060
X12130Y29555
X12150Y23559
X12150Y21752
X12172Y20826
X12230Y24000
X12540Y25256
X12548Y28980
X12736Y31898
X12780Y20063
X12918Y5720
X12930Y20622
X13183Y15292
X13229Y21335
X13461Y24303
X13510Y25050
X13690Y18921
X13730Y25980
X13909Y32732
X14178Y17205
X14224Y11897
X14382Y30343
X14536Y28067
X14595Y23331
X14610Y20740
X14654Y14256
X14756Y8630
X15363Y11819
X15367Y31732
X15465Y17724
X15504Y22414
X15687Y20190
X16103Y26756
X16279Y10240
X16574Y15759
X16631Y32139
X16670Y8921
X17052Y27988
X17772Y29555
X17923Y25737
X18190Y17886
X18196Y2828
X18446Y19399
X18469Y9672
X18528Y16898
X18603Y21350
X18621Y6083
X18632Y30026
X18670Y25880
X18839Y1374
X18910Y15750
X19926Y12579
X19950Y17723
X20028Y22142
X20036Y28961
X20205Y16394
X20430Y13500
X20695Y13783
X20752Y25086
X20765Y15858
X21174Y19126
X21339Y32768
X21382Y17213
X22580Y15460
X22599Y30358
X22681Y31882
X22768Y20874
X23699Y10275
X23713Y8906
X23949Y13669
X25680Y17520
X25747Y25136
X26032Y13709
X26079Y8047
X27327Y15953
X27514Y2785
X27537Y17856
X27587Y24736
X27725Y1559
X27808Y17028
X29355Y8295
X29843Y7783
X30016Y20992
X30080Y15630
X30544Y17530
X30909Y10205
X31503Y32164
X33260Y13894
X33270Y25239
X33428Y9626
X34817Y16520
X35008Y17726
X35310Y24759
X36426Y32768
X36725Y8394
X37088Y17226
X37347Y31050
X37720Y15420
X38280Y8067
X38540Y9208
X38788Y10226
X39223Y32164
X40710Y25219
X40948Y9666
X41660Y17693
X42128Y5926
X42497Y16000
X42710Y24739
X43190Y17091
X43402Y8035
X43453Y2751
X43855Y32714
X43926Y1547
X44830Y15270
X45790Y17718
X46364Y10181
X46564Y32147
X46733Y8449
X47256Y2150
X47335Y6386
X47750Y23343
X48150Y25177
X48319Y13665
X50021Y24779
X51348Y32784
X52119Y17319
X52520Y15170
X53674Y9043
X53749Y10181
X54103Y32189
X54280Y6850
X55595Y6760
X55701Y25139
X55717Y23843
X55954Y9691
X57650Y24751
X58030Y22800
X58107Y4693
X58355Y1626
X58828Y32819
X61239Y10181
X61593Y32224
X63167Y25258
X63178Y6327
X63217Y866
X63260Y14063
X63328Y3194
X64379Y8012
X64825Y17668
X65468Y24860
X65490Y22640
X66423Y32784
X67165Y17183
X67850Y2080
X67989Y8031
X68764Y10251
X69059Y32189
X69087Y5055
X69158Y3106
X69186Y9280
X70028Y8567
X70220Y2080
X70647Y25158
X70981Y2902
X72137Y25590
X72500Y17693
X72708Y24680
X73030Y22580
X73225Y2866
X73808Y6772
X73812Y25433
X74469Y1055
X74710Y17199
X74792Y21154
X76246Y10228
X76819Y9335
X77949Y14378
X78206Y25078
X78665Y9666
X79190Y23970
X79992Y17742
X80248Y24760
X80690Y22610
X81336Y17240
X81407Y32854
X82168Y17196
X82890Y4378
X83524Y8717
X83678Y10223
X83705Y1665
X84172Y32189
X84469Y7248
X85260Y6450
X85308Y14378
X85586Y25118
X86800Y7673
X87622Y17742
X87823Y24630
X88310Y22760
X88540Y7634
X88932Y32819
X89402Y642
X89599Y31228
X89739Y17184
X90220Y2252
X90941Y8319
X91253Y10309
X91347Y2087
X92434Y6402
X93123Y9181
X93275Y25185
X94930Y992
X95101Y29231
X95243Y24690
X95465Y17697
X95630Y22710
X95977Y6402
X96291Y29217
X96460Y32774
X97355Y5638
X97382Y17654
X98980Y32319
X99087Y7126
X99902Y24894
X100489Y22268
X101292Y28374
X102000Y22690
X103064Y8000
X103445Y1760
X104060Y24336
X104170Y22173
X104465Y9335
X104740Y25003
X104954Y10232
X105540Y32580
X105686Y30634
X105737Y28185
X106050Y34559
X106115Y6043
X106335Y9291
X106394Y6654
X106615Y16370
X106720Y32060
X106804Y29795
X106880Y27900
X107229Y31570
X107830Y25720
X108010Y35224
X108585Y9850
X109166Y22677
X109800Y7860
T2
X687Y16027
X687Y13979
X1491Y16027
X1491Y13979
X2215Y15727
X2215Y14279
X2515Y15003
X9011Y26263
X9276Y26903
X9276Y25623
X9916Y27168
X9916Y25357
X10557Y26903
X10557Y25623
X10822Y26263
X49995Y19649
X49995Y17838
X50468Y19649
X50468Y17838
X50940Y19649
X50940Y17838
X74523Y4609
X74523Y2798
X74995Y4609
X74995Y2798
X75468Y4609
X75468Y2798
X101905Y27168
X101905Y25357
X102377Y27168
X102377Y25357
X102849Y27175
X102849Y25357
X109680Y15003
X109980Y15727
X109980Y14279
X110704Y16027
X110704Y13979
X111508Y16027
X111508Y13979
T4
X1430Y25008
X1430Y24008
X1430Y23008
X1430Y22008
X1430Y21008
T5
X3098Y31625
X4035Y16625
X4035Y9125
X4035Y1625
X4098Y31625
X4973Y24125
X4973Y1625
X5035Y16625
X5035Y9125
X5035Y1625
X5910Y16625
X5973Y24125
X5973Y1625
X6910Y16625
X7785Y9125
X8785Y9125
X10598Y31625
X11598Y31625
X12473Y9125
X13410Y1625
X13473Y9125
X14348Y24125
X14348Y1625
X14410Y1625
X15348Y24125
X15348Y1625
X16223Y16625
X17223Y16625
X18098Y31625
X19098Y31625
X19973Y9125
X20972Y9125
X21847Y24125
X22785Y1625
X22847Y24125
X23722Y16625
X23722Y1625
X23785Y1625
X24722Y16625
X24722Y1625
X25597Y31625
X26597Y31625
X27472Y9125
X28472Y9125
X29347Y24125
X30347Y24125
X31222Y16625
X32222Y16625
X33097Y31625
X34097Y31625
X34972Y9125
X35910Y1625
X35972Y9125
X36847Y24125
X36910Y1625
X37785Y1625
X37847Y24125
X38722Y16625
X38785Y1625
X39660Y1625
X39722Y16625
X40598Y31625
X40660Y1625
X41598Y31625
X42473Y9125
X43473Y9125
X44348Y24125
X45348Y24125
X46223Y16625
X47223Y16625
X48098Y31625
X49035Y1625
X49098Y31625
X49973Y9125
X50035Y1625
X50910Y1625
X50973Y9125
X51848Y24125
X51910Y1625
X52785Y1625
X52847Y24125
X53723Y16625
X53785Y1625
X54722Y16625
X55598Y31625
X55598Y1625
X55598Y1625
X56597Y31625
X56597Y1625
X56597Y1625
X57473Y9125
X58472Y9125
X59348Y24125
X60347Y24125
X61223Y16625
X62222Y16625
X63098Y31625
X64035Y1625
X64097Y31625
X64972Y9125
X65035Y1625
X65910Y1625
X65972Y9125
X66847Y24125
X66910Y1625
X67847Y24125
X68722Y16625
X69722Y16625
X70597Y31625
X71535Y1625
X71597Y31625
X72472Y9125
X72535Y1625
X73472Y9125
X74347Y24125
X75347Y24125
X76222Y16625
X77222Y16625
X78097Y31625
X78097Y1625
X79035Y1625
X79097Y31625
X79097Y1625
X79972Y9125
X80035Y1625
X80972Y9125
X81847Y24125
X82848Y24125
X83723Y16625
X84723Y16625
X85598Y31625
X85598Y1625
X86598Y31625
X86598Y1625
X87473Y9125
X87473Y1625
X88410Y1625
X88473Y9125
X88473Y1625
X89348Y24125
X89410Y1625
X90348Y24125
X91223Y16625
X92223Y16625
X93098Y31625
X93098Y1625
X94098Y31625
X94098Y1625
X96848Y24125
X96848Y1625
X97785Y9125
X97785Y1625
X97848Y24125
X97848Y1625
X98723Y16625
X98785Y9125
X98785Y1625
X99723Y16625
X100598Y31625
X100598Y1625
X101535Y9125
X101598Y31625
X101598Y1625
X102535Y9125
X103410Y16625
X104348Y31625
X104410Y16625
X105348Y31625
X105660Y22875
X105660Y21875
X106223Y24125
X106223Y1625
X107160Y1625
X107223Y24125
X107223Y1625
X108098Y31625
X108098Y9125
X108098Y1625
X108160Y1625
X109098Y31625
X109098Y9125
X109098Y1625
T6
X2098Y34625
X3035Y19625
X3035Y12125
X3035Y4625
X3973Y27125
X3973Y4625
X4598Y35625
X4910Y19625
X5535Y20625
X5535Y13125
X5535Y5625
X6473Y28125
X6473Y5625
X6785Y12125
X7410Y20625
X9285Y13125
X9598Y34625
X11472Y12125
X12097Y35625
X12410Y4625
X13348Y27125
X13348Y4625
X13973Y13125
X14910Y5625
X15223Y19625
X15848Y28125
X15848Y5625
X17098Y34625
X17723Y20625
X18973Y12125
X19598Y35625
X20848Y27125
X21473Y13125
X21785Y4625
X22723Y19625
X22723Y4625
X23348Y28125
X24285Y5625
X24598Y34625
X25223Y20625
X25223Y5625
X26473Y12125
X27098Y35625
X28348Y27125
X28973Y13125
X30223Y19625
X30848Y28125
X32098Y34625
X32723Y20625
X33973Y12125
X34598Y35625
X34910Y4625
X35848Y27125
X36473Y13125
X36785Y4625
X37410Y5625
X37723Y19625
X38348Y28125
X38660Y4625
X39285Y5625
X39598Y34625
X40222Y20625
X41160Y5625
X41473Y12125
X42098Y35625
X43348Y27125
X43973Y13125
X45223Y19625
X45848Y28125
X47098Y34625
X47723Y20625
X48035Y4625
X48973Y12125
X49598Y35625
X49910Y4625
X50535Y5625
X50848Y27125
X51472Y13125
X51785Y4625
X52410Y5625
X52722Y19625
X53347Y28125
X54285Y5625
X54597Y34625
X54597Y4625
X54597Y4625
X55222Y20625
X56472Y12125
X57097Y35625
X57097Y5625
X57097Y5625
X58347Y27125
X58972Y13125
X60222Y19625
X60847Y28125
X62097Y34625
X62722Y20625
X63035Y4625
X63972Y12125
X64597Y35625
X64910Y4625
X65535Y5625
X65847Y27125
X66472Y13125
X67410Y5625
X67722Y19625
X68347Y28125
X69597Y34625
X70222Y20625
X70535Y4625
X71472Y12125
X72097Y35625
X73035Y5625
X73347Y27125
X73972Y13125
X75222Y19625
X75847Y28125
X77097Y34625
X77097Y4625
X77722Y20625
X78035Y4625
X78972Y12125
X79597Y35625
X79597Y5625
X80535Y5625
X80847Y27125
X81472Y13125
X82723Y19625
X83348Y28125
X84598Y34625
X84598Y4625
X85223Y20625
X86473Y12125
X86473Y4625
X87098Y35625
X87098Y5625
X87410Y4625
X88348Y27125
X88973Y13125
X88973Y5625
X89910Y5625
X90223Y19625
X90848Y28125
X92098Y34625
X92098Y4625
X92723Y20625
X94598Y35625
X94598Y5625
X95848Y27125
X95848Y4625
X96785Y12125
X96785Y4625
X97723Y19625
X98348Y28125
X98348Y5625
X99285Y13125
X99285Y5625
X99598Y34625
X99598Y4625
X100223Y20625
X100535Y12125
X102098Y35625
X102098Y5625
X102410Y19625
X103035Y13125
X103348Y34625
X104910Y20625
X105223Y27125
X105223Y4625
X105848Y35625
X106160Y4625
X107098Y34625
X107098Y12125
X107098Y4625
X107723Y28125
X107723Y5625
X108660Y23875
X108660Y5625
X109598Y35625
X109598Y13125
X109598Y5625
X109660Y21375
T8
X9916Y26263
T3
G00X5470Y37114
M15
G01X5470Y36878
M16
G05
G00X5470Y35567
M15
G01X5470Y35134
M16
G05
G00X8871Y37114
M15
G01X8871Y36878
M16
G05
G00X8871Y35567
M15
G01X8871Y35134
M16
G05
T7
G00X49975Y18743
M15
G01X50960Y18743
M16
G05
G00X74503Y3704
M15
G01X75488Y3704
M16
G05
G00X101885Y26263
M15
G01X102870Y26263
M16
G05
T0
M30
