G04 #@! TF.GenerationSoftware,KiCad,Pcbnew,(6.0.2)*
G04 #@! TF.CreationDate,2023-11-18T15:25:12-05:00*
G04 #@! TF.ProjectId,60_Pcb,36305f50-6362-42e6-9b69-6361645f7063,rev?*
G04 #@! TF.SameCoordinates,PX4b4f718PY8c7ecc0*
G04 #@! TF.FileFunction,Soldermask,Top*
G04 #@! TF.FilePolarity,Negative*
%FSLAX46Y46*%
G04 Gerber Fmt 4.6, Leading zero omitted, Abs format (unit mm)*
G04 Created by KiCad (PCBNEW (6.0.2)) date 2023-11-18 15:25:12*
%MOMM*%
%LPD*%
G01*
G04 APERTURE LIST*
G04 Aperture macros list*
%AMRoundRect*
0 Rectangle with rounded corners*
0 $1 Rounding radius*
0 $2 $3 $4 $5 $6 $7 $8 $9 X,Y pos of 4 corners*
0 Add a 4 corners polygon primitive as box body*
4,1,4,$2,$3,$4,$5,$6,$7,$8,$9,$2,$3,0*
0 Add four circle primitives for the rounded corners*
1,1,$1+$1,$2,$3*
1,1,$1+$1,$4,$5*
1,1,$1+$1,$6,$7*
1,1,$1+$1,$8,$9*
0 Add four rect primitives between the rounded corners*
20,1,$1+$1,$2,$3,$4,$5,0*
20,1,$1+$1,$4,$5,$6,$7,0*
20,1,$1+$1,$6,$7,$8,$9,0*
20,1,$1+$1,$8,$9,$2,$3,0*%
G04 Aperture macros list end*
%ADD10C,2.501900*%
%ADD11C,1.400000*%
%ADD12C,7.400240*%
%ADD13C,7.401300*%
%ADD14C,3.448000*%
%ADD15C,2.150000*%
%ADD16C,4.387800*%
%ADD17RoundRect,0.200000X-0.850000X-0.850000X0.850000X-0.850000X0.850000X0.850000X-0.850000X0.850000X0*%
%ADD18O,2.100000X2.100000*%
%ADD19C,1.050000*%
%ADD20O,1.400000X2.000000*%
%ADD21O,1.400000X2.500000*%
G04 APERTURE END LIST*
D10*
X281187650Y40758450D02*
X284987650Y40758450D01*
X-12350Y40758450D02*
X3787650Y40758450D01*
X281187650Y35456550D02*
X285037650Y35456550D01*
X-12350Y35456550D02*
X3787650Y35456550D01*
X6438600Y38107500D02*
G75*
G03*
X3787650Y40758450I-2650949J1D01*
G01*
X3787650Y35456550D02*
G75*
G03*
X6438600Y38107500I1J2650949D01*
G01*
X278536700Y38107500D02*
G75*
G03*
X281187650Y35456550I2650949J-1D01*
G01*
X281187650Y40758450D02*
G75*
G03*
X278536700Y38107500I-1J-2650949D01*
G01*
X281187650Y40758450D02*
X284987650Y40758450D01*
X-12350Y40758450D02*
X3787650Y40758450D01*
X281187650Y35456550D02*
X285037650Y35456550D01*
X-12350Y35456550D02*
X3787650Y35456550D01*
X6438600Y38107500D02*
G75*
G03*
X3787650Y40758450I-2650949J1D01*
G01*
X3787650Y35456550D02*
G75*
G03*
X6438600Y38107500I1J2650949D01*
G01*
X278536700Y38107500D02*
G75*
G03*
X281187650Y35456550I2650949J-1D01*
G01*
X281187650Y40758450D02*
G75*
G03*
X278536700Y38107500I-1J-2650949D01*
G01*
D11*
X129387650Y49907500D03*
X22887650Y66707500D03*
X191687650Y7107500D03*
X191687650Y11707500D03*
X1745615Y35507500D03*
X128187650Y49907500D03*
X278587650Y38107500D03*
X189287650Y7107500D03*
X3787650Y35507500D03*
X25187650Y69007500D03*
X27487650Y66707500D03*
D12*
X190487650Y9407500D03*
D11*
X128187650Y45307500D03*
X258837650Y64407500D03*
X26813996Y65081154D03*
X26813996Y68333846D03*
X25187650Y64407500D03*
X190487650Y11707500D03*
D13*
X25187650Y66707500D03*
D11*
X5626128Y39945978D03*
X126987650Y49907500D03*
X260037650Y69007500D03*
X260037650Y64407500D03*
X129387650Y45307500D03*
X189287650Y11707500D03*
X283229685Y40707500D03*
X261237650Y64407500D03*
X279349172Y36269022D03*
X5626128Y36269022D03*
X258837650Y69007500D03*
X281187650Y40707500D03*
D12*
X128187650Y47607500D03*
D11*
X279349172Y39945978D03*
X6387650Y38107500D03*
X126987650Y45307500D03*
X23561304Y65081154D03*
X1745615Y40707500D03*
X283229685Y35507500D03*
X23561304Y68333846D03*
X261237650Y69024500D03*
X3787650Y40707500D03*
X281187650Y35507500D03*
D12*
X260037650Y66707500D03*
D11*
X190487650Y7107500D03*
D14*
X109181900Y2222500D03*
D15*
X102323900Y9207500D03*
D16*
X85305900Y17462500D03*
X97243900Y9207500D03*
D15*
X92163900Y9207500D03*
D16*
X109181900Y17462500D03*
D14*
X85305900Y2222500D03*
D15*
X21361400Y47307500D03*
X11201400Y47307500D03*
D16*
X16281400Y47307500D03*
X11518900Y47307500D03*
D15*
X16598900Y47307500D03*
X6438900Y47307500D03*
D16*
X151980900Y17462500D03*
D14*
X175856900Y2222500D03*
D16*
X175856900Y17462500D03*
D15*
X158838900Y9207500D03*
D16*
X163918900Y9207500D03*
D14*
X151980900Y2222500D03*
D15*
X168998900Y9207500D03*
X254723900Y9207500D03*
X244563900Y9207500D03*
D16*
X249643900Y9207500D03*
D15*
X278536400Y9207500D03*
X268376400Y9207500D03*
D16*
X273456400Y9207500D03*
D14*
X180581300Y2222500D03*
X80581500Y2222500D03*
D16*
X130581400Y9207500D03*
X180581300Y17462500D03*
X80581500Y17462500D03*
D15*
X135661400Y9207500D03*
X125501400Y9207500D03*
X220751400Y9207500D03*
D16*
X225831400Y9207500D03*
D15*
X230911400Y9207500D03*
D16*
X104419400Y17462500D03*
D15*
X87401400Y9207500D03*
D14*
X80543400Y2222500D03*
X104419400Y2222500D03*
D15*
X97561400Y9207500D03*
D16*
X92481400Y9207500D03*
X80543400Y17462500D03*
D15*
X130898900Y9207500D03*
D16*
X125818900Y9207500D03*
D15*
X120738900Y9207500D03*
X196938900Y9207500D03*
D16*
X202018900Y9207500D03*
D15*
X207098900Y9207500D03*
X204717650Y9207500D03*
D16*
X199637650Y9207500D03*
D15*
X194557650Y9207500D03*
D16*
X218687650Y9207500D03*
D15*
X213607650Y9207500D03*
X223767650Y9207500D03*
X251707650Y9207500D03*
D16*
X256787650Y9207500D03*
D15*
X261867650Y9207500D03*
X280917650Y9207500D03*
D16*
X275837650Y9207500D03*
D15*
X270757650Y9207500D03*
D14*
X156743400Y2222500D03*
X180619400Y2222500D03*
D16*
X180619400Y17462500D03*
D15*
X163601400Y9207500D03*
X173761400Y9207500D03*
D16*
X156743400Y17462500D03*
X168681400Y9207500D03*
X37712650Y9207500D03*
D15*
X32632650Y9207500D03*
X42792650Y9207500D03*
X66605150Y9207500D03*
X56445150Y9207500D03*
D16*
X61525150Y9207500D03*
D15*
X147567650Y9207500D03*
D16*
X199637650Y17462500D03*
D14*
X199637650Y2222500D03*
D16*
X85337650Y17462500D03*
D14*
X85337650Y2222500D03*
D16*
X142487650Y9207500D03*
D15*
X137407650Y9207500D03*
D16*
X247262650Y9207500D03*
D15*
X252342650Y9207500D03*
X242182650Y9207500D03*
D16*
X271075150Y9207500D03*
D15*
X265995150Y9207500D03*
X276155150Y9207500D03*
D14*
X90068400Y2222500D03*
D15*
X107086400Y9207500D03*
D16*
X102006400Y9207500D03*
X90068400Y17462500D03*
D15*
X96926400Y9207500D03*
D14*
X113944400Y2222500D03*
D16*
X113944400Y17462500D03*
X142487650Y9207500D03*
D15*
X147567650Y9207500D03*
X137407650Y9207500D03*
X188048900Y9207500D03*
D16*
X194906900Y17462500D03*
D14*
X194906900Y2222500D03*
D16*
X171030900Y17462500D03*
X182968900Y9207500D03*
D15*
X177888900Y9207500D03*
D14*
X171030900Y2222500D03*
D16*
X35331400Y9207500D03*
D15*
X30251400Y9207500D03*
X40411400Y9207500D03*
X64223900Y9207500D03*
D16*
X59143900Y9207500D03*
D15*
X54063900Y9207500D03*
D16*
X135343900Y9207500D03*
D15*
X130263900Y9207500D03*
X140423900Y9207500D03*
X218370150Y9207500D03*
X228530150Y9207500D03*
D16*
X223450150Y9207500D03*
D15*
X273456400Y61912500D03*
D14*
X280441400Y68770500D03*
D15*
X273456400Y51752500D03*
D16*
X265201400Y68770500D03*
X273456400Y56832500D03*
X265201400Y44894500D03*
D14*
X280441400Y44894500D03*
D15*
X32632650Y66357500D03*
X42792650Y66357500D03*
D16*
X37712650Y66357500D03*
D15*
X194557650Y85407500D03*
D16*
X199637650Y85407500D03*
D15*
X204717650Y85407500D03*
D16*
X28187650Y85407500D03*
D15*
X33267650Y85407500D03*
X23107650Y85407500D03*
D16*
X47237650Y85407500D03*
D15*
X42157650Y85407500D03*
X52317650Y85407500D03*
D16*
X66287650Y85407500D03*
D15*
X71367650Y85407500D03*
X61207650Y85407500D03*
X90417650Y85407500D03*
X80257650Y85407500D03*
D16*
X85337650Y85407500D03*
D15*
X99307650Y85407500D03*
X109467650Y85407500D03*
D16*
X104387650Y85407500D03*
X123437650Y85407500D03*
D15*
X118357650Y85407500D03*
X128517650Y85407500D03*
X137407650Y85407500D03*
X147567650Y85407500D03*
D16*
X142487650Y85407500D03*
D15*
X156457650Y85407500D03*
X166617650Y85407500D03*
D16*
X161537650Y85407500D03*
X180587650Y85407500D03*
D15*
X185667650Y85407500D03*
X175507650Y85407500D03*
D16*
X218687650Y85407500D03*
D15*
X223767650Y85407500D03*
X213607650Y85407500D03*
D16*
X237737650Y85407500D03*
D15*
X232657650Y85407500D03*
X242817650Y85407500D03*
D14*
X254374650Y92392500D03*
D15*
X261232650Y85407500D03*
D14*
X278250650Y92392500D03*
D16*
X266312650Y85407500D03*
X278250650Y77152500D03*
X254374650Y77152500D03*
D15*
X271392650Y85407500D03*
X270757650Y85407500D03*
D16*
X275837650Y85407500D03*
D15*
X280917650Y85407500D03*
X251707650Y85407500D03*
D16*
X256787650Y85407500D03*
D15*
X261867650Y85407500D03*
X14217650Y85407500D03*
X4057650Y85407500D03*
D16*
X9137650Y85407500D03*
X232975150Y47307500D03*
D15*
X238055150Y47307500D03*
X227895150Y47307500D03*
D16*
X213925150Y47307500D03*
D15*
X219005150Y47307500D03*
X208845150Y47307500D03*
X47555150Y47307500D03*
X37395150Y47307500D03*
D16*
X42475150Y47307500D03*
D15*
X75495150Y47307500D03*
D16*
X80575150Y47307500D03*
D15*
X85655150Y47307500D03*
D14*
X251993400Y54292500D03*
X275869400Y54292500D03*
D16*
X251993400Y39052500D03*
X263931400Y47307500D03*
X275869400Y39052500D03*
D15*
X258851400Y47307500D03*
X269011400Y47307500D03*
D16*
X99625150Y47307500D03*
D15*
X94545150Y47307500D03*
X104705150Y47307500D03*
D16*
X118675150Y47307500D03*
D15*
X123755150Y47307500D03*
X113595150Y47307500D03*
D16*
X137725150Y47307500D03*
D15*
X132645150Y47307500D03*
X142805150Y47307500D03*
D16*
X252025150Y47307500D03*
D15*
X246945150Y47307500D03*
X257105150Y47307500D03*
X151695150Y47307500D03*
D16*
X156775150Y47307500D03*
D15*
X161855150Y47307500D03*
D16*
X175825150Y47307500D03*
D15*
X170745150Y47307500D03*
X180905150Y47307500D03*
X189795150Y47307500D03*
X199955150Y47307500D03*
D16*
X194875150Y47307500D03*
D15*
X56445150Y47307500D03*
D16*
X61525150Y47307500D03*
D15*
X66605150Y47307500D03*
X80892650Y66357500D03*
D16*
X75812650Y66357500D03*
D15*
X70732650Y66357500D03*
X176142650Y66357500D03*
X165982650Y66357500D03*
D16*
X171062650Y66357500D03*
X190112650Y66357500D03*
D15*
X185032650Y66357500D03*
X195192650Y66357500D03*
D16*
X209162650Y66357500D03*
D15*
X204082650Y66357500D03*
X214242650Y66357500D03*
D16*
X94862650Y66357500D03*
D15*
X89782650Y66357500D03*
X99942650Y66357500D03*
X118992650Y66357500D03*
X108832650Y66357500D03*
D16*
X113912650Y66357500D03*
D15*
X18980150Y66357500D03*
X8820150Y66357500D03*
D16*
X13900150Y66357500D03*
D15*
X157092650Y66357500D03*
X146932650Y66357500D03*
D16*
X152012650Y66357500D03*
D15*
X61842650Y66357500D03*
D16*
X56762650Y66357500D03*
D15*
X51682650Y66357500D03*
X127882650Y66357500D03*
X138042650Y66357500D03*
D16*
X132962650Y66357500D03*
D15*
X223132650Y66357500D03*
D16*
X228212650Y66357500D03*
D15*
X233292650Y66357500D03*
X276155150Y66357500D03*
X265995150Y66357500D03*
D16*
X271075150Y66357500D03*
D15*
X242182650Y66357500D03*
X252342650Y66357500D03*
D16*
X247262650Y66357500D03*
D15*
X180270150Y28257500D03*
D16*
X185350150Y28257500D03*
D15*
X190430150Y28257500D03*
D16*
X204400150Y28257500D03*
D15*
X209480150Y28257500D03*
X199320150Y28257500D03*
X228530150Y28257500D03*
D16*
X223450150Y28257500D03*
D15*
X218370150Y28257500D03*
X133280150Y28257500D03*
D16*
X128200150Y28257500D03*
D15*
X123120150Y28257500D03*
D16*
X90100150Y28257500D03*
D15*
X95180150Y28257500D03*
X85020150Y28257500D03*
X280917650Y28257500D03*
D16*
X275837650Y28257500D03*
D15*
X270757650Y28257500D03*
D16*
X32950150Y28257500D03*
D15*
X38030150Y28257500D03*
X27870150Y28257500D03*
D14*
X9105900Y35242500D03*
D15*
X26123900Y28257500D03*
D16*
X32981900Y20002500D03*
X9105900Y20002500D03*
X21043900Y28257500D03*
D14*
X32981900Y35242500D03*
D15*
X15963900Y28257500D03*
X16598900Y28257500D03*
D16*
X11518900Y28257500D03*
D15*
X6438900Y28257500D03*
X171380150Y28257500D03*
D16*
X166300150Y28257500D03*
D15*
X161220150Y28257500D03*
X152330150Y28257500D03*
X142170150Y28257500D03*
D16*
X147250150Y28257500D03*
D14*
X271106900Y35242500D03*
D15*
X264248900Y28257500D03*
D16*
X271106900Y20002500D03*
X247230900Y20002500D03*
D15*
X254088900Y28257500D03*
D16*
X259168900Y28257500D03*
D14*
X247230900Y35242500D03*
D16*
X249643900Y28257500D03*
D15*
X244563900Y28257500D03*
X254723900Y28257500D03*
X114230150Y28257500D03*
X104070150Y28257500D03*
D16*
X109150150Y28257500D03*
D15*
X76130150Y28257500D03*
D16*
X71050150Y28257500D03*
D15*
X65970150Y28257500D03*
X46920150Y28257500D03*
D16*
X52000150Y28257500D03*
D15*
X57080150Y28257500D03*
X232657650Y9207500D03*
D16*
X237737650Y9207500D03*
D15*
X242817650Y9207500D03*
X6438900Y9207500D03*
X16598900Y9207500D03*
D16*
X11518900Y9207500D03*
D15*
X8820150Y9207500D03*
D16*
X13900150Y9207500D03*
D15*
X18980150Y9207500D03*
D17*
X3631400Y63520000D03*
D18*
X3631400Y60980000D03*
X3631400Y58440000D03*
X3631400Y55900000D03*
X3631400Y53360000D03*
D19*
X15323400Y90320800D03*
X21103400Y90320800D03*
D20*
X13893400Y93970800D03*
D21*
X22533400Y89790800D03*
X13893400Y89790800D03*
D20*
X22533400Y93970800D03*
G36*
X277904835Y38234965D02*
G01*
X277905314Y38233385D01*
X277889703Y38114809D01*
X277908107Y37948113D01*
X277958706Y37809841D01*
X277958362Y37807871D01*
X277956484Y37807184D01*
X277955096Y37808154D01*
X277947065Y37822065D01*
X277946895Y37822447D01*
X277938849Y37847210D01*
X277899587Y37904628D01*
X277835792Y37931588D01*
X277767522Y37919774D01*
X277719944Y37878097D01*
X277717982Y37877708D01*
X277716664Y37879212D01*
X277716963Y37880712D01*
X277767635Y37956549D01*
X277894448Y38213700D01*
X277901437Y38234289D01*
X277902941Y38235608D01*
X277904835Y38234965D01*
G37*
G36*
X278049678Y38829385D02*
G01*
X278050519Y38828159D01*
X278065564Y38760926D01*
X278114827Y38712246D01*
X278182600Y38697924D01*
X278223773Y38713088D01*
X278225744Y38712748D01*
X278226291Y38712025D01*
X278227007Y38710418D01*
X278294405Y38740427D01*
X278296394Y38740218D01*
X278297207Y38738391D01*
X278296135Y38736823D01*
X278195326Y38684791D01*
X278068945Y38574542D01*
X277976357Y38442803D01*
X277974543Y38441961D01*
X277972907Y38443111D01*
X277972827Y38444596D01*
X277986608Y38485194D01*
X278042544Y38766401D01*
X278046571Y38827853D01*
X278047682Y38829516D01*
X278049678Y38829385D01*
G37*
G36*
X124616322Y46667032D02*
G01*
X124669689Y46467864D01*
X124669171Y46465932D01*
X124667239Y46465414D01*
X124666149Y46466157D01*
X124629102Y46516289D01*
X124564361Y46540895D01*
X124496405Y46526552D01*
X124480374Y46515732D01*
X124478379Y46515592D01*
X124477260Y46517250D01*
X124477976Y46518928D01*
X124513870Y46548780D01*
X124612852Y46667793D01*
X124614729Y46668485D01*
X124616322Y46667032D01*
G37*
G36*
X131769582Y46695013D02*
G01*
X131769801Y46694753D01*
X131829238Y46610651D01*
X131915389Y46526727D01*
X131915931Y46524802D01*
X131914536Y46523369D01*
X131913058Y46523526D01*
X131852967Y46555324D01*
X131783955Y46549479D01*
X131728934Y46507156D01*
X131713307Y46478236D01*
X131710606Y46471090D01*
X131709058Y46469823D01*
X131707187Y46470530D01*
X131706803Y46472315D01*
X131766236Y46694117D01*
X131767650Y46695531D01*
X131769582Y46695013D01*
G37*
G36*
X131811098Y48363103D02*
G01*
X131813975Y48351980D01*
X131814016Y48351782D01*
X131827237Y48265387D01*
X131856704Y48202379D01*
X131915303Y48165464D01*
X131984733Y48166092D01*
X132010897Y48177641D01*
X132012886Y48177425D01*
X132013693Y48175596D01*
X132013024Y48174307D01*
X131866829Y48046097D01*
X131861697Y48039587D01*
X131859839Y48038846D01*
X131858268Y48040084D01*
X131858151Y48040512D01*
X131807187Y48362289D01*
X131807903Y48364156D01*
X131809879Y48364469D01*
X131811098Y48363103D01*
G37*
G36*
X124568546Y48370345D02*
G01*
X124569114Y48368610D01*
X124520176Y48059623D01*
X124518918Y48058069D01*
X124516843Y48058467D01*
X124408342Y48158765D01*
X124362639Y48187602D01*
X124361708Y48189372D01*
X124362775Y48191063D01*
X124364253Y48191217D01*
X124429639Y48172607D01*
X124495926Y48192673D01*
X124540948Y48245513D01*
X124550153Y48276620D01*
X124563904Y48364434D01*
X124563945Y48364633D01*
X124565204Y48369431D01*
X124566611Y48370852D01*
X124568546Y48370345D01*
G37*
G36*
X274220578Y54781065D02*
G01*
X274221197Y54779069D01*
X274173566Y54591524D01*
X274172185Y54577805D01*
X274171016Y54576181D01*
X274169027Y54576382D01*
X274168229Y54577640D01*
X274155531Y54646059D01*
X274108084Y54696512D01*
X274040680Y54713358D01*
X274024719Y54711457D01*
X274022881Y54712245D01*
X274022645Y54714231D01*
X274023840Y54715337D01*
X274218616Y54781455D01*
X274220578Y54781065D01*
G37*
G36*
X275544037Y56168747D02*
G01*
X275544531Y56167345D01*
X275541662Y56098512D01*
X275576647Y56038740D01*
X275638551Y56007290D01*
X275667818Y56005394D01*
X275707397Y56007572D01*
X275709181Y56006669D01*
X275709291Y56004672D01*
X275707777Y56003593D01*
X275511375Y55976864D01*
X275471092Y55965122D01*
X275469149Y55965597D01*
X275468589Y55967517D01*
X275468738Y55967927D01*
X275481448Y55993700D01*
X275540639Y56168071D01*
X275542143Y56169390D01*
X275544037Y56168747D01*
G37*
G36*
X263706720Y67172165D02*
G01*
X263867061Y67031550D01*
X263923267Y66993995D01*
X263924152Y66992201D01*
X263923041Y66990538D01*
X263921558Y66990423D01*
X263855812Y67011009D01*
X263789022Y66992685D01*
X263742715Y66941133D01*
X263730790Y66881640D01*
X263734956Y66799401D01*
X263734045Y66797621D01*
X263732048Y66797520D01*
X263730962Y66799195D01*
X263715508Y67094060D01*
X263703426Y67170348D01*
X263704142Y67172215D01*
X263706118Y67172528D01*
X263706720Y67172165D01*
G37*
G36*
X263053282Y69185603D02*
G01*
X263053610Y69184060D01*
X263028256Y69056599D01*
X263018048Y68900841D01*
X263016937Y68899178D01*
X263014941Y68899309D01*
X263014498Y68899713D01*
X262814946Y69146139D01*
X262814633Y69148115D01*
X262816187Y69149373D01*
X262817951Y69148775D01*
X262840114Y69125419D01*
X262900270Y69090498D01*
X262969457Y69093628D01*
X263026012Y69133698D01*
X263049832Y69185288D01*
X263051466Y69186442D01*
X263053282Y69185603D01*
G37*
G36*
X21850579Y90467880D02*
G01*
X21851019Y90466347D01*
X21835437Y90347993D01*
X21835400Y90340790D01*
X21835400Y90095728D01*
X21834400Y90093996D01*
X21832400Y90093996D01*
X21831481Y90095165D01*
X21811804Y90162180D01*
X21759461Y90207535D01*
X21690908Y90217392D01*
X21627861Y90188599D01*
X21595137Y90142713D01*
X21593317Y90141883D01*
X21591689Y90143044D01*
X21591661Y90144639D01*
X21608562Y90185442D01*
X21626383Y90320800D01*
X21609479Y90449193D01*
X21610244Y90451041D01*
X21612227Y90451302D01*
X21613058Y90450659D01*
X21654194Y90396195D01*
X21719191Y90372270D01*
X21786801Y90387282D01*
X21835676Y90436576D01*
X21847163Y90467308D01*
X21848706Y90468581D01*
X21850579Y90467880D01*
G37*
G36*
X14576494Y90496807D02*
G01*
X14578248Y90491596D01*
X14578340Y90491174D01*
X14578698Y90487884D01*
X14605388Y90423650D01*
X14662323Y90384214D01*
X14731540Y90381818D01*
X14791152Y90417278D01*
X14814080Y90453835D01*
X14815847Y90454771D01*
X14817541Y90453708D01*
X14817757Y90452511D01*
X14800417Y90320800D01*
X14818238Y90185442D01*
X14836272Y90141904D01*
X14836011Y90139921D01*
X14834163Y90139156D01*
X14832816Y90139950D01*
X14792667Y90194279D01*
X14727926Y90218885D01*
X14660160Y90204582D01*
X14610861Y90155888D01*
X14595336Y90095839D01*
X14593935Y90094413D01*
X14591998Y90094913D01*
X14591400Y90096340D01*
X14591400Y90340676D01*
X14572612Y90495929D01*
X14573397Y90497768D01*
X14575383Y90498009D01*
X14576494Y90496807D01*
G37*
M02*
