G04 #@! TF.GenerationSoftware,KiCad,Pcbnew,(6.0.2)*
G04 #@! TF.CreationDate,2023-11-18T15:25:12-05:00*
G04 #@! TF.ProjectId,60_Pcb,36305f50-6362-42e6-9b69-6361645f7063,rev?*
G04 #@! TF.SameCoordinates,PX4b4f718PY8c7ecc0*
G04 #@! TF.FileFunction,Paste,Bot*
G04 #@! TF.FilePolarity,Positive*
%FSLAX46Y46*%
G04 Gerber Fmt 4.6, Leading zero omitted, Abs format (unit mm)*
G04 Created by KiCad (PCBNEW (6.0.2)) date 2023-11-18 15:25:12*
%MOMM*%
%LPD*%
G01*
G04 APERTURE LIST*
G04 Aperture macros list*
%AMRoundRect*
0 Rectangle with rounded corners*
0 $1 Rounding radius*
0 $2 $3 $4 $5 $6 $7 $8 $9 X,Y pos of 4 corners*
0 Add a 4 corners polygon primitive as box body*
4,1,4,$2,$3,$4,$5,$6,$7,$8,$9,$2,$3,0*
0 Add four circle primitives for the rounded corners*
1,1,$1+$1,$2,$3*
1,1,$1+$1,$4,$5*
1,1,$1+$1,$6,$7*
1,1,$1+$1,$8,$9*
0 Add four rect primitives between the rounded corners*
20,1,$1+$1,$2,$3,$4,$5,0*
20,1,$1+$1,$4,$5,$6,$7,0*
20,1,$1+$1,$6,$7,$8,$9,0*
20,1,$1+$1,$8,$9,$2,$3,0*%
G04 Aperture macros list end*
%ADD10R,0.900000X0.500000*%
%ADD11R,0.500000X0.900000*%
%ADD12R,1.000000X1.700000*%
%ADD13R,0.900000X1.200000*%
%ADD14R,1.200000X0.900000*%
%ADD15R,1.300000X0.700000*%
%ADD16R,0.600000X1.300000*%
%ADD17R,0.600000X1.450000*%
%ADD18R,0.300000X1.450000*%
%ADD19R,0.650000X1.060000*%
%ADD20R,1.300000X0.250000*%
%ADD21R,0.250000X1.300000*%
%ADD22RoundRect,0.218750X-0.256250X0.218750X-0.256250X-0.218750X0.256250X-0.218750X0.256250X0.218750X0*%
%ADD23RoundRect,0.218750X0.256250X-0.218750X0.256250X0.218750X-0.256250X0.218750X-0.256250X-0.218750X0*%
%ADD24RoundRect,0.218750X-0.218750X-0.256250X0.218750X-0.256250X0.218750X0.256250X-0.218750X0.256250X0*%
%ADD25RoundRect,0.218750X0.218750X0.256250X-0.218750X0.256250X-0.218750X-0.256250X0.218750X-0.256250X0*%
%ADD26R,1.500000X1.000000*%
%ADD27R,1.600000X1.300000*%
%ADD28R,0.420000X0.600000*%
%ADD29R,0.650000X0.400000*%
G04 APERTURE END LIST*
D10*
X90100150Y59654375D03*
X90100150Y61154375D03*
X109150150Y59654375D03*
X109150150Y61154375D03*
X128200150Y59654375D03*
X128200150Y61154375D03*
X12065000Y88176800D03*
X12065000Y86676800D03*
D11*
X26781400Y91070000D03*
X25281400Y91070000D03*
D12*
X26192400Y33426000D03*
X26192400Y39726000D03*
X29992400Y39726000D03*
X29992400Y33426000D03*
D13*
X7517400Y91440000D03*
X4217400Y91440000D03*
D14*
X36522025Y84948125D03*
X36522025Y88248125D03*
X55572025Y84948125D03*
X55572025Y88248125D03*
D13*
X76431400Y88930000D03*
X73131400Y88930000D03*
D14*
X93672025Y84948125D03*
X93672025Y88248125D03*
X112722025Y84948125D03*
X112722025Y88248125D03*
X131772025Y84948125D03*
X131772025Y88248125D03*
X150822025Y84948125D03*
X150822025Y88248125D03*
X169872025Y84948125D03*
X169872025Y88248125D03*
D13*
X190421400Y88850000D03*
X187121400Y88850000D03*
D14*
X207972025Y84948125D03*
X207972025Y88248125D03*
X227022025Y84948125D03*
X227022025Y88248125D03*
X246072025Y84948125D03*
X246072025Y88248125D03*
X265709400Y88520000D03*
X265709400Y91820000D03*
X281790775Y88520000D03*
X281790775Y91820000D03*
X5565775Y69470000D03*
X5565775Y72770000D03*
X45931400Y67770000D03*
X45931400Y71070000D03*
X65097025Y65898125D03*
X65097025Y69198125D03*
X84147025Y65898125D03*
X84147025Y69198125D03*
X103197025Y65898125D03*
X103197025Y69198125D03*
X122247025Y65898125D03*
X122247025Y69198125D03*
X141297025Y65898125D03*
X141297025Y69198125D03*
X160347025Y65898125D03*
X160347025Y69198125D03*
X179397025Y65898125D03*
X179397025Y69198125D03*
X198447025Y65898125D03*
X198447025Y69198125D03*
X217497025Y65898125D03*
X217497025Y69198125D03*
X236547025Y65898125D03*
X236547025Y69198125D03*
X254406400Y68279375D03*
X254406400Y71579375D03*
X277028275Y69470000D03*
X277028275Y72770000D03*
X21043900Y40895000D03*
X21043900Y44195000D03*
X50809525Y46848125D03*
X50809525Y50148125D03*
X69859525Y46848125D03*
X69859525Y50148125D03*
X88909525Y46848125D03*
X88909525Y50148125D03*
X107959525Y46848125D03*
X107959525Y50148125D03*
X110832900Y46850300D03*
X110832900Y50150300D03*
X146059525Y46848125D03*
X146059525Y50148125D03*
X165109525Y46848125D03*
X165109525Y50148125D03*
X184159525Y46848125D03*
X184159525Y50148125D03*
X203209525Y46848125D03*
X203209525Y50148125D03*
X222259525Y46848125D03*
X222259525Y50148125D03*
X241309525Y46848125D03*
X241309525Y50148125D03*
X259168900Y52801250D03*
X259168900Y56101250D03*
X272265775Y45657500D03*
X272265775Y48957500D03*
X3184525Y27798125D03*
X3184525Y31098125D03*
X41284525Y27798125D03*
X41284525Y31098125D03*
X60334525Y27798125D03*
X60334525Y31098125D03*
X79384525Y27798125D03*
X79384525Y31098125D03*
X98434525Y27798125D03*
X98434525Y31098125D03*
X117484525Y27798125D03*
X117484525Y31098125D03*
X136534525Y27798125D03*
X136534525Y31098125D03*
X155584525Y27798125D03*
X155584525Y31098125D03*
X174634525Y27798125D03*
X174634525Y31098125D03*
X193684525Y27798125D03*
X193684525Y31098125D03*
X212734525Y27798125D03*
X212734525Y31098125D03*
X231784525Y27798125D03*
X231784525Y31098125D03*
X267503275Y27798125D03*
X267503275Y31098125D03*
X281790775Y21845000D03*
X281790775Y25145000D03*
X22733000Y12167600D03*
X22733000Y15467600D03*
X46047025Y8748125D03*
X46047025Y12048125D03*
X69859525Y8748125D03*
X69859525Y12048125D03*
X110340775Y8748125D03*
X110340775Y12048125D03*
X150822025Y7557500D03*
X150822025Y10857500D03*
X155584525Y7557500D03*
X155584525Y10857500D03*
X207972025Y13510625D03*
X207972025Y16810625D03*
X211543900Y13510625D03*
X211543900Y16810625D03*
X243690775Y14701250D03*
X243690775Y18001250D03*
X263781400Y11420000D03*
X263781400Y14720000D03*
X281790775Y12320000D03*
X281790775Y15620000D03*
D15*
X14231400Y81320000D03*
X14231400Y83220000D03*
D10*
X4375150Y78704375D03*
X4375150Y80204375D03*
X23425150Y78704375D03*
X23425150Y80204375D03*
X42475150Y78704375D03*
X42475150Y80204375D03*
X61271400Y79770000D03*
X61271400Y81270000D03*
X80575150Y78704375D03*
X80575150Y80204375D03*
X99625150Y78704375D03*
X99625150Y80204375D03*
X118675150Y78704375D03*
X118675150Y80204375D03*
X137725150Y78704375D03*
X137725150Y80204375D03*
X156775150Y78704375D03*
X156775150Y80204375D03*
X175825150Y78704375D03*
X175825150Y80204375D03*
X194161400Y79760000D03*
X194161400Y81260000D03*
X213925150Y78704375D03*
X213925150Y80204375D03*
X232851400Y79840000D03*
X232851400Y81340000D03*
X250834525Y78704375D03*
X250834525Y80204375D03*
X271075150Y78704375D03*
X271075150Y80204375D03*
X9137650Y59654375D03*
X9137650Y61154375D03*
X33031400Y62770000D03*
X33031400Y64270000D03*
X62151400Y59670000D03*
X62151400Y61170000D03*
X71050150Y59654375D03*
X71050150Y61154375D03*
X147250150Y59654375D03*
X147250150Y61154375D03*
X166300150Y59654375D03*
X166300150Y61154375D03*
X185350150Y59654375D03*
X185350150Y61154375D03*
X204400150Y59654375D03*
X204400150Y61154375D03*
X223450150Y59654375D03*
X223450150Y61154375D03*
X242500150Y59654375D03*
X242500150Y61154375D03*
X266312650Y59654375D03*
X266312650Y61154375D03*
X7947025Y42985625D03*
X7947025Y44485625D03*
X37712650Y40604375D03*
X37712650Y42104375D03*
X56762650Y40604375D03*
X56762650Y42104375D03*
X75812650Y40604375D03*
X75812650Y42104375D03*
X94862650Y40604375D03*
X94862650Y42104375D03*
X113912650Y40604375D03*
X113912650Y42104375D03*
X132962650Y40604375D03*
X132962650Y42104375D03*
X152012650Y40604375D03*
X152012650Y42104375D03*
X171062650Y40604375D03*
X171062650Y42104375D03*
X190112650Y40604375D03*
X190112650Y42104375D03*
X209162650Y40604375D03*
X209162650Y42104375D03*
X228212650Y40604375D03*
X228212650Y42104375D03*
X247262650Y40604375D03*
X247262650Y42104375D03*
X259168900Y40604375D03*
X259168900Y42104375D03*
X6756400Y23935625D03*
X6756400Y25435625D03*
X28187650Y21554375D03*
X28187650Y23054375D03*
X47237650Y21554375D03*
X47237650Y23054375D03*
X66121400Y22670000D03*
X66121400Y24170000D03*
X85337650Y21554375D03*
X85337650Y23054375D03*
X104387650Y21554375D03*
X104387650Y23054375D03*
X123281400Y22570000D03*
X123281400Y24070000D03*
X142487650Y21554375D03*
X142487650Y23054375D03*
X161441400Y22540000D03*
X161441400Y24040000D03*
X180587650Y21554375D03*
X180587650Y23054375D03*
X199637650Y21554375D03*
X199637650Y23054375D03*
X218687650Y21554375D03*
X218687650Y23054375D03*
X254406400Y21554375D03*
X254406400Y23054375D03*
D11*
X275087650Y19923125D03*
X276587650Y19923125D03*
D10*
X6756400Y2504375D03*
X6756400Y4004375D03*
X30568900Y2504375D03*
X30568900Y4004375D03*
X54381400Y2504375D03*
X54381400Y4004375D03*
X117678200Y2475800D03*
X117678200Y3975800D03*
X121056400Y2504375D03*
X121056400Y4004375D03*
X159156400Y3695000D03*
X159156400Y5195000D03*
X206781400Y2504375D03*
X206781400Y4004375D03*
X230593900Y2504375D03*
X230593900Y4004375D03*
X234165775Y2504375D03*
X234165775Y4004375D03*
X253136400Y3163000D03*
X253136400Y1663000D03*
X267741400Y1282000D03*
X267741400Y2782000D03*
D16*
X20157400Y38134000D03*
X22057400Y38134000D03*
X21107400Y36034000D03*
D17*
X14988400Y88875800D03*
X15763400Y88875800D03*
D18*
X16463400Y88875800D03*
X16963400Y88875800D03*
X17463400Y88875800D03*
X17963400Y88875800D03*
X18463400Y88875800D03*
X18963400Y88875800D03*
X19463400Y88875800D03*
X19963400Y88875800D03*
D17*
X20663400Y88875800D03*
X21438400Y88875800D03*
D11*
X23881400Y43720000D03*
X25381400Y43720000D03*
D19*
X17981400Y61420000D03*
X18931400Y61420000D03*
X19881400Y61420000D03*
X19881400Y59220000D03*
X17981400Y59220000D03*
D20*
X34881400Y56470000D03*
X34881400Y55970000D03*
X34881400Y55470000D03*
X34881400Y54970000D03*
X34881400Y54470000D03*
X34881400Y53970000D03*
X34881400Y53470000D03*
X34881400Y52970000D03*
X34881400Y52470000D03*
X34881400Y51970000D03*
X34881400Y51470000D03*
X34881400Y50970000D03*
D21*
X33281400Y49370000D03*
X32781400Y49370000D03*
X32281400Y49370000D03*
X31781400Y49370000D03*
X31281400Y49370000D03*
X30781400Y49370000D03*
X30281400Y49370000D03*
X29781400Y49370000D03*
X29281400Y49370000D03*
X28781400Y49370000D03*
X28281400Y49370000D03*
X27781400Y49370000D03*
D20*
X26181400Y50970000D03*
X26181400Y51470000D03*
X26181400Y51970000D03*
X26181400Y52470000D03*
X26181400Y52970000D03*
X26181400Y53470000D03*
X26181400Y53970000D03*
X26181400Y54470000D03*
X26181400Y54970000D03*
X26181400Y55470000D03*
X26181400Y55970000D03*
X26181400Y56470000D03*
D21*
X27781400Y58070000D03*
X28281400Y58070000D03*
X28781400Y58070000D03*
X29281400Y58070000D03*
X29781400Y58070000D03*
X30281400Y58070000D03*
X30781400Y58070000D03*
X31281400Y58070000D03*
X31781400Y58070000D03*
X32281400Y58070000D03*
X32781400Y58070000D03*
X33281400Y58070000D03*
D22*
X42221400Y76967500D03*
X42221400Y75392500D03*
X72651400Y76377500D03*
X72651400Y74802500D03*
X99501400Y76447500D03*
X99501400Y74872500D03*
X135031400Y77257500D03*
X135031400Y75682500D03*
X168161400Y76467500D03*
X168161400Y74892500D03*
X202671400Y76817500D03*
X202671400Y75242500D03*
X236051400Y76707500D03*
X236051400Y75132500D03*
X269481400Y76547500D03*
X269481400Y74972500D03*
X266741400Y19677500D03*
X266741400Y18102500D03*
D23*
X193221400Y22022500D03*
X193221400Y23597500D03*
D24*
X168183900Y20760000D03*
X169758900Y20760000D03*
D22*
X133911400Y19227500D03*
X133911400Y17652500D03*
D25*
X100818900Y23070000D03*
X99243900Y23070000D03*
D22*
X72021400Y19267500D03*
X72021400Y17692500D03*
X23081400Y19737500D03*
X23081400Y18162500D03*
D26*
X69501400Y76650000D03*
X69501400Y73450000D03*
X64601400Y73450000D03*
X64601400Y76650000D03*
X96421400Y77840000D03*
X96421400Y74640000D03*
X91521400Y74640000D03*
X91521400Y77840000D03*
X165401400Y76590000D03*
X165401400Y73390000D03*
X160501400Y73390000D03*
X160501400Y76590000D03*
X199601400Y77280000D03*
X199601400Y74080000D03*
X194701400Y74080000D03*
X194701400Y77280000D03*
X264251400Y20350000D03*
X264251400Y17150000D03*
X259351400Y17150000D03*
X259351400Y20350000D03*
X232941400Y21220000D03*
X232941400Y18020000D03*
X228041400Y18020000D03*
X228041400Y21220000D03*
X165871400Y20400000D03*
X165871400Y17200000D03*
X160971400Y17200000D03*
X160971400Y20400000D03*
X130761400Y20250000D03*
X130761400Y17050000D03*
X125861400Y17050000D03*
X125861400Y20250000D03*
X100481400Y20670000D03*
X100481400Y17470000D03*
X95581400Y17470000D03*
X95581400Y20670000D03*
X68981400Y20420000D03*
X68981400Y17220000D03*
X64081400Y17220000D03*
X64081400Y20420000D03*
X19411400Y20400000D03*
X19411400Y17200000D03*
X14511400Y17200000D03*
X14511400Y20400000D03*
D27*
X46031400Y58150000D03*
X42731400Y58150000D03*
X42731400Y60150000D03*
X46031400Y60150000D03*
D26*
X39051400Y78470000D03*
X39051400Y75270000D03*
X34151400Y75270000D03*
X34151400Y78470000D03*
X232731400Y77670000D03*
X232731400Y74470000D03*
X227831400Y74470000D03*
X227831400Y77670000D03*
X266321400Y76780000D03*
X266321400Y73580000D03*
X261421400Y73580000D03*
X261421400Y76780000D03*
X131951400Y77420000D03*
X131951400Y74220000D03*
X127051400Y74220000D03*
X127051400Y77420000D03*
D22*
X236071400Y20857500D03*
X236071400Y19282500D03*
D26*
X190231400Y20420000D03*
X190231400Y17220000D03*
X185331400Y17220000D03*
X185331400Y20420000D03*
D25*
X31356400Y76820000D03*
X29781400Y76820000D03*
D24*
X43443900Y62350000D03*
X45018900Y62350000D03*
D25*
X44968900Y55820000D03*
X43393900Y55820000D03*
X33998900Y60410000D03*
X32423900Y60410000D03*
D22*
X22261400Y56537500D03*
X22261400Y54962500D03*
X20229400Y56537500D03*
X20229400Y54962500D03*
D23*
X41513760Y52506780D03*
X41513760Y54081780D03*
X39331400Y52498500D03*
X39331400Y54073500D03*
D24*
X26053900Y46989400D03*
X27628900Y46989400D03*
X41143900Y50620000D03*
X42718900Y50620000D03*
X17543900Y63920000D03*
X19118900Y63920000D03*
D22*
X15748000Y59182100D03*
X15748000Y57607100D03*
D24*
X28447900Y43180000D03*
X30022900Y43180000D03*
D28*
X18760200Y79237800D03*
X18110200Y79237800D03*
X17460200Y79237800D03*
X17460200Y81137800D03*
X18110200Y81137800D03*
X18760200Y81137800D03*
D29*
X23451400Y74630000D03*
X23451400Y75280000D03*
X23451400Y75930000D03*
X25351400Y75930000D03*
X25351400Y74630000D03*
M02*
