G04 #@! TF.GenerationSoftware,KiCad,Pcbnew,(6.0.2)*
G04 #@! TF.CreationDate,2023-11-18T15:25:12-05:00*
G04 #@! TF.ProjectId,60_Pcb,36305f50-6362-42e6-9b69-6361645f7063,rev?*
G04 #@! TF.SameCoordinates,PX4b4f718PY8c7ecc0*
G04 #@! TF.FileFunction,Soldermask,Bot*
G04 #@! TF.FilePolarity,Negative*
%FSLAX46Y46*%
G04 Gerber Fmt 4.6, Leading zero omitted, Abs format (unit mm)*
G04 Created by KiCad (PCBNEW (6.0.2)) date 2023-11-18 15:25:12*
%MOMM*%
%LPD*%
G01*
G04 APERTURE LIST*
G04 Aperture macros list*
%AMRoundRect*
0 Rectangle with rounded corners*
0 $1 Rounding radius*
0 $2 $3 $4 $5 $6 $7 $8 $9 X,Y pos of 4 corners*
0 Add a 4 corners polygon primitive as box body*
4,1,4,$2,$3,$4,$5,$6,$7,$8,$9,$2,$3,0*
0 Add four circle primitives for the rounded corners*
1,1,$1+$1,$2,$3*
1,1,$1+$1,$4,$5*
1,1,$1+$1,$6,$7*
1,1,$1+$1,$8,$9*
0 Add four rect primitives between the rounded corners*
20,1,$1+$1,$2,$3,$4,$5,0*
20,1,$1+$1,$4,$5,$6,$7,0*
20,1,$1+$1,$6,$7,$8,$9,0*
20,1,$1+$1,$8,$9,$2,$3,0*%
G04 Aperture macros list end*
%ADD10C,2.501900*%
%ADD11C,1.400000*%
%ADD12C,7.400240*%
%ADD13C,7.401300*%
%ADD14C,3.448000*%
%ADD15C,2.150000*%
%ADD16C,4.387800*%
%ADD17C,2.650000*%
%ADD18C,2.305000*%
%ADD19RoundRect,0.200000X-0.952500X-0.952500X0.952500X-0.952500X0.952500X0.952500X-0.952500X0.952500X0*%
%ADD20RoundRect,0.200000X-0.850000X-0.850000X0.850000X-0.850000X0.850000X0.850000X-0.850000X0.850000X0*%
%ADD21O,2.100000X2.100000*%
%ADD22RoundRect,0.200000X0.450000X-0.250000X0.450000X0.250000X-0.450000X0.250000X-0.450000X-0.250000X0*%
%ADD23RoundRect,0.200000X-0.450000X0.250000X-0.450000X-0.250000X0.450000X-0.250000X0.450000X0.250000X0*%
%ADD24RoundRect,0.200000X0.250000X0.450000X-0.250000X0.450000X-0.250000X-0.450000X0.250000X-0.450000X0*%
%ADD25RoundRect,0.200000X-0.500000X0.850000X-0.500000X-0.850000X0.500000X-0.850000X0.500000X0.850000X0*%
%ADD26RoundRect,0.200000X0.450000X0.600000X-0.450000X0.600000X-0.450000X-0.600000X0.450000X-0.600000X0*%
%ADD27RoundRect,0.200000X0.600000X-0.450000X0.600000X0.450000X-0.600000X0.450000X-0.600000X-0.450000X0*%
%ADD28RoundRect,0.200000X0.650000X-0.350000X0.650000X0.350000X-0.650000X0.350000X-0.650000X-0.350000X0*%
%ADD29RoundRect,0.200000X-0.250000X-0.450000X0.250000X-0.450000X0.250000X0.450000X-0.250000X0.450000X0*%
%ADD30RoundRect,0.070000X-0.300000X0.650000X-0.300000X-0.650000X0.300000X-0.650000X0.300000X0.650000X0*%
%ADD31C,1.050000*%
%ADD32RoundRect,0.200000X-0.300000X-0.725000X0.300000X-0.725000X0.300000X0.725000X-0.300000X0.725000X0*%
%ADD33RoundRect,0.200000X-0.150000X-0.725000X0.150000X-0.725000X0.150000X0.725000X-0.150000X0.725000X0*%
%ADD34O,1.400000X2.000000*%
%ADD35O,1.400000X2.500000*%
%ADD36RoundRect,0.200000X-0.325000X0.530000X-0.325000X-0.530000X0.325000X-0.530000X0.325000X0.530000X0*%
%ADD37RoundRect,0.200000X0.650000X0.125000X-0.650000X0.125000X-0.650000X-0.125000X0.650000X-0.125000X0*%
%ADD38RoundRect,0.200000X0.125000X-0.650000X0.125000X0.650000X-0.125000X0.650000X-0.125000X-0.650000X0*%
%ADD39RoundRect,0.418750X-0.256250X0.218750X-0.256250X-0.218750X0.256250X-0.218750X0.256250X0.218750X0*%
%ADD40RoundRect,0.418750X0.256250X-0.218750X0.256250X0.218750X-0.256250X0.218750X-0.256250X-0.218750X0*%
%ADD41RoundRect,0.418750X-0.218750X-0.256250X0.218750X-0.256250X0.218750X0.256250X-0.218750X0.256250X0*%
%ADD42RoundRect,0.418750X0.218750X0.256250X-0.218750X0.256250X-0.218750X-0.256250X0.218750X-0.256250X0*%
%ADD43RoundRect,0.200000X0.750000X0.500000X-0.750000X0.500000X-0.750000X-0.500000X0.750000X-0.500000X0*%
%ADD44RoundRect,0.200000X0.800000X0.650000X-0.800000X0.650000X-0.800000X-0.650000X0.800000X-0.650000X0*%
%ADD45RoundRect,0.200000X0.210000X0.300000X-0.210000X0.300000X-0.210000X-0.300000X0.210000X-0.300000X0*%
%ADD46RoundRect,0.200000X-0.325000X-0.200000X0.325000X-0.200000X0.325000X0.200000X-0.325000X0.200000X0*%
G04 APERTURE END LIST*
D10*
X-12350Y35456550D02*
X3787650Y35456550D01*
X-12350Y40758450D02*
X3787650Y40758450D01*
X281187650Y35456550D02*
X285037650Y35456550D01*
X281187650Y40758450D02*
X284987650Y40758450D01*
X281187650Y40758450D02*
G75*
G03*
X278536700Y38107500I-1J-2650949D01*
G01*
X6438600Y38107500D02*
G75*
G03*
X3787650Y40758450I-2650949J1D01*
G01*
X278536700Y38107500D02*
G75*
G03*
X281187650Y35456550I2650949J-1D01*
G01*
X3787650Y35456550D02*
G75*
G03*
X6438600Y38107500I1J2650949D01*
G01*
X-12350Y35456550D02*
X3787650Y35456550D01*
X-12350Y40758450D02*
X3787650Y40758450D01*
X281187650Y35456550D02*
X285037650Y35456550D01*
X281187650Y40758450D02*
X284987650Y40758450D01*
X281187650Y40758450D02*
G75*
G03*
X278536700Y38107500I-1J-2650949D01*
G01*
X6438600Y38107500D02*
G75*
G03*
X3787650Y40758450I-2650949J1D01*
G01*
X278536700Y38107500D02*
G75*
G03*
X281187650Y35456550I2650949J-1D01*
G01*
X3787650Y35456550D02*
G75*
G03*
X6438600Y38107500I1J2650949D01*
G01*
D11*
X129387650Y49907500D03*
X22887650Y66707500D03*
X191687650Y7107500D03*
X191687650Y11707500D03*
X1745615Y35507500D03*
X128187650Y49907500D03*
X278587650Y38107500D03*
X189287650Y7107500D03*
X3787650Y35507500D03*
X25187650Y69007500D03*
X27487650Y66707500D03*
D12*
X190487650Y9407500D03*
D11*
X128187650Y45307500D03*
X258837650Y64407500D03*
X26813996Y65081154D03*
X26813996Y68333846D03*
X25187650Y64407500D03*
X190487650Y11707500D03*
D13*
X25187650Y66707500D03*
D11*
X5626128Y39945978D03*
X126987650Y49907500D03*
X260037650Y69007500D03*
X260037650Y64407500D03*
X129387650Y45307500D03*
X189287650Y11707500D03*
X283229685Y40707500D03*
X261237650Y64407500D03*
X279349172Y36269022D03*
X5626128Y36269022D03*
X258837650Y69007500D03*
X281187650Y40707500D03*
D12*
X128187650Y47607500D03*
D11*
X279349172Y39945978D03*
X6387650Y38107500D03*
X126987650Y45307500D03*
X23561304Y65081154D03*
X1745615Y40707500D03*
X283229685Y35507500D03*
X23561304Y68333846D03*
X261237650Y69024500D03*
X3787650Y40707500D03*
X281187650Y35507500D03*
D12*
X260037650Y66707500D03*
D11*
X190487650Y7107500D03*
D14*
X109181900Y2222500D03*
D15*
X102323900Y9207500D03*
D16*
X85305900Y17462500D03*
X97243900Y9207500D03*
D15*
X92163900Y9207500D03*
D16*
X109181900Y17462500D03*
D14*
X85305900Y2222500D03*
D17*
X93433900Y11747500D03*
X99783900Y14287500D03*
D18*
X98513900Y4127500D03*
D19*
X95973900Y4127500D03*
D15*
X21361400Y47307500D03*
X11201400Y47307500D03*
D16*
X16281400Y47307500D03*
D17*
X12471400Y49847500D03*
X18821400Y52387500D03*
D18*
X15011400Y42227500D03*
D19*
X17551400Y42227500D03*
D16*
X11518900Y47307500D03*
D15*
X16598900Y47307500D03*
X6438900Y47307500D03*
D17*
X7708900Y49847500D03*
X14058900Y52387500D03*
D18*
X12788900Y42227500D03*
D19*
X10248900Y42227500D03*
D16*
X151980900Y17462500D03*
D14*
X175856900Y2222500D03*
D16*
X175856900Y17462500D03*
D15*
X158838900Y9207500D03*
D16*
X163918900Y9207500D03*
D14*
X151980900Y2222500D03*
D15*
X168998900Y9207500D03*
D17*
X160108900Y11747500D03*
X166458900Y14287500D03*
D18*
X165188900Y4127500D03*
D19*
X162648900Y4127500D03*
D15*
X254723900Y9207500D03*
X244563900Y9207500D03*
D16*
X249643900Y9207500D03*
D17*
X245833900Y11747500D03*
X252183900Y14287500D03*
D18*
X250913900Y4127500D03*
D19*
X248373900Y4127500D03*
D15*
X278536400Y9207500D03*
X268376400Y9207500D03*
D16*
X273456400Y9207500D03*
D17*
X269646400Y11747500D03*
X275996400Y14287500D03*
D18*
X274726400Y4127500D03*
D19*
X272186400Y4127500D03*
D14*
X180581300Y2222500D03*
X80581500Y2222500D03*
D16*
X130581400Y9207500D03*
X180581300Y17462500D03*
X80581500Y17462500D03*
D15*
X135661400Y9207500D03*
X125501400Y9207500D03*
D17*
X126771400Y11747500D03*
X133121400Y14287500D03*
D18*
X129311400Y4127500D03*
D19*
X131851400Y4127500D03*
D15*
X220751400Y9207500D03*
D16*
X225831400Y9207500D03*
D15*
X230911400Y9207500D03*
D17*
X222021400Y11747500D03*
X228371400Y14287500D03*
D18*
X224561400Y4127500D03*
D19*
X227101400Y4127500D03*
D16*
X104419400Y17462500D03*
D15*
X87401400Y9207500D03*
D14*
X80543400Y2222500D03*
X104419400Y2222500D03*
D15*
X97561400Y9207500D03*
D16*
X92481400Y9207500D03*
X80543400Y17462500D03*
D17*
X88671400Y11747500D03*
X95021400Y14287500D03*
D18*
X91211400Y4127500D03*
D19*
X93751400Y4127500D03*
D15*
X130898900Y9207500D03*
D16*
X125818900Y9207500D03*
D15*
X120738900Y9207500D03*
D17*
X122008900Y11747500D03*
X128358900Y14287500D03*
D18*
X127088900Y4127500D03*
D19*
X124548900Y4127500D03*
D15*
X196938900Y9207500D03*
D16*
X202018900Y9207500D03*
D15*
X207098900Y9207500D03*
D17*
X198208900Y11747500D03*
X204558900Y14287500D03*
D18*
X203288900Y4127500D03*
D19*
X200748900Y4127500D03*
D15*
X204717650Y9207500D03*
D16*
X199637650Y9207500D03*
D15*
X194557650Y9207500D03*
D17*
X195827650Y11747500D03*
X202177650Y14287500D03*
D18*
X198367650Y4127500D03*
D19*
X200907650Y4127500D03*
D16*
X218687650Y9207500D03*
D15*
X213607650Y9207500D03*
X223767650Y9207500D03*
D17*
X214877650Y11747500D03*
X221227650Y14287500D03*
D18*
X217417650Y4127500D03*
D19*
X219957650Y4127500D03*
D15*
X251707650Y9207500D03*
D16*
X256787650Y9207500D03*
D15*
X261867650Y9207500D03*
D17*
X252977650Y11747500D03*
X259327650Y14287500D03*
D18*
X255517650Y4127500D03*
D19*
X258057650Y4127500D03*
D15*
X280917650Y9207500D03*
D16*
X275837650Y9207500D03*
D15*
X270757650Y9207500D03*
D17*
X272027650Y11747500D03*
X278377650Y14287500D03*
D18*
X274567650Y4127500D03*
D19*
X277107650Y4127500D03*
D14*
X156743400Y2222500D03*
X180619400Y2222500D03*
D16*
X180619400Y17462500D03*
D15*
X163601400Y9207500D03*
X173761400Y9207500D03*
D16*
X156743400Y17462500D03*
X168681400Y9207500D03*
D17*
X164871400Y11747500D03*
X171221400Y14287500D03*
D18*
X167411400Y4127500D03*
D19*
X169951400Y4127500D03*
D16*
X37712650Y9207500D03*
D15*
X32632650Y9207500D03*
X42792650Y9207500D03*
D17*
X33902650Y11747500D03*
X40252650Y14287500D03*
D18*
X36442650Y4127500D03*
D19*
X38982650Y4127500D03*
D15*
X66605150Y9207500D03*
X56445150Y9207500D03*
D16*
X61525150Y9207500D03*
D17*
X57715150Y11747500D03*
X64065150Y14287500D03*
D18*
X60255150Y4127500D03*
D19*
X62795150Y4127500D03*
D15*
X147567650Y9207500D03*
D16*
X199637650Y17462500D03*
D14*
X199637650Y2222500D03*
D16*
X85337650Y17462500D03*
D14*
X85337650Y2222500D03*
D16*
X142487650Y9207500D03*
D15*
X137407650Y9207500D03*
D17*
X138677650Y11747500D03*
X145027650Y14287500D03*
D18*
X141217650Y4127500D03*
D19*
X143757650Y4127500D03*
D16*
X247262650Y9207500D03*
D15*
X252342650Y9207500D03*
X242182650Y9207500D03*
D17*
X243452650Y11747500D03*
X249802650Y14287500D03*
D18*
X245992650Y4127500D03*
D19*
X248532650Y4127500D03*
D16*
X271075150Y9207500D03*
D15*
X265995150Y9207500D03*
X276155150Y9207500D03*
D17*
X267265150Y11747500D03*
X273615150Y14287500D03*
D18*
X269805150Y4127500D03*
D19*
X272345150Y4127500D03*
D14*
X90068400Y2222500D03*
D15*
X107086400Y9207500D03*
D16*
X102006400Y9207500D03*
X90068400Y17462500D03*
D15*
X96926400Y9207500D03*
D14*
X113944400Y2222500D03*
D16*
X113944400Y17462500D03*
D17*
X98196400Y11747500D03*
X104546400Y14287500D03*
D18*
X100736400Y4127500D03*
D19*
X103276400Y4127500D03*
D16*
X142487650Y9207500D03*
D15*
X147567650Y9207500D03*
X137407650Y9207500D03*
D17*
X138677650Y11747500D03*
X145027650Y14287500D03*
D18*
X141217650Y4127500D03*
D19*
X143757650Y4127500D03*
D15*
X188048900Y9207500D03*
D16*
X194906900Y17462500D03*
D14*
X194906900Y2222500D03*
D16*
X171030900Y17462500D03*
X182968900Y9207500D03*
D15*
X177888900Y9207500D03*
D14*
X171030900Y2222500D03*
D17*
X179158900Y11747500D03*
X185508900Y14287500D03*
D18*
X181698900Y4127500D03*
D19*
X184238900Y4127500D03*
D16*
X35331400Y9207500D03*
D15*
X30251400Y9207500D03*
X40411400Y9207500D03*
D17*
X31521400Y11747500D03*
X37871400Y14287500D03*
D18*
X36601400Y4127500D03*
D19*
X34061400Y4127500D03*
D15*
X64223900Y9207500D03*
D16*
X59143900Y9207500D03*
D15*
X54063900Y9207500D03*
D17*
X55333900Y11747500D03*
X61683900Y14287500D03*
D18*
X60413900Y4127500D03*
D19*
X57873900Y4127500D03*
D16*
X135343900Y9207500D03*
D15*
X130263900Y9207500D03*
X140423900Y9207500D03*
D17*
X131533900Y11747500D03*
X137883900Y14287500D03*
D18*
X136613900Y4127500D03*
D19*
X134073900Y4127500D03*
D15*
X218370150Y9207500D03*
X228530150Y9207500D03*
D16*
X223450150Y9207500D03*
D17*
X219640150Y11747500D03*
X225990150Y14287500D03*
D18*
X224720150Y4127500D03*
D19*
X222180150Y4127500D03*
D15*
X273456400Y61912500D03*
D14*
X280441400Y68770500D03*
D15*
X273456400Y51752500D03*
D16*
X265201400Y68770500D03*
X273456400Y56832500D03*
X265201400Y44894500D03*
D14*
X280441400Y44894500D03*
D17*
X275996400Y60642500D03*
X278536400Y54292500D03*
D18*
X268376400Y58102500D03*
D19*
X268376400Y55562500D03*
D15*
X32632650Y66357500D03*
X42792650Y66357500D03*
D16*
X37712650Y66357500D03*
D17*
X33902650Y68897500D03*
X40252650Y71437500D03*
D18*
X38982650Y61277500D03*
D19*
X36442650Y61277500D03*
D15*
X194557650Y85407500D03*
D16*
X199637650Y85407500D03*
D15*
X204717650Y85407500D03*
D17*
X195827650Y87947500D03*
X202177650Y90487500D03*
D18*
X200907650Y80327500D03*
D19*
X198367650Y80327500D03*
D16*
X28187650Y85407500D03*
D15*
X33267650Y85407500D03*
X23107650Y85407500D03*
D17*
X24377650Y87947500D03*
X30727650Y90487500D03*
D18*
X29457650Y80327500D03*
D19*
X26917650Y80327500D03*
D16*
X47237650Y85407500D03*
D15*
X42157650Y85407500D03*
X52317650Y85407500D03*
D17*
X43427650Y87947500D03*
X49777650Y90487500D03*
D18*
X48507650Y80327500D03*
D19*
X45967650Y80327500D03*
D16*
X66287650Y85407500D03*
D15*
X71367650Y85407500D03*
X61207650Y85407500D03*
D17*
X62477650Y87947500D03*
X68827650Y90487500D03*
D18*
X67557650Y80327500D03*
D19*
X65017650Y80327500D03*
D15*
X90417650Y85407500D03*
X80257650Y85407500D03*
D16*
X85337650Y85407500D03*
D17*
X81527650Y87947500D03*
X87877650Y90487500D03*
D18*
X86607650Y80327500D03*
D19*
X84067650Y80327500D03*
D15*
X99307650Y85407500D03*
X109467650Y85407500D03*
D16*
X104387650Y85407500D03*
D17*
X100577650Y87947500D03*
X106927650Y90487500D03*
D18*
X105657650Y80327500D03*
D19*
X103117650Y80327500D03*
D16*
X123437650Y85407500D03*
D15*
X118357650Y85407500D03*
X128517650Y85407500D03*
D17*
X119627650Y87947500D03*
X125977650Y90487500D03*
D18*
X124707650Y80327500D03*
D19*
X122167650Y80327500D03*
D15*
X137407650Y85407500D03*
X147567650Y85407500D03*
D16*
X142487650Y85407500D03*
D17*
X138677650Y87947500D03*
X145027650Y90487500D03*
D18*
X143757650Y80327500D03*
D19*
X141217650Y80327500D03*
D15*
X156457650Y85407500D03*
X166617650Y85407500D03*
D16*
X161537650Y85407500D03*
D17*
X157727650Y87947500D03*
X164077650Y90487500D03*
D18*
X162807650Y80327500D03*
D19*
X160267650Y80327500D03*
D16*
X180587650Y85407500D03*
D15*
X185667650Y85407500D03*
X175507650Y85407500D03*
D17*
X176777650Y87947500D03*
X183127650Y90487500D03*
D18*
X181857650Y80327500D03*
D19*
X179317650Y80327500D03*
D16*
X218687650Y85407500D03*
D15*
X223767650Y85407500D03*
X213607650Y85407500D03*
D17*
X214877650Y87947500D03*
X221227650Y90487500D03*
D18*
X219957650Y80327500D03*
D19*
X217417650Y80327500D03*
D16*
X237737650Y85407500D03*
D15*
X232657650Y85407500D03*
X242817650Y85407500D03*
D17*
X233927650Y87947500D03*
X240277650Y90487500D03*
D18*
X239007650Y80327500D03*
D19*
X236467650Y80327500D03*
D14*
X254374650Y92392500D03*
D15*
X261232650Y85407500D03*
D14*
X278250650Y92392500D03*
D16*
X266312650Y85407500D03*
X278250650Y77152500D03*
X254374650Y77152500D03*
D15*
X271392650Y85407500D03*
D17*
X262502650Y87947500D03*
X268852650Y90487500D03*
D18*
X267582650Y80327500D03*
D19*
X265042650Y80327500D03*
D15*
X270757650Y85407500D03*
D16*
X275837650Y85407500D03*
D15*
X280917650Y85407500D03*
D17*
X272027650Y87947500D03*
X278377650Y90487500D03*
D18*
X277107650Y80327500D03*
D19*
X274567650Y80327500D03*
D15*
X251707650Y85407500D03*
D16*
X256787650Y85407500D03*
D15*
X261867650Y85407500D03*
D17*
X252977650Y87947500D03*
X259327650Y90487500D03*
D18*
X258057650Y80327500D03*
D19*
X255517650Y80327500D03*
D15*
X14217650Y85407500D03*
X4057650Y85407500D03*
D16*
X9137650Y85407500D03*
D17*
X5327650Y87947500D03*
X11677650Y90487500D03*
D18*
X10407650Y80327500D03*
D19*
X7867650Y80327500D03*
D16*
X232975150Y47307500D03*
D15*
X238055150Y47307500D03*
X227895150Y47307500D03*
D17*
X229165150Y49847500D03*
X235515150Y52387500D03*
D18*
X234245150Y42227500D03*
D19*
X231705150Y42227500D03*
D16*
X213925150Y47307500D03*
D15*
X219005150Y47307500D03*
X208845150Y47307500D03*
D17*
X210115150Y49847500D03*
X216465150Y52387500D03*
D18*
X215195150Y42227500D03*
D19*
X212655150Y42227500D03*
D15*
X47555150Y47307500D03*
X37395150Y47307500D03*
D16*
X42475150Y47307500D03*
D17*
X38665150Y49847500D03*
X45015150Y52387500D03*
D18*
X43745150Y42227500D03*
D19*
X41205150Y42227500D03*
D15*
X75495150Y47307500D03*
D16*
X80575150Y47307500D03*
D15*
X85655150Y47307500D03*
D17*
X76765150Y49847500D03*
X83115150Y52387500D03*
D18*
X81845150Y42227500D03*
D19*
X79305150Y42227500D03*
D14*
X251993400Y54292500D03*
X275869400Y54292500D03*
D16*
X251993400Y39052500D03*
X263931400Y47307500D03*
X275869400Y39052500D03*
D15*
X258851400Y47307500D03*
X269011400Y47307500D03*
D17*
X260121400Y49847500D03*
X266471400Y52387500D03*
D18*
X265201400Y42227500D03*
D19*
X262661400Y42227500D03*
D16*
X99625150Y47307500D03*
D15*
X94545150Y47307500D03*
X104705150Y47307500D03*
D17*
X95815150Y49847500D03*
X102165150Y52387500D03*
D18*
X100895150Y42227500D03*
D19*
X98355150Y42227500D03*
D16*
X118675150Y47307500D03*
D15*
X123755150Y47307500D03*
X113595150Y47307500D03*
D17*
X114865150Y49847500D03*
X121215150Y52387500D03*
D18*
X119945150Y42227500D03*
D19*
X117405150Y42227500D03*
D16*
X137725150Y47307500D03*
D15*
X132645150Y47307500D03*
X142805150Y47307500D03*
D17*
X133915150Y49847500D03*
X140265150Y52387500D03*
D18*
X138995150Y42227500D03*
D19*
X136455150Y42227500D03*
D16*
X252025150Y47307500D03*
D15*
X246945150Y47307500D03*
X257105150Y47307500D03*
D17*
X248215150Y49847500D03*
X254565150Y52387500D03*
D18*
X253295150Y42227500D03*
D19*
X250755150Y42227500D03*
D15*
X151695150Y47307500D03*
D16*
X156775150Y47307500D03*
D15*
X161855150Y47307500D03*
D17*
X152965150Y49847500D03*
X159315150Y52387500D03*
D18*
X158045150Y42227500D03*
D19*
X155505150Y42227500D03*
D16*
X175825150Y47307500D03*
D15*
X170745150Y47307500D03*
X180905150Y47307500D03*
D17*
X172015150Y49847500D03*
X178365150Y52387500D03*
D18*
X177095150Y42227500D03*
D19*
X174555150Y42227500D03*
D15*
X189795150Y47307500D03*
X199955150Y47307500D03*
D16*
X194875150Y47307500D03*
D17*
X191065150Y49847500D03*
X197415150Y52387500D03*
D18*
X196145150Y42227500D03*
D19*
X193605150Y42227500D03*
D15*
X56445150Y47307500D03*
D16*
X61525150Y47307500D03*
D15*
X66605150Y47307500D03*
D17*
X57715150Y49847500D03*
X64065150Y52387500D03*
D18*
X62795150Y42227500D03*
D19*
X60255150Y42227500D03*
D15*
X80892650Y66357500D03*
D16*
X75812650Y66357500D03*
D15*
X70732650Y66357500D03*
D17*
X72002650Y68897500D03*
X78352650Y71437500D03*
D18*
X77082650Y61277500D03*
D19*
X74542650Y61277500D03*
D15*
X176142650Y66357500D03*
X165982650Y66357500D03*
D16*
X171062650Y66357500D03*
D17*
X167252650Y68897500D03*
X173602650Y71437500D03*
D18*
X172332650Y61277500D03*
D19*
X169792650Y61277500D03*
D16*
X190112650Y66357500D03*
D15*
X185032650Y66357500D03*
X195192650Y66357500D03*
D17*
X186302650Y68897500D03*
X192652650Y71437500D03*
D18*
X191382650Y61277500D03*
D19*
X188842650Y61277500D03*
D16*
X209162650Y66357500D03*
D15*
X204082650Y66357500D03*
X214242650Y66357500D03*
D17*
X205352650Y68897500D03*
X211702650Y71437500D03*
D18*
X210432650Y61277500D03*
D19*
X207892650Y61277500D03*
D16*
X94862650Y66357500D03*
D15*
X89782650Y66357500D03*
X99942650Y66357500D03*
D17*
X91052650Y68897500D03*
X97402650Y71437500D03*
D18*
X96132650Y61277500D03*
D19*
X93592650Y61277500D03*
D15*
X118992650Y66357500D03*
X108832650Y66357500D03*
D16*
X113912650Y66357500D03*
D17*
X110102650Y68897500D03*
X116452650Y71437500D03*
D18*
X115182650Y61277500D03*
D19*
X112642650Y61277500D03*
D15*
X18980150Y66357500D03*
X8820150Y66357500D03*
D16*
X13900150Y66357500D03*
D17*
X10090150Y68897500D03*
X16440150Y71437500D03*
D18*
X15170150Y61277500D03*
D19*
X12630150Y61277500D03*
D15*
X157092650Y66357500D03*
X146932650Y66357500D03*
D16*
X152012650Y66357500D03*
D17*
X148202650Y68897500D03*
X154552650Y71437500D03*
D18*
X153282650Y61277500D03*
D19*
X150742650Y61277500D03*
D15*
X61842650Y66357500D03*
D16*
X56762650Y66357500D03*
D15*
X51682650Y66357500D03*
D17*
X52952650Y68897500D03*
X59302650Y71437500D03*
D18*
X58032650Y61277500D03*
D19*
X55492650Y61277500D03*
D15*
X127882650Y66357500D03*
X138042650Y66357500D03*
D16*
X132962650Y66357500D03*
D17*
X129152650Y68897500D03*
X135502650Y71437500D03*
D18*
X134232650Y61277500D03*
D19*
X131692650Y61277500D03*
D15*
X223132650Y66357500D03*
D16*
X228212650Y66357500D03*
D15*
X233292650Y66357500D03*
D17*
X224402650Y68897500D03*
X230752650Y71437500D03*
D18*
X229482650Y61277500D03*
D19*
X226942650Y61277500D03*
D15*
X276155150Y66357500D03*
X265995150Y66357500D03*
D16*
X271075150Y66357500D03*
D17*
X267265150Y68897500D03*
X273615150Y71437500D03*
D18*
X272345150Y61277500D03*
D19*
X269805150Y61277500D03*
D15*
X242182650Y66357500D03*
X252342650Y66357500D03*
D16*
X247262650Y66357500D03*
D17*
X243452650Y68897500D03*
X249802650Y71437500D03*
D18*
X248532650Y61277500D03*
D19*
X245992650Y61277500D03*
D15*
X180270150Y28257500D03*
D16*
X185350150Y28257500D03*
D15*
X190430150Y28257500D03*
D17*
X181540150Y30797500D03*
X187890150Y33337500D03*
D18*
X186620150Y23177500D03*
D19*
X184080150Y23177500D03*
D16*
X204400150Y28257500D03*
D15*
X209480150Y28257500D03*
X199320150Y28257500D03*
D17*
X200590150Y30797500D03*
X206940150Y33337500D03*
D18*
X205670150Y23177500D03*
D19*
X203130150Y23177500D03*
D15*
X228530150Y28257500D03*
D16*
X223450150Y28257500D03*
D15*
X218370150Y28257500D03*
D17*
X219640150Y30797500D03*
X225990150Y33337500D03*
D18*
X224720150Y23177500D03*
D19*
X222180150Y23177500D03*
D15*
X133280150Y28257500D03*
D16*
X128200150Y28257500D03*
D15*
X123120150Y28257500D03*
D17*
X124390150Y30797500D03*
X130740150Y33337500D03*
D18*
X129470150Y23177500D03*
D19*
X126930150Y23177500D03*
D16*
X90100150Y28257500D03*
D15*
X95180150Y28257500D03*
X85020150Y28257500D03*
D17*
X86290150Y30797500D03*
X92640150Y33337500D03*
D18*
X91370150Y23177500D03*
D19*
X88830150Y23177500D03*
D15*
X280917650Y28257500D03*
D16*
X275837650Y28257500D03*
D15*
X270757650Y28257500D03*
D17*
X272027650Y30797500D03*
X278377650Y33337500D03*
D18*
X277107650Y23177500D03*
D19*
X274567650Y23177500D03*
D16*
X32950150Y28257500D03*
D15*
X38030150Y28257500D03*
X27870150Y28257500D03*
D17*
X29140150Y30797500D03*
X35490150Y33337500D03*
D18*
X34220150Y23177500D03*
D19*
X31680150Y23177500D03*
D14*
X9105900Y35242500D03*
D15*
X26123900Y28257500D03*
D16*
X32981900Y20002500D03*
X9105900Y20002500D03*
X21043900Y28257500D03*
D14*
X32981900Y35242500D03*
D15*
X15963900Y28257500D03*
D17*
X17233900Y30797500D03*
X23583900Y33337500D03*
D18*
X22313900Y23177500D03*
D19*
X19773900Y23177500D03*
D15*
X16598900Y28257500D03*
D16*
X11518900Y28257500D03*
D15*
X6438900Y28257500D03*
D17*
X7708900Y30797500D03*
X14058900Y33337500D03*
D18*
X12788900Y23177500D03*
D19*
X10248900Y23177500D03*
D15*
X171380150Y28257500D03*
D16*
X166300150Y28257500D03*
D15*
X161220150Y28257500D03*
D17*
X162490150Y30797500D03*
X168840150Y33337500D03*
D18*
X167570150Y23177500D03*
D19*
X165030150Y23177500D03*
D15*
X152330150Y28257500D03*
X142170150Y28257500D03*
D16*
X147250150Y28257500D03*
D17*
X143440150Y30797500D03*
X149790150Y33337500D03*
D18*
X148520150Y23177500D03*
D19*
X145980150Y23177500D03*
D14*
X271106900Y35242500D03*
D15*
X264248900Y28257500D03*
D16*
X271106900Y20002500D03*
X247230900Y20002500D03*
D15*
X254088900Y28257500D03*
D16*
X259168900Y28257500D03*
D14*
X247230900Y35242500D03*
D17*
X255358900Y30797500D03*
X261708900Y33337500D03*
D18*
X260438900Y23177500D03*
D19*
X257898900Y23177500D03*
D16*
X249643900Y28257500D03*
D15*
X244563900Y28257500D03*
X254723900Y28257500D03*
D17*
X245833900Y30797500D03*
X252183900Y33337500D03*
D18*
X250913900Y23177500D03*
D19*
X248373900Y23177500D03*
D15*
X114230150Y28257500D03*
X104070150Y28257500D03*
D16*
X109150150Y28257500D03*
D17*
X105340150Y30797500D03*
X111690150Y33337500D03*
D18*
X110420150Y23177500D03*
D19*
X107880150Y23177500D03*
D15*
X76130150Y28257500D03*
D16*
X71050150Y28257500D03*
D15*
X65970150Y28257500D03*
D17*
X67240150Y30797500D03*
X73590150Y33337500D03*
D18*
X72320150Y23177500D03*
D19*
X69780150Y23177500D03*
D15*
X46920150Y28257500D03*
D16*
X52000150Y28257500D03*
D15*
X57080150Y28257500D03*
D17*
X48190150Y30797500D03*
X54540150Y33337500D03*
D18*
X53270150Y23177500D03*
D19*
X50730150Y23177500D03*
D15*
X232657650Y9207500D03*
D16*
X237737650Y9207500D03*
D15*
X242817650Y9207500D03*
D17*
X233927650Y11747500D03*
X240277650Y14287500D03*
D18*
X239007650Y4127500D03*
D19*
X236467650Y4127500D03*
D15*
X6438900Y9207500D03*
X16598900Y9207500D03*
D16*
X11518900Y9207500D03*
D17*
X7708900Y11747500D03*
X14058900Y14287500D03*
D18*
X12788900Y4127500D03*
D19*
X10248900Y4127500D03*
D15*
X8820150Y9207500D03*
D16*
X13900150Y9207500D03*
D15*
X18980150Y9207500D03*
D17*
X10090150Y11747500D03*
X16440150Y14287500D03*
D18*
X12630150Y4127500D03*
D19*
X15170150Y4127500D03*
D20*
X3631400Y63520000D03*
D21*
X3631400Y60980000D03*
X3631400Y58440000D03*
X3631400Y55900000D03*
X3631400Y53360000D03*
D22*
X90100150Y59654375D03*
X90100150Y61154375D03*
X109150150Y59654375D03*
X109150150Y61154375D03*
X128200150Y59654375D03*
X128200150Y61154375D03*
D23*
X12065000Y88176800D03*
X12065000Y86676800D03*
D24*
X26781400Y91070000D03*
X25281400Y91070000D03*
D25*
X26192400Y33426000D03*
X26192400Y39726000D03*
X29992400Y39726000D03*
X29992400Y33426000D03*
D26*
X7517400Y91440000D03*
X4217400Y91440000D03*
D27*
X36522025Y84948125D03*
X36522025Y88248125D03*
X55572025Y84948125D03*
X55572025Y88248125D03*
D26*
X76431400Y88930000D03*
X73131400Y88930000D03*
D27*
X93672025Y84948125D03*
X93672025Y88248125D03*
X112722025Y84948125D03*
X112722025Y88248125D03*
X131772025Y84948125D03*
X131772025Y88248125D03*
X150822025Y84948125D03*
X150822025Y88248125D03*
X169872025Y84948125D03*
X169872025Y88248125D03*
D26*
X190421400Y88850000D03*
X187121400Y88850000D03*
D27*
X207972025Y84948125D03*
X207972025Y88248125D03*
X227022025Y84948125D03*
X227022025Y88248125D03*
X246072025Y84948125D03*
X246072025Y88248125D03*
X265709400Y88520000D03*
X265709400Y91820000D03*
X281790775Y88520000D03*
X281790775Y91820000D03*
X5565775Y69470000D03*
X5565775Y72770000D03*
X45931400Y67770000D03*
X45931400Y71070000D03*
X65097025Y65898125D03*
X65097025Y69198125D03*
X84147025Y65898125D03*
X84147025Y69198125D03*
X103197025Y65898125D03*
X103197025Y69198125D03*
X122247025Y65898125D03*
X122247025Y69198125D03*
X141297025Y65898125D03*
X141297025Y69198125D03*
X160347025Y65898125D03*
X160347025Y69198125D03*
X179397025Y65898125D03*
X179397025Y69198125D03*
X198447025Y65898125D03*
X198447025Y69198125D03*
X217497025Y65898125D03*
X217497025Y69198125D03*
X236547025Y65898125D03*
X236547025Y69198125D03*
X254406400Y68279375D03*
X254406400Y71579375D03*
X277028275Y69470000D03*
X277028275Y72770000D03*
X21043900Y40895000D03*
X21043900Y44195000D03*
X50809525Y46848125D03*
X50809525Y50148125D03*
X69859525Y46848125D03*
X69859525Y50148125D03*
X88909525Y46848125D03*
X88909525Y50148125D03*
X107959525Y46848125D03*
X107959525Y50148125D03*
X110832900Y46850300D03*
X110832900Y50150300D03*
X146059525Y46848125D03*
X146059525Y50148125D03*
X165109525Y46848125D03*
X165109525Y50148125D03*
X184159525Y46848125D03*
X184159525Y50148125D03*
X203209525Y46848125D03*
X203209525Y50148125D03*
X222259525Y46848125D03*
X222259525Y50148125D03*
X241309525Y46848125D03*
X241309525Y50148125D03*
X259168900Y52801250D03*
X259168900Y56101250D03*
X272265775Y45657500D03*
X272265775Y48957500D03*
X3184525Y27798125D03*
X3184525Y31098125D03*
X41284525Y27798125D03*
X41284525Y31098125D03*
X60334525Y27798125D03*
X60334525Y31098125D03*
X79384525Y27798125D03*
X79384525Y31098125D03*
X98434525Y27798125D03*
X98434525Y31098125D03*
X117484525Y27798125D03*
X117484525Y31098125D03*
X136534525Y27798125D03*
X136534525Y31098125D03*
X155584525Y27798125D03*
X155584525Y31098125D03*
X174634525Y27798125D03*
X174634525Y31098125D03*
X193684525Y27798125D03*
X193684525Y31098125D03*
X212734525Y27798125D03*
X212734525Y31098125D03*
X231784525Y27798125D03*
X231784525Y31098125D03*
X267503275Y27798125D03*
X267503275Y31098125D03*
X281790775Y21845000D03*
X281790775Y25145000D03*
X22733000Y12167600D03*
X22733000Y15467600D03*
X46047025Y8748125D03*
X46047025Y12048125D03*
X69859525Y8748125D03*
X69859525Y12048125D03*
X110340775Y8748125D03*
X110340775Y12048125D03*
X150822025Y7557500D03*
X150822025Y10857500D03*
X155584525Y7557500D03*
X155584525Y10857500D03*
X207972025Y13510625D03*
X207972025Y16810625D03*
X211543900Y13510625D03*
X211543900Y16810625D03*
X243690775Y14701250D03*
X243690775Y18001250D03*
X263781400Y11420000D03*
X263781400Y14720000D03*
X281790775Y12320000D03*
X281790775Y15620000D03*
D28*
X14231400Y81320000D03*
X14231400Y83220000D03*
D22*
X4375150Y78704375D03*
X4375150Y80204375D03*
X23425150Y78704375D03*
X23425150Y80204375D03*
X42475150Y78704375D03*
X42475150Y80204375D03*
X61271400Y79770000D03*
X61271400Y81270000D03*
X80575150Y78704375D03*
X80575150Y80204375D03*
X99625150Y78704375D03*
X99625150Y80204375D03*
X118675150Y78704375D03*
X118675150Y80204375D03*
X137725150Y78704375D03*
X137725150Y80204375D03*
X156775150Y78704375D03*
X156775150Y80204375D03*
X175825150Y78704375D03*
X175825150Y80204375D03*
X194161400Y79760000D03*
X194161400Y81260000D03*
X213925150Y78704375D03*
X213925150Y80204375D03*
X232851400Y79840000D03*
X232851400Y81340000D03*
X250834525Y78704375D03*
X250834525Y80204375D03*
X271075150Y78704375D03*
X271075150Y80204375D03*
X9137650Y59654375D03*
X9137650Y61154375D03*
X33031400Y62770000D03*
X33031400Y64270000D03*
X62151400Y59670000D03*
X62151400Y61170000D03*
X71050150Y59654375D03*
X71050150Y61154375D03*
X147250150Y59654375D03*
X147250150Y61154375D03*
X166300150Y59654375D03*
X166300150Y61154375D03*
X185350150Y59654375D03*
X185350150Y61154375D03*
X204400150Y59654375D03*
X204400150Y61154375D03*
X223450150Y59654375D03*
X223450150Y61154375D03*
X242500150Y59654375D03*
X242500150Y61154375D03*
X266312650Y59654375D03*
X266312650Y61154375D03*
X7947025Y42985625D03*
X7947025Y44485625D03*
X37712650Y40604375D03*
X37712650Y42104375D03*
X56762650Y40604375D03*
X56762650Y42104375D03*
X75812650Y40604375D03*
X75812650Y42104375D03*
X94862650Y40604375D03*
X94862650Y42104375D03*
X113912650Y40604375D03*
X113912650Y42104375D03*
X132962650Y40604375D03*
X132962650Y42104375D03*
X152012650Y40604375D03*
X152012650Y42104375D03*
X171062650Y40604375D03*
X171062650Y42104375D03*
X190112650Y40604375D03*
X190112650Y42104375D03*
X209162650Y40604375D03*
X209162650Y42104375D03*
X228212650Y40604375D03*
X228212650Y42104375D03*
X247262650Y40604375D03*
X247262650Y42104375D03*
X259168900Y40604375D03*
X259168900Y42104375D03*
X6756400Y23935625D03*
X6756400Y25435625D03*
X28187650Y21554375D03*
X28187650Y23054375D03*
X47237650Y21554375D03*
X47237650Y23054375D03*
X66121400Y22670000D03*
X66121400Y24170000D03*
X85337650Y21554375D03*
X85337650Y23054375D03*
X104387650Y21554375D03*
X104387650Y23054375D03*
X123281400Y22570000D03*
X123281400Y24070000D03*
X142487650Y21554375D03*
X142487650Y23054375D03*
X161441400Y22540000D03*
X161441400Y24040000D03*
X180587650Y21554375D03*
X180587650Y23054375D03*
X199637650Y21554375D03*
X199637650Y23054375D03*
X218687650Y21554375D03*
X218687650Y23054375D03*
X254406400Y21554375D03*
X254406400Y23054375D03*
D29*
X275087650Y19923125D03*
X276587650Y19923125D03*
D22*
X6756400Y2504375D03*
X6756400Y4004375D03*
X30568900Y2504375D03*
X30568900Y4004375D03*
X54381400Y2504375D03*
X54381400Y4004375D03*
X117678200Y2475800D03*
X117678200Y3975800D03*
X121056400Y2504375D03*
X121056400Y4004375D03*
X159156400Y3695000D03*
X159156400Y5195000D03*
X206781400Y2504375D03*
X206781400Y4004375D03*
X230593900Y2504375D03*
X230593900Y4004375D03*
X234165775Y2504375D03*
X234165775Y4004375D03*
D23*
X253136400Y3163000D03*
X253136400Y1663000D03*
D22*
X267741400Y1282000D03*
X267741400Y2782000D03*
D30*
X20157400Y38134000D03*
X22057400Y38134000D03*
X21107400Y36034000D03*
D31*
X15323400Y90320800D03*
X21103400Y90320800D03*
D32*
X14988400Y88875800D03*
X15763400Y88875800D03*
D33*
X16463400Y88875800D03*
X16963400Y88875800D03*
X17463400Y88875800D03*
X17963400Y88875800D03*
X18463400Y88875800D03*
X18963400Y88875800D03*
X19463400Y88875800D03*
X19963400Y88875800D03*
D32*
X20663400Y88875800D03*
X21438400Y88875800D03*
D34*
X13893400Y93970800D03*
D35*
X22533400Y89790800D03*
X13893400Y89790800D03*
D34*
X22533400Y93970800D03*
D29*
X23881400Y43720000D03*
X25381400Y43720000D03*
D36*
X17981400Y61420000D03*
X18931400Y61420000D03*
X19881400Y61420000D03*
X19881400Y59220000D03*
X17981400Y59220000D03*
D37*
X34881400Y56470000D03*
X34881400Y55970000D03*
X34881400Y55470000D03*
X34881400Y54970000D03*
X34881400Y54470000D03*
X34881400Y53970000D03*
X34881400Y53470000D03*
X34881400Y52970000D03*
X34881400Y52470000D03*
X34881400Y51970000D03*
X34881400Y51470000D03*
X34881400Y50970000D03*
D38*
X33281400Y49370000D03*
X32781400Y49370000D03*
X32281400Y49370000D03*
X31781400Y49370000D03*
X31281400Y49370000D03*
X30781400Y49370000D03*
X30281400Y49370000D03*
X29781400Y49370000D03*
X29281400Y49370000D03*
X28781400Y49370000D03*
X28281400Y49370000D03*
X27781400Y49370000D03*
D37*
X26181400Y50970000D03*
X26181400Y51470000D03*
X26181400Y51970000D03*
X26181400Y52470000D03*
X26181400Y52970000D03*
X26181400Y53470000D03*
X26181400Y53970000D03*
X26181400Y54470000D03*
X26181400Y54970000D03*
X26181400Y55470000D03*
X26181400Y55970000D03*
X26181400Y56470000D03*
D38*
X27781400Y58070000D03*
X28281400Y58070000D03*
X28781400Y58070000D03*
X29281400Y58070000D03*
X29781400Y58070000D03*
X30281400Y58070000D03*
X30781400Y58070000D03*
X31281400Y58070000D03*
X31781400Y58070000D03*
X32281400Y58070000D03*
X32781400Y58070000D03*
X33281400Y58070000D03*
D39*
X42221400Y76967500D03*
X42221400Y75392500D03*
X72651400Y76377500D03*
X72651400Y74802500D03*
X99501400Y76447500D03*
X99501400Y74872500D03*
X135031400Y77257500D03*
X135031400Y75682500D03*
X168161400Y76467500D03*
X168161400Y74892500D03*
X202671400Y76817500D03*
X202671400Y75242500D03*
X236051400Y76707500D03*
X236051400Y75132500D03*
X269481400Y76547500D03*
X269481400Y74972500D03*
X266741400Y19677500D03*
X266741400Y18102500D03*
D40*
X193221400Y22022500D03*
X193221400Y23597500D03*
D41*
X168183900Y20760000D03*
X169758900Y20760000D03*
D39*
X133911400Y19227500D03*
X133911400Y17652500D03*
D42*
X100818900Y23070000D03*
X99243900Y23070000D03*
D39*
X72021400Y19267500D03*
X72021400Y17692500D03*
X23081400Y19737500D03*
X23081400Y18162500D03*
D43*
X69501400Y76650000D03*
X69501400Y73450000D03*
X64601400Y73450000D03*
X64601400Y76650000D03*
X96421400Y77840000D03*
X96421400Y74640000D03*
X91521400Y74640000D03*
X91521400Y77840000D03*
X165401400Y76590000D03*
X165401400Y73390000D03*
X160501400Y73390000D03*
X160501400Y76590000D03*
X199601400Y77280000D03*
X199601400Y74080000D03*
X194701400Y74080000D03*
X194701400Y77280000D03*
X264251400Y20350000D03*
X264251400Y17150000D03*
X259351400Y17150000D03*
X259351400Y20350000D03*
X232941400Y21220000D03*
X232941400Y18020000D03*
X228041400Y18020000D03*
X228041400Y21220000D03*
X165871400Y20400000D03*
X165871400Y17200000D03*
X160971400Y17200000D03*
X160971400Y20400000D03*
X130761400Y20250000D03*
X130761400Y17050000D03*
X125861400Y17050000D03*
X125861400Y20250000D03*
X100481400Y20670000D03*
X100481400Y17470000D03*
X95581400Y17470000D03*
X95581400Y20670000D03*
X68981400Y20420000D03*
X68981400Y17220000D03*
X64081400Y17220000D03*
X64081400Y20420000D03*
X19411400Y20400000D03*
X19411400Y17200000D03*
X14511400Y17200000D03*
X14511400Y20400000D03*
D44*
X46031400Y58150000D03*
X42731400Y58150000D03*
X42731400Y60150000D03*
X46031400Y60150000D03*
D43*
X39051400Y78470000D03*
X39051400Y75270000D03*
X34151400Y75270000D03*
X34151400Y78470000D03*
X232731400Y77670000D03*
X232731400Y74470000D03*
X227831400Y74470000D03*
X227831400Y77670000D03*
X266321400Y76780000D03*
X266321400Y73580000D03*
X261421400Y73580000D03*
X261421400Y76780000D03*
X131951400Y77420000D03*
X131951400Y74220000D03*
X127051400Y74220000D03*
X127051400Y77420000D03*
D39*
X236071400Y20857500D03*
X236071400Y19282500D03*
D43*
X190231400Y20420000D03*
X190231400Y17220000D03*
X185331400Y17220000D03*
X185331400Y20420000D03*
D42*
X31356400Y76820000D03*
X29781400Y76820000D03*
D41*
X43443900Y62350000D03*
X45018900Y62350000D03*
D42*
X44968900Y55820000D03*
X43393900Y55820000D03*
X33998900Y60410000D03*
X32423900Y60410000D03*
D39*
X22261400Y56537500D03*
X22261400Y54962500D03*
X20229400Y56537500D03*
X20229400Y54962500D03*
D40*
X41513760Y52506780D03*
X41513760Y54081780D03*
X39331400Y52498500D03*
X39331400Y54073500D03*
D41*
X26053900Y46989400D03*
X27628900Y46989400D03*
X41143900Y50620000D03*
X42718900Y50620000D03*
X17543900Y63920000D03*
X19118900Y63920000D03*
D39*
X15748000Y59182100D03*
X15748000Y57607100D03*
D41*
X28447900Y43180000D03*
X30022900Y43180000D03*
D45*
X18760200Y79237800D03*
X18110200Y79237800D03*
X17460200Y79237800D03*
X17460200Y81137800D03*
X18110200Y81137800D03*
X18760200Y81137800D03*
D46*
X23451400Y74630000D03*
X23451400Y75280000D03*
X23451400Y75930000D03*
X25351400Y75930000D03*
X25351400Y74630000D03*
G36*
X273499466Y3708064D02*
G01*
X273571295Y3552254D01*
X273692806Y3380319D01*
X273709302Y3364250D01*
X273709844Y3362325D01*
X273708449Y3360892D01*
X273706948Y3361062D01*
X273648777Y3392824D01*
X273579695Y3387884D01*
X273524251Y3346379D01*
X273499955Y3281241D01*
X273499649Y3272648D01*
X273498588Y3270952D01*
X273496589Y3271024D01*
X273495650Y3272719D01*
X273495650Y3707227D01*
X273496650Y3708959D01*
X273498650Y3708959D01*
X273499466Y3708064D01*
G37*
G36*
X11403319Y4770515D02*
G01*
X11422995Y4703503D01*
X11475338Y4658148D01*
X11543891Y4648291D01*
X11607048Y4677134D01*
X11627223Y4699506D01*
X11646601Y4727180D01*
X11648413Y4728025D01*
X11650052Y4726878D01*
X11650009Y4725102D01*
X11567235Y4567775D01*
X11504799Y4366700D01*
X11480053Y4157619D01*
X11493823Y3947519D01*
X11545649Y3743459D01*
X11632754Y3554512D01*
X11632571Y3552521D01*
X11630755Y3551683D01*
X11629300Y3552528D01*
X11627319Y3555357D01*
X11572986Y3598788D01*
X11504097Y3605918D01*
X11442287Y3574672D01*
X11407095Y3514820D01*
X11403385Y3484800D01*
X11402180Y3483203D01*
X11400195Y3483449D01*
X11399400Y3485045D01*
X11399400Y4769952D01*
X11400400Y4771684D01*
X11402400Y4771684D01*
X11403319Y4770515D01*
G37*
G36*
X35215819Y4770515D02*
G01*
X35235495Y4703503D01*
X35287838Y4658148D01*
X35356391Y4648291D01*
X35419548Y4677134D01*
X35439723Y4699506D01*
X35459101Y4727180D01*
X35460913Y4728025D01*
X35462552Y4726878D01*
X35462509Y4725102D01*
X35379735Y4567775D01*
X35317299Y4366700D01*
X35292553Y4157619D01*
X35306323Y3947519D01*
X35358149Y3743459D01*
X35445254Y3554512D01*
X35445071Y3552521D01*
X35443255Y3551683D01*
X35441800Y3552528D01*
X35439819Y3555357D01*
X35385486Y3598788D01*
X35316597Y3605918D01*
X35254787Y3574672D01*
X35219595Y3514820D01*
X35215885Y3484800D01*
X35214680Y3483203D01*
X35212695Y3483449D01*
X35211900Y3485045D01*
X35211900Y4769952D01*
X35212900Y4771684D01*
X35214900Y4771684D01*
X35215819Y4770515D01*
G37*
G36*
X202062069Y4770515D02*
G01*
X202081745Y4703503D01*
X202134088Y4658148D01*
X202202641Y4648291D01*
X202265798Y4677134D01*
X202285973Y4699506D01*
X202305351Y4727180D01*
X202307163Y4728025D01*
X202308802Y4726878D01*
X202308759Y4725102D01*
X202225985Y4567775D01*
X202163549Y4366700D01*
X202138803Y4157619D01*
X202152573Y3947519D01*
X202204399Y3743459D01*
X202291504Y3554512D01*
X202291321Y3552521D01*
X202289505Y3551683D01*
X202288050Y3552528D01*
X202286069Y3555357D01*
X202231736Y3598788D01*
X202162847Y3605918D01*
X202101037Y3574672D01*
X202065845Y3514820D01*
X202062135Y3484800D01*
X202060930Y3483203D01*
X202058945Y3483449D01*
X202058150Y3485045D01*
X202058150Y4769952D01*
X202059150Y4771684D01*
X202061150Y4771684D01*
X202062069Y4770515D01*
G37*
G36*
X249687069Y4770515D02*
G01*
X249706745Y4703503D01*
X249759088Y4658148D01*
X249827641Y4648291D01*
X249890798Y4677134D01*
X249910973Y4699506D01*
X249930351Y4727180D01*
X249932163Y4728025D01*
X249933802Y4726878D01*
X249933759Y4725102D01*
X249850985Y4567775D01*
X249788549Y4366700D01*
X249763803Y4157619D01*
X249777573Y3947519D01*
X249829399Y3743459D01*
X249916504Y3554512D01*
X249916321Y3552521D01*
X249914505Y3551683D01*
X249913050Y3552528D01*
X249911069Y3555357D01*
X249856736Y3598788D01*
X249787847Y3605918D01*
X249726037Y3574672D01*
X249690845Y3514820D01*
X249687135Y3484800D01*
X249685930Y3483203D01*
X249683945Y3483449D01*
X249683150Y3485045D01*
X249683150Y4769952D01*
X249684150Y4771684D01*
X249686150Y4771684D01*
X249687069Y4770515D01*
G37*
G36*
X59028319Y4770515D02*
G01*
X59047995Y4703503D01*
X59100338Y4658148D01*
X59168891Y4648291D01*
X59232048Y4677134D01*
X59252223Y4699506D01*
X59271601Y4727180D01*
X59273413Y4728025D01*
X59275052Y4726878D01*
X59275009Y4725102D01*
X59192235Y4567775D01*
X59129799Y4366700D01*
X59105053Y4157619D01*
X59118823Y3947519D01*
X59170649Y3743459D01*
X59257754Y3554512D01*
X59257571Y3552521D01*
X59255755Y3551683D01*
X59254300Y3552528D01*
X59252319Y3555357D01*
X59197986Y3598788D01*
X59129097Y3605918D01*
X59067287Y3574672D01*
X59032095Y3514820D01*
X59028385Y3484800D01*
X59027180Y3483203D01*
X59025195Y3483449D01*
X59024400Y3485045D01*
X59024400Y4769952D01*
X59025400Y4771684D01*
X59027400Y4771684D01*
X59028319Y4770515D01*
G37*
G36*
X223334569Y4770515D02*
G01*
X223354245Y4703503D01*
X223406588Y4658148D01*
X223475141Y4648291D01*
X223538298Y4677134D01*
X223558473Y4699506D01*
X223577851Y4727180D01*
X223579663Y4728025D01*
X223581302Y4726878D01*
X223581259Y4725102D01*
X223498485Y4567775D01*
X223436049Y4366700D01*
X223411303Y4157619D01*
X223425073Y3947519D01*
X223476899Y3743459D01*
X223564004Y3554512D01*
X223563821Y3552521D01*
X223562005Y3551683D01*
X223560550Y3552528D01*
X223558569Y3555357D01*
X223504236Y3598788D01*
X223435347Y3605918D01*
X223373537Y3574672D01*
X223338345Y3514820D01*
X223334635Y3484800D01*
X223333430Y3483203D01*
X223331445Y3483449D01*
X223330650Y3485045D01*
X223330650Y4769952D01*
X223331650Y4771684D01*
X223333650Y4771684D01*
X223334569Y4770515D01*
G37*
G36*
X275956355Y4771551D02*
G01*
X275957150Y4769955D01*
X275957150Y3485048D01*
X275956150Y3483316D01*
X275954150Y3483316D01*
X275953231Y3484485D01*
X275933555Y3551497D01*
X275881212Y3596852D01*
X275812659Y3606709D01*
X275749502Y3577866D01*
X275729327Y3555494D01*
X275701333Y3515515D01*
X275699521Y3514670D01*
X275697882Y3515817D01*
X275697950Y3517639D01*
X275777426Y3659552D01*
X275845104Y3858925D01*
X275875325Y4067353D01*
X275876898Y4127428D01*
X275857626Y4337161D01*
X275800476Y4539798D01*
X275715158Y4712808D01*
X275715289Y4714804D01*
X275717083Y4715689D01*
X275718590Y4714840D01*
X275729231Y4699643D01*
X275783564Y4656212D01*
X275852453Y4649082D01*
X275914263Y4680328D01*
X275949455Y4740180D01*
X275953165Y4770200D01*
X275954370Y4771797D01*
X275956355Y4771551D01*
G37*
G36*
X37831355Y4771551D02*
G01*
X37832150Y4769955D01*
X37832150Y3485048D01*
X37831150Y3483316D01*
X37829150Y3483316D01*
X37828231Y3484485D01*
X37808555Y3551497D01*
X37756212Y3596852D01*
X37687659Y3606709D01*
X37624502Y3577866D01*
X37604327Y3555494D01*
X37576333Y3515515D01*
X37574521Y3514670D01*
X37572882Y3515817D01*
X37572950Y3517639D01*
X37652426Y3659552D01*
X37720104Y3858925D01*
X37750325Y4067353D01*
X37751898Y4127428D01*
X37732626Y4337161D01*
X37675476Y4539798D01*
X37590158Y4712808D01*
X37590289Y4714804D01*
X37592083Y4715689D01*
X37593590Y4714840D01*
X37604231Y4699643D01*
X37658564Y4656212D01*
X37727453Y4649082D01*
X37789263Y4680328D01*
X37824455Y4740180D01*
X37828165Y4770200D01*
X37829370Y4771797D01*
X37831355Y4771551D01*
G37*
G36*
X271035105Y4771551D02*
G01*
X271035900Y4769955D01*
X271035900Y3485048D01*
X271034900Y3483316D01*
X271032900Y3483316D01*
X271031981Y3484485D01*
X271012305Y3551497D01*
X270959962Y3596852D01*
X270891409Y3606709D01*
X270828252Y3577866D01*
X270808077Y3555494D01*
X270780083Y3515515D01*
X270778271Y3514670D01*
X270776632Y3515817D01*
X270776700Y3517639D01*
X270856176Y3659552D01*
X270923854Y3858925D01*
X270954075Y4067353D01*
X270955648Y4127428D01*
X270936376Y4337161D01*
X270879226Y4539798D01*
X270793908Y4712808D01*
X270794039Y4714804D01*
X270795833Y4715689D01*
X270797340Y4714840D01*
X270807981Y4699643D01*
X270862314Y4656212D01*
X270931203Y4649082D01*
X270993013Y4680328D01*
X271028205Y4740180D01*
X271031915Y4770200D01*
X271033120Y4771797D01*
X271035105Y4771551D01*
G37*
G36*
X247222605Y4771551D02*
G01*
X247223400Y4769955D01*
X247223400Y3485048D01*
X247222400Y3483316D01*
X247220400Y3483316D01*
X247219481Y3484485D01*
X247199805Y3551497D01*
X247147462Y3596852D01*
X247078909Y3606709D01*
X247015752Y3577866D01*
X246995577Y3555494D01*
X246967583Y3515515D01*
X246965771Y3514670D01*
X246964132Y3515817D01*
X246964200Y3517639D01*
X247043676Y3659552D01*
X247111354Y3858925D01*
X247141575Y4067353D01*
X247143148Y4127428D01*
X247123876Y4337161D01*
X247066726Y4539798D01*
X246981408Y4712808D01*
X246981539Y4714804D01*
X246983333Y4715689D01*
X246984840Y4714840D01*
X246995481Y4699643D01*
X247049814Y4656212D01*
X247118703Y4649082D01*
X247180513Y4680328D01*
X247215705Y4740180D01*
X247219415Y4770200D01*
X247220620Y4771797D01*
X247222605Y4771551D01*
G37*
G36*
X225950105Y4771551D02*
G01*
X225950900Y4769955D01*
X225950900Y3485048D01*
X225949900Y3483316D01*
X225947900Y3483316D01*
X225946981Y3484485D01*
X225927305Y3551497D01*
X225874962Y3596852D01*
X225806409Y3606709D01*
X225743252Y3577866D01*
X225723077Y3555494D01*
X225695083Y3515515D01*
X225693271Y3514670D01*
X225691632Y3515817D01*
X225691700Y3517639D01*
X225771176Y3659552D01*
X225838854Y3858925D01*
X225869075Y4067353D01*
X225870648Y4127428D01*
X225851376Y4337161D01*
X225794226Y4539798D01*
X225708908Y4712808D01*
X225709039Y4714804D01*
X225710833Y4715689D01*
X225712340Y4714840D01*
X225722981Y4699643D01*
X225777314Y4656212D01*
X225846203Y4649082D01*
X225908013Y4680328D01*
X225943205Y4740180D01*
X225946915Y4770200D01*
X225948120Y4771797D01*
X225950105Y4771551D01*
G37*
G36*
X14018855Y4771551D02*
G01*
X14019650Y4769955D01*
X14019650Y3485048D01*
X14018650Y3483316D01*
X14016650Y3483316D01*
X14015731Y3484485D01*
X13996055Y3551497D01*
X13943712Y3596852D01*
X13875159Y3606709D01*
X13812002Y3577866D01*
X13791827Y3555494D01*
X13763833Y3515515D01*
X13762021Y3514670D01*
X13760382Y3515817D01*
X13760450Y3517639D01*
X13839926Y3659552D01*
X13907604Y3858925D01*
X13937825Y4067353D01*
X13939398Y4127428D01*
X13920126Y4337161D01*
X13862976Y4539798D01*
X13777658Y4712808D01*
X13777789Y4714804D01*
X13779583Y4715689D01*
X13781090Y4714840D01*
X13791731Y4699643D01*
X13846064Y4656212D01*
X13914953Y4649082D01*
X13976763Y4680328D01*
X14011955Y4740180D01*
X14015665Y4770200D01*
X14016870Y4771797D01*
X14018855Y4771551D01*
G37*
G36*
X61643855Y4771551D02*
G01*
X61644650Y4769955D01*
X61644650Y3485048D01*
X61643650Y3483316D01*
X61641650Y3483316D01*
X61640731Y3484485D01*
X61621055Y3551497D01*
X61568712Y3596852D01*
X61500159Y3606709D01*
X61437002Y3577866D01*
X61416827Y3555494D01*
X61388833Y3515515D01*
X61387021Y3514670D01*
X61385382Y3515817D01*
X61385450Y3517639D01*
X61464926Y3659552D01*
X61532604Y3858925D01*
X61562825Y4067353D01*
X61564398Y4127428D01*
X61545126Y4337161D01*
X61487976Y4539798D01*
X61402658Y4712808D01*
X61402789Y4714804D01*
X61404583Y4715689D01*
X61406090Y4714840D01*
X61416731Y4699643D01*
X61471064Y4656212D01*
X61539953Y4649082D01*
X61601763Y4680328D01*
X61636955Y4740180D01*
X61640665Y4770200D01*
X61641870Y4771797D01*
X61643855Y4771551D01*
G37*
G36*
X128203094Y3836306D02*
G01*
X128203528Y3835479D01*
X128226899Y3743459D01*
X128314004Y3554512D01*
X128313821Y3552521D01*
X128312005Y3551683D01*
X128310550Y3552528D01*
X128306634Y3558120D01*
X128305755Y3558044D01*
X128305100Y3558534D01*
X128265781Y3603191D01*
X128199178Y3622177D01*
X128132874Y3602138D01*
X128095143Y3558593D01*
X128093631Y3558070D01*
X128089235Y3551792D01*
X128089108Y3551629D01*
X128088558Y3550994D01*
X128088394Y3550643D01*
X128088219Y3550341D01*
X128063833Y3515514D01*
X128062021Y3514669D01*
X128060382Y3515816D01*
X128060450Y3517638D01*
X128139926Y3659552D01*
X128199696Y3835630D01*
X128201200Y3836949D01*
X128203094Y3836306D01*
G37*
G36*
X99628094Y3836306D02*
G01*
X99628528Y3835479D01*
X99651899Y3743459D01*
X99739004Y3554512D01*
X99738821Y3552521D01*
X99737005Y3551683D01*
X99735550Y3552528D01*
X99731634Y3558120D01*
X99730755Y3558044D01*
X99730100Y3558534D01*
X99690781Y3603191D01*
X99624178Y3622177D01*
X99557874Y3602138D01*
X99520143Y3558593D01*
X99518631Y3558070D01*
X99514235Y3551792D01*
X99514108Y3551629D01*
X99513558Y3550994D01*
X99513394Y3550643D01*
X99513219Y3550341D01*
X99488833Y3515514D01*
X99487021Y3514669D01*
X99485382Y3515816D01*
X99485450Y3517638D01*
X99564926Y3659552D01*
X99624696Y3835630D01*
X99626200Y3836949D01*
X99628094Y3836306D01*
G37*
G36*
X166303094Y3836306D02*
G01*
X166303528Y3835479D01*
X166326899Y3743459D01*
X166414004Y3554512D01*
X166413821Y3552521D01*
X166412005Y3551683D01*
X166410550Y3552528D01*
X166406634Y3558120D01*
X166405755Y3558044D01*
X166405100Y3558534D01*
X166365781Y3603191D01*
X166299178Y3622177D01*
X166232874Y3602138D01*
X166195143Y3558593D01*
X166193631Y3558070D01*
X166189235Y3551792D01*
X166189108Y3551629D01*
X166188558Y3550994D01*
X166188394Y3550643D01*
X166188219Y3550341D01*
X166163833Y3515514D01*
X166162021Y3514669D01*
X166160382Y3515816D01*
X166160450Y3517638D01*
X166239926Y3659552D01*
X166299696Y3835630D01*
X166301200Y3836949D01*
X166303094Y3836306D01*
G37*
G36*
X130447240Y4330348D02*
G01*
X130447853Y4328061D01*
X130447913Y4327717D01*
X130451345Y4288495D01*
X130476684Y4223712D01*
X130532778Y4183092D01*
X130601930Y4179248D01*
X130662182Y4213399D01*
X130694498Y4274880D01*
X130696910Y4299120D01*
X130698076Y4300745D01*
X130700067Y4300547D01*
X130700900Y4298922D01*
X130700900Y3956081D01*
X130699900Y3954349D01*
X130697900Y3954349D01*
X130696981Y3955518D01*
X130677305Y4022530D01*
X130624962Y4067885D01*
X130556409Y4077742D01*
X130493411Y4048971D01*
X130455859Y3990539D01*
X130451362Y3966699D01*
X130447913Y3927283D01*
X130447853Y3926939D01*
X130439441Y3895546D01*
X130438027Y3894132D01*
X130436095Y3894650D01*
X130435530Y3896351D01*
X130460325Y4067353D01*
X130461898Y4127428D01*
X130443316Y4329647D01*
X130444154Y4331463D01*
X130446145Y4331646D01*
X130447240Y4330348D01*
G37*
G36*
X218553490Y4330348D02*
G01*
X218554103Y4328061D01*
X218554163Y4327717D01*
X218557595Y4288495D01*
X218582934Y4223712D01*
X218639028Y4183092D01*
X218708180Y4179248D01*
X218768432Y4213399D01*
X218800748Y4274880D01*
X218803160Y4299120D01*
X218804326Y4300745D01*
X218806317Y4300547D01*
X218807150Y4298922D01*
X218807150Y3956081D01*
X218806150Y3954349D01*
X218804150Y3954349D01*
X218803231Y3955518D01*
X218783555Y4022530D01*
X218731212Y4067885D01*
X218662659Y4077742D01*
X218599661Y4048971D01*
X218562109Y3990539D01*
X218557612Y3966699D01*
X218554163Y3927283D01*
X218554103Y3926939D01*
X218545691Y3895546D01*
X218544277Y3894132D01*
X218542345Y3894650D01*
X218541780Y3896351D01*
X218566575Y4067353D01*
X218568148Y4127428D01*
X218549566Y4329647D01*
X218550404Y4331463D01*
X218552395Y4331646D01*
X218553490Y4330348D01*
G37*
G36*
X142353490Y4330348D02*
G01*
X142354103Y4328061D01*
X142354163Y4327717D01*
X142357595Y4288495D01*
X142382934Y4223712D01*
X142439028Y4183092D01*
X142508180Y4179248D01*
X142568432Y4213399D01*
X142600748Y4274880D01*
X142603160Y4299120D01*
X142604326Y4300745D01*
X142606317Y4300547D01*
X142607150Y4298922D01*
X142607150Y3956081D01*
X142606150Y3954349D01*
X142604150Y3954349D01*
X142603231Y3955518D01*
X142583555Y4022530D01*
X142531212Y4067885D01*
X142462659Y4077742D01*
X142399661Y4048971D01*
X142362109Y3990539D01*
X142357612Y3966699D01*
X142354163Y3927283D01*
X142354103Y3926939D01*
X142345691Y3895546D01*
X142344277Y3894132D01*
X142342345Y3894650D01*
X142341780Y3896351D01*
X142366575Y4067353D01*
X142368148Y4127428D01*
X142349566Y4329647D01*
X142350404Y4331463D01*
X142352395Y4331646D01*
X142353490Y4330348D01*
G37*
G36*
X168547240Y4330348D02*
G01*
X168547853Y4328061D01*
X168547913Y4327717D01*
X168551345Y4288495D01*
X168576684Y4223712D01*
X168632778Y4183092D01*
X168701930Y4179248D01*
X168762182Y4213399D01*
X168794498Y4274880D01*
X168796910Y4299120D01*
X168798076Y4300745D01*
X168800067Y4300547D01*
X168800900Y4298922D01*
X168800900Y3956081D01*
X168799900Y3954349D01*
X168797900Y3954349D01*
X168796981Y3955518D01*
X168777305Y4022530D01*
X168724962Y4067885D01*
X168656409Y4077742D01*
X168593411Y4048971D01*
X168555859Y3990539D01*
X168551362Y3966699D01*
X168547913Y3927283D01*
X168547853Y3926939D01*
X168539441Y3895546D01*
X168538027Y3894132D01*
X168536095Y3894650D01*
X168535530Y3896351D01*
X168560325Y4067353D01*
X168561898Y4127428D01*
X168543316Y4329647D01*
X168544154Y4331463D01*
X168546145Y4331646D01*
X168547240Y4330348D01*
G37*
G36*
X92347240Y4330348D02*
G01*
X92347853Y4328061D01*
X92347913Y4327717D01*
X92351345Y4288495D01*
X92376684Y4223712D01*
X92432778Y4183092D01*
X92501930Y4179248D01*
X92562182Y4213399D01*
X92594498Y4274880D01*
X92596910Y4299120D01*
X92598076Y4300745D01*
X92600067Y4300547D01*
X92600900Y4298922D01*
X92600900Y3956081D01*
X92599900Y3954349D01*
X92597900Y3954349D01*
X92596981Y3955518D01*
X92577305Y4022530D01*
X92524962Y4067885D01*
X92456409Y4077742D01*
X92393411Y4048971D01*
X92355859Y3990539D01*
X92351362Y3966699D01*
X92347913Y3927283D01*
X92347853Y3926939D01*
X92339441Y3895546D01*
X92338027Y3894132D01*
X92336095Y3894650D01*
X92335530Y3896351D01*
X92360325Y4067353D01*
X92361898Y4127428D01*
X92343316Y4329647D01*
X92344154Y4331463D01*
X92346145Y4331646D01*
X92347240Y4330348D01*
G37*
G36*
X256653490Y4330348D02*
G01*
X256654103Y4328061D01*
X256654163Y4327717D01*
X256657595Y4288495D01*
X256682934Y4223712D01*
X256739028Y4183092D01*
X256808180Y4179248D01*
X256868432Y4213399D01*
X256900748Y4274880D01*
X256903160Y4299120D01*
X256904326Y4300745D01*
X256906317Y4300547D01*
X256907150Y4298922D01*
X256907150Y3956081D01*
X256906150Y3954349D01*
X256904150Y3954349D01*
X256903231Y3955518D01*
X256883555Y4022530D01*
X256831212Y4067885D01*
X256762659Y4077742D01*
X256699661Y4048971D01*
X256662109Y3990539D01*
X256657612Y3966699D01*
X256654163Y3927283D01*
X256654103Y3926939D01*
X256645691Y3895546D01*
X256644277Y3894132D01*
X256642345Y3894650D01*
X256641780Y3896351D01*
X256666575Y4067353D01*
X256668148Y4127428D01*
X256649566Y4329647D01*
X256650404Y4331463D01*
X256652395Y4331646D01*
X256653490Y4330348D01*
G37*
G36*
X101872240Y4330348D02*
G01*
X101872853Y4328061D01*
X101872913Y4327717D01*
X101876345Y4288495D01*
X101901684Y4223712D01*
X101957778Y4183092D01*
X102026930Y4179248D01*
X102087182Y4213399D01*
X102119498Y4274880D01*
X102121910Y4299120D01*
X102123076Y4300745D01*
X102125067Y4300547D01*
X102125900Y4298922D01*
X102125900Y3956081D01*
X102124900Y3954349D01*
X102122900Y3954349D01*
X102121981Y3955518D01*
X102102305Y4022530D01*
X102049962Y4067885D01*
X101981409Y4077742D01*
X101918411Y4048971D01*
X101880859Y3990539D01*
X101876362Y3966699D01*
X101872913Y3927283D01*
X101872853Y3926939D01*
X101864441Y3895546D01*
X101863027Y3894132D01*
X101861095Y3894650D01*
X101860530Y3896351D01*
X101885325Y4067353D01*
X101886898Y4127428D01*
X101868316Y4329647D01*
X101869154Y4331463D01*
X101871145Y4331646D01*
X101872240Y4330348D01*
G37*
G36*
X182834740Y4330348D02*
G01*
X182835353Y4328061D01*
X182835413Y4327717D01*
X182838845Y4288495D01*
X182864184Y4223712D01*
X182920278Y4183092D01*
X182989430Y4179248D01*
X183049682Y4213399D01*
X183081998Y4274880D01*
X183084410Y4299120D01*
X183085576Y4300745D01*
X183087567Y4300547D01*
X183088400Y4298922D01*
X183088400Y3956081D01*
X183087400Y3954349D01*
X183085400Y3954349D01*
X183084481Y3955518D01*
X183064805Y4022530D01*
X183012462Y4067885D01*
X182943909Y4077742D01*
X182880911Y4048971D01*
X182843359Y3990539D01*
X182838862Y3966699D01*
X182835413Y3927283D01*
X182835353Y3926939D01*
X182826941Y3895546D01*
X182825527Y3894132D01*
X182823595Y3894650D01*
X182823030Y3896351D01*
X182847825Y4067353D01*
X182849398Y4127428D01*
X182830816Y4329647D01*
X182831654Y4331463D01*
X182833645Y4331646D01*
X182834740Y4330348D01*
G37*
G36*
X199597605Y4771551D02*
G01*
X199598400Y4769955D01*
X199598400Y3942446D01*
X199597400Y3940714D01*
X199596374Y3940446D01*
X199532525Y3941282D01*
X199500236Y3936888D01*
X199498385Y3937646D01*
X199497987Y3939157D01*
X199516575Y4067353D01*
X199518148Y4127428D01*
X199498876Y4337161D01*
X199441726Y4539798D01*
X199356408Y4712808D01*
X199356539Y4714804D01*
X199358333Y4715689D01*
X199359840Y4714840D01*
X199370481Y4699643D01*
X199424814Y4656212D01*
X199493703Y4649082D01*
X199555513Y4680328D01*
X199590705Y4740180D01*
X199594415Y4770200D01*
X199595620Y4771797D01*
X199597605Y4771551D01*
G37*
G36*
X135485310Y4345816D02*
G01*
X135485882Y4344167D01*
X135463803Y4157619D01*
X135475962Y3972100D01*
X135475077Y3970306D01*
X135473081Y3970175D01*
X135472103Y3971240D01*
X135448616Y4031288D01*
X135392522Y4071908D01*
X135323370Y4075752D01*
X135263118Y4041601D01*
X135230802Y3980120D01*
X135228390Y3955880D01*
X135227224Y3954255D01*
X135225233Y3954453D01*
X135224400Y3956078D01*
X135224400Y4298919D01*
X135225400Y4300651D01*
X135227400Y4300651D01*
X135228319Y4299482D01*
X135247995Y4232470D01*
X135300338Y4187115D01*
X135368891Y4177258D01*
X135431889Y4206029D01*
X135469441Y4264461D01*
X135473938Y4288301D01*
X135477387Y4327717D01*
X135477447Y4328061D01*
X135481964Y4344920D01*
X135483378Y4346334D01*
X135485310Y4345816D01*
G37*
G36*
X164060310Y4345816D02*
G01*
X164060882Y4344167D01*
X164038803Y4157619D01*
X164050962Y3972100D01*
X164050077Y3970306D01*
X164048081Y3970175D01*
X164047103Y3971240D01*
X164023616Y4031288D01*
X163967522Y4071908D01*
X163898370Y4075752D01*
X163838118Y4041601D01*
X163805802Y3980120D01*
X163803390Y3955880D01*
X163802224Y3954255D01*
X163800233Y3954453D01*
X163799400Y3956078D01*
X163799400Y4298919D01*
X163800400Y4300651D01*
X163802400Y4300651D01*
X163803319Y4299482D01*
X163822995Y4232470D01*
X163875338Y4187115D01*
X163943891Y4177258D01*
X164006889Y4206029D01*
X164044441Y4264461D01*
X164048938Y4288301D01*
X164052387Y4327717D01*
X164052447Y4328061D01*
X164056964Y4344920D01*
X164058378Y4346334D01*
X164060310Y4345816D01*
G37*
G36*
X125960310Y4345816D02*
G01*
X125960882Y4344167D01*
X125938803Y4157619D01*
X125950962Y3972100D01*
X125950077Y3970306D01*
X125948081Y3970175D01*
X125947103Y3971240D01*
X125923616Y4031288D01*
X125867522Y4071908D01*
X125798370Y4075752D01*
X125738118Y4041601D01*
X125705802Y3980120D01*
X125703390Y3955880D01*
X125702224Y3954255D01*
X125700233Y3954453D01*
X125699400Y3956078D01*
X125699400Y4298919D01*
X125700400Y4300651D01*
X125702400Y4300651D01*
X125703319Y4299482D01*
X125722995Y4232470D01*
X125775338Y4187115D01*
X125843891Y4177258D01*
X125906889Y4206029D01*
X125944441Y4264461D01*
X125948938Y4288301D01*
X125952387Y4327717D01*
X125952447Y4328061D01*
X125956964Y4344920D01*
X125958378Y4346334D01*
X125960310Y4345816D01*
G37*
G36*
X97385310Y4345816D02*
G01*
X97385882Y4344167D01*
X97363803Y4157619D01*
X97375962Y3972100D01*
X97375077Y3970306D01*
X97373081Y3970175D01*
X97372103Y3971240D01*
X97348616Y4031288D01*
X97292522Y4071908D01*
X97223370Y4075752D01*
X97163118Y4041601D01*
X97130802Y3980120D01*
X97128390Y3955880D01*
X97127224Y3954255D01*
X97125233Y3954453D01*
X97124400Y3956078D01*
X97124400Y4298919D01*
X97125400Y4300651D01*
X97127400Y4300651D01*
X97128319Y4299482D01*
X97147995Y4232470D01*
X97200338Y4187115D01*
X97268891Y4177258D01*
X97331889Y4206029D01*
X97369441Y4264461D01*
X97373938Y4288301D01*
X97377387Y4327717D01*
X97377447Y4328061D01*
X97381964Y4344920D01*
X97383378Y4346334D01*
X97385310Y4345816D01*
G37*
G36*
X237879060Y4345816D02*
G01*
X237879632Y4344167D01*
X237857553Y4157619D01*
X237869712Y3972100D01*
X237868827Y3970306D01*
X237866831Y3970175D01*
X237865853Y3971240D01*
X237842366Y4031288D01*
X237786272Y4071908D01*
X237717120Y4075752D01*
X237656868Y4041601D01*
X237624552Y3980120D01*
X237622140Y3955880D01*
X237620974Y3954255D01*
X237618983Y3954453D01*
X237618150Y3956078D01*
X237618150Y4298919D01*
X237619150Y4300651D01*
X237621150Y4300651D01*
X237622069Y4299482D01*
X237641745Y4232470D01*
X237694088Y4187115D01*
X237762641Y4177258D01*
X237825639Y4206029D01*
X237863191Y4264461D01*
X237867688Y4288301D01*
X237871137Y4327717D01*
X237871197Y4328061D01*
X237875714Y4344920D01*
X237877128Y4346334D01*
X237879060Y4345816D01*
G37*
G36*
X166431302Y4726879D02*
G01*
X166431259Y4725103D01*
X166348485Y4567775D01*
X166301543Y4416598D01*
X166300074Y4415240D01*
X166298164Y4415833D01*
X166297708Y4416648D01*
X166262976Y4539798D01*
X166177657Y4712810D01*
X166177788Y4714806D01*
X166179582Y4715691D01*
X166181089Y4714842D01*
X166188219Y4704659D01*
X166188394Y4704357D01*
X166188555Y4704012D01*
X166189052Y4703447D01*
X166189189Y4703273D01*
X166193666Y4696880D01*
X166194545Y4696956D01*
X166195200Y4696466D01*
X166234519Y4651809D01*
X166301122Y4632823D01*
X166367426Y4652862D01*
X166405157Y4696407D01*
X166406669Y4696930D01*
X166411065Y4703208D01*
X166411192Y4703371D01*
X166411742Y4704006D01*
X166411906Y4704357D01*
X166412081Y4704659D01*
X166427851Y4727181D01*
X166429663Y4728026D01*
X166431302Y4726879D01*
G37*
G36*
X128331302Y4726879D02*
G01*
X128331259Y4725103D01*
X128248485Y4567775D01*
X128201543Y4416598D01*
X128200074Y4415240D01*
X128198164Y4415833D01*
X128197708Y4416648D01*
X128162976Y4539798D01*
X128077657Y4712810D01*
X128077788Y4714806D01*
X128079582Y4715691D01*
X128081089Y4714842D01*
X128088219Y4704659D01*
X128088394Y4704357D01*
X128088555Y4704012D01*
X128089052Y4703447D01*
X128089189Y4703273D01*
X128093666Y4696880D01*
X128094545Y4696956D01*
X128095200Y4696466D01*
X128134519Y4651809D01*
X128201122Y4632823D01*
X128267426Y4652862D01*
X128305157Y4696407D01*
X128306669Y4696930D01*
X128311065Y4703208D01*
X128311192Y4703371D01*
X128311742Y4704006D01*
X128311906Y4704357D01*
X128312081Y4704659D01*
X128327851Y4727181D01*
X128329663Y4728026D01*
X128331302Y4726879D01*
G37*
G36*
X99756302Y4726879D02*
G01*
X99756259Y4725103D01*
X99673485Y4567775D01*
X99626543Y4416598D01*
X99625074Y4415240D01*
X99623164Y4415833D01*
X99622708Y4416648D01*
X99587976Y4539798D01*
X99502657Y4712810D01*
X99502788Y4714806D01*
X99504582Y4715691D01*
X99506089Y4714842D01*
X99513219Y4704659D01*
X99513394Y4704357D01*
X99513555Y4704012D01*
X99514052Y4703447D01*
X99514189Y4703273D01*
X99518666Y4696880D01*
X99519545Y4696956D01*
X99520200Y4696466D01*
X99559519Y4651809D01*
X99626122Y4632823D01*
X99692426Y4652862D01*
X99730157Y4696407D01*
X99731669Y4696930D01*
X99736065Y4703208D01*
X99736192Y4703371D01*
X99736742Y4704006D01*
X99736906Y4704357D01*
X99737081Y4704659D01*
X99752851Y4727181D01*
X99754663Y4728026D01*
X99756302Y4726879D01*
G37*
G36*
X273499569Y4982840D02*
G01*
X273519245Y4915828D01*
X273571588Y4870473D01*
X273640141Y4860616D01*
X273703378Y4889496D01*
X273707361Y4893203D01*
X273709311Y4893651D01*
X273710673Y4892187D01*
X273710295Y4890501D01*
X273602766Y4754101D01*
X273504735Y4567775D01*
X273499560Y4551110D01*
X273498091Y4549752D01*
X273496181Y4550345D01*
X273495650Y4551703D01*
X273495650Y4982277D01*
X273496650Y4984009D01*
X273498650Y4984009D01*
X273499569Y4982840D01*
G37*
G36*
X252509169Y10511750D02*
G01*
X252525160Y10504294D01*
X252747918Y10444606D01*
X252899339Y10431359D01*
X252900978Y10430212D01*
X252900803Y10428220D01*
X252899092Y10427368D01*
X252814926Y10430454D01*
X252747514Y10413315D01*
X252700273Y10362672D01*
X252687912Y10294524D01*
X252714366Y10230486D01*
X252763345Y10194282D01*
X252764143Y10192449D01*
X252762954Y10190840D01*
X252761415Y10190816D01*
X252647396Y10236305D01*
X252454807Y10274613D01*
X252452640Y10274642D01*
X252450921Y10275665D01*
X252450947Y10277665D01*
X252452128Y10278568D01*
X252517604Y10296865D01*
X252563639Y10348607D01*
X252574392Y10417028D01*
X252546434Y10480430D01*
X252507166Y10508306D01*
X252506333Y10510124D01*
X252507491Y10511755D01*
X252509169Y10511750D01*
G37*
G36*
X242984169Y10511750D02*
G01*
X243000160Y10504294D01*
X243222918Y10444606D01*
X243374339Y10431359D01*
X243375978Y10430212D01*
X243375803Y10428220D01*
X243374092Y10427368D01*
X243289926Y10430454D01*
X243222514Y10413315D01*
X243175273Y10362672D01*
X243162912Y10294524D01*
X243189366Y10230486D01*
X243238345Y10194282D01*
X243239143Y10192449D01*
X243237954Y10190840D01*
X243236415Y10190816D01*
X243122396Y10236305D01*
X242929807Y10274613D01*
X242927640Y10274642D01*
X242925921Y10275665D01*
X242925947Y10277665D01*
X242927128Y10278568D01*
X242992604Y10296865D01*
X243038639Y10348607D01*
X243049392Y10417028D01*
X243021434Y10480430D01*
X242982166Y10508306D01*
X242981333Y10510124D01*
X242982491Y10511755D01*
X242984169Y10511750D01*
G37*
G36*
X56526163Y11178663D02*
G01*
X56526338Y11178361D01*
X56569406Y11086001D01*
X56675483Y10934507D01*
X56675658Y10932515D01*
X56674019Y10931368D01*
X56672333Y10932051D01*
X56644757Y10963886D01*
X56644564Y10964150D01*
X56628450Y10990446D01*
X56576868Y11037113D01*
X56508543Y11048436D01*
X56444785Y11020954D01*
X56423465Y10998099D01*
X56404366Y10971521D01*
X56402543Y10970698D01*
X56400919Y10971865D01*
X56401104Y10973835D01*
X56479644Y11086001D01*
X56522712Y11178361D01*
X56524351Y11179508D01*
X56526163Y11178663D01*
G37*
G36*
X8901163Y11178663D02*
G01*
X8901338Y11178361D01*
X8944406Y11086001D01*
X9050483Y10934507D01*
X9050658Y10932515D01*
X9049019Y10931368D01*
X9047333Y10932051D01*
X9019757Y10963886D01*
X9019564Y10964150D01*
X9003450Y10990446D01*
X8951868Y11037113D01*
X8883543Y11048436D01*
X8819785Y11020954D01*
X8798465Y10998099D01*
X8779366Y10971521D01*
X8777543Y10970698D01*
X8775919Y10971865D01*
X8776104Y10973835D01*
X8854644Y11086001D01*
X8897712Y11178361D01*
X8899351Y11179508D01*
X8901163Y11178663D01*
G37*
G36*
X268457413Y11178663D02*
G01*
X268457588Y11178361D01*
X268500656Y11086001D01*
X268606733Y10934507D01*
X268606908Y10932515D01*
X268605269Y10931368D01*
X268603583Y10932051D01*
X268576007Y10963886D01*
X268575814Y10964150D01*
X268559700Y10990446D01*
X268508118Y11037113D01*
X268439793Y11048436D01*
X268376035Y11020954D01*
X268354715Y10998099D01*
X268335616Y10971521D01*
X268333793Y10970698D01*
X268332169Y10971865D01*
X268332354Y10973835D01*
X268410894Y11086001D01*
X268453962Y11178361D01*
X268455601Y11179508D01*
X268457413Y11178663D01*
G37*
G36*
X32713663Y11178663D02*
G01*
X32713838Y11178361D01*
X32756906Y11086001D01*
X32862983Y10934507D01*
X32863158Y10932515D01*
X32861519Y10931368D01*
X32859833Y10932051D01*
X32832257Y10963886D01*
X32832064Y10964150D01*
X32815950Y10990446D01*
X32764368Y11037113D01*
X32696043Y11048436D01*
X32632285Y11020954D01*
X32610965Y10998099D01*
X32591866Y10971521D01*
X32590043Y10970698D01*
X32588419Y10971865D01*
X32588604Y10973835D01*
X32667144Y11086001D01*
X32710212Y11178361D01*
X32711851Y11179508D01*
X32713663Y11178663D01*
G37*
G36*
X244644913Y11178663D02*
G01*
X244645088Y11178361D01*
X244688156Y11086001D01*
X244794233Y10934507D01*
X244794408Y10932515D01*
X244792769Y10931368D01*
X244791083Y10932051D01*
X244763507Y10963886D01*
X244763314Y10964150D01*
X244747200Y10990446D01*
X244695618Y11037113D01*
X244627293Y11048436D01*
X244563535Y11020954D01*
X244542215Y10998099D01*
X244523116Y10971521D01*
X244521293Y10970698D01*
X244519669Y10971865D01*
X244519854Y10973835D01*
X244598394Y11086001D01*
X244641462Y11178361D01*
X244643101Y11179508D01*
X244644913Y11178663D01*
G37*
G36*
X197019913Y11178663D02*
G01*
X197020088Y11178361D01*
X197063156Y11086001D01*
X197169233Y10934507D01*
X197169408Y10932515D01*
X197167769Y10931368D01*
X197166083Y10932051D01*
X197138507Y10963886D01*
X197138314Y10964150D01*
X197122200Y10990446D01*
X197070618Y11037113D01*
X197002293Y11048436D01*
X196938535Y11020954D01*
X196917215Y10998099D01*
X196898116Y10971521D01*
X196896293Y10970698D01*
X196894669Y10971865D01*
X196894854Y10973835D01*
X196973394Y11086001D01*
X197016462Y11178361D01*
X197018101Y11179508D01*
X197019913Y11178663D01*
G37*
G36*
X220832413Y11178663D02*
G01*
X220832588Y11178361D01*
X220875656Y11086001D01*
X220981733Y10934507D01*
X220981908Y10932515D01*
X220980269Y10931368D01*
X220978583Y10932051D01*
X220951007Y10963886D01*
X220950814Y10964150D01*
X220934700Y10990446D01*
X220883118Y11037113D01*
X220814793Y11048436D01*
X220751035Y11020954D01*
X220729715Y10998099D01*
X220710616Y10971521D01*
X220708793Y10970698D01*
X220707169Y10971865D01*
X220707354Y10973835D01*
X220785894Y11086001D01*
X220828962Y11178361D01*
X220830601Y11179508D01*
X220832413Y11178663D01*
G37*
G36*
X221000294Y12588306D02*
G01*
X221000012Y12586598D01*
X220875656Y12408999D01*
X220832588Y12316639D01*
X220830949Y12315492D01*
X220829137Y12316337D01*
X220828962Y12316639D01*
X220785894Y12408999D01*
X220670713Y12573494D01*
X220670538Y12575486D01*
X220672177Y12576633D01*
X220673830Y12575987D01*
X220691078Y12557032D01*
X220691278Y12556772D01*
X220727694Y12500481D01*
X220780400Y12455089D01*
X220848981Y12445440D01*
X220912048Y12474471D01*
X220932803Y12497841D01*
X220990354Y12582208D01*
X220990560Y12582463D01*
X220996928Y12589127D01*
X220998848Y12589688D01*
X221000294Y12588306D01*
G37*
G36*
X9069044Y12588306D02*
G01*
X9068762Y12586598D01*
X8944406Y12408999D01*
X8901338Y12316639D01*
X8899699Y12315492D01*
X8897887Y12316337D01*
X8897712Y12316639D01*
X8854644Y12408999D01*
X8739463Y12573494D01*
X8739288Y12575486D01*
X8740927Y12576633D01*
X8742580Y12575987D01*
X8759828Y12557032D01*
X8760028Y12556772D01*
X8796444Y12500481D01*
X8849150Y12455089D01*
X8917731Y12445440D01*
X8980798Y12474471D01*
X9001553Y12497841D01*
X9059104Y12582208D01*
X9059310Y12582463D01*
X9065678Y12589127D01*
X9067598Y12589688D01*
X9069044Y12588306D01*
G37*
G36*
X197187794Y12588306D02*
G01*
X197187512Y12586598D01*
X197063156Y12408999D01*
X197020088Y12316639D01*
X197018449Y12315492D01*
X197016637Y12316337D01*
X197016462Y12316639D01*
X196973394Y12408999D01*
X196858213Y12573494D01*
X196858038Y12575486D01*
X196859677Y12576633D01*
X196861330Y12575987D01*
X196878578Y12557032D01*
X196878778Y12556772D01*
X196915194Y12500481D01*
X196967900Y12455089D01*
X197036481Y12445440D01*
X197099548Y12474471D01*
X197120303Y12497841D01*
X197177854Y12582208D01*
X197178060Y12582463D01*
X197184428Y12589127D01*
X197186348Y12589688D01*
X197187794Y12588306D01*
G37*
G36*
X32881544Y12588306D02*
G01*
X32881262Y12586598D01*
X32756906Y12408999D01*
X32713838Y12316639D01*
X32712199Y12315492D01*
X32710387Y12316337D01*
X32710212Y12316639D01*
X32667144Y12408999D01*
X32551963Y12573494D01*
X32551788Y12575486D01*
X32553427Y12576633D01*
X32555080Y12575987D01*
X32572328Y12557032D01*
X32572528Y12556772D01*
X32608944Y12500481D01*
X32661650Y12455089D01*
X32730231Y12445440D01*
X32793298Y12474471D01*
X32814053Y12497841D01*
X32871604Y12582208D01*
X32871810Y12582463D01*
X32878178Y12589127D01*
X32880098Y12589688D01*
X32881544Y12588306D01*
G37*
G36*
X268625294Y12588306D02*
G01*
X268625012Y12586598D01*
X268500656Y12408999D01*
X268457588Y12316639D01*
X268455949Y12315492D01*
X268454137Y12316337D01*
X268453962Y12316639D01*
X268410894Y12408999D01*
X268295713Y12573494D01*
X268295538Y12575486D01*
X268297177Y12576633D01*
X268298830Y12575987D01*
X268316078Y12557032D01*
X268316278Y12556772D01*
X268352694Y12500481D01*
X268405400Y12455089D01*
X268473981Y12445440D01*
X268537048Y12474471D01*
X268557803Y12497841D01*
X268615354Y12582208D01*
X268615560Y12582463D01*
X268621928Y12589127D01*
X268623848Y12589688D01*
X268625294Y12588306D01*
G37*
G36*
X56694044Y12588306D02*
G01*
X56693762Y12586598D01*
X56569406Y12408999D01*
X56526338Y12316639D01*
X56524699Y12315492D01*
X56522887Y12316337D01*
X56522712Y12316639D01*
X56479644Y12408999D01*
X56364463Y12573494D01*
X56364288Y12575486D01*
X56365927Y12576633D01*
X56367580Y12575987D01*
X56384828Y12557032D01*
X56385028Y12556772D01*
X56421444Y12500481D01*
X56474150Y12455089D01*
X56542731Y12445440D01*
X56605798Y12474471D01*
X56626553Y12497841D01*
X56684104Y12582208D01*
X56684310Y12582463D01*
X56690678Y12589127D01*
X56692598Y12589688D01*
X56694044Y12588306D01*
G37*
G36*
X244812794Y12588306D02*
G01*
X244812512Y12586598D01*
X244688156Y12408999D01*
X244645088Y12316639D01*
X244643449Y12315492D01*
X244641637Y12316337D01*
X244641462Y12316639D01*
X244598394Y12408999D01*
X244483213Y12573494D01*
X244483038Y12575486D01*
X244484677Y12576633D01*
X244486330Y12575987D01*
X244503578Y12557032D01*
X244503778Y12556772D01*
X244540194Y12500481D01*
X244592900Y12455089D01*
X244661481Y12445440D01*
X244724548Y12474471D01*
X244745303Y12497841D01*
X244802854Y12582208D01*
X244803060Y12582463D01*
X244809428Y12589127D01*
X244811348Y12589688D01*
X244812794Y12588306D01*
G37*
G36*
X271006544Y12588306D02*
G01*
X271006262Y12586598D01*
X270881906Y12408999D01*
X270838838Y12316639D01*
X270837199Y12315492D01*
X270835387Y12316337D01*
X270835212Y12316639D01*
X270792144Y12408999D01*
X270676963Y12573494D01*
X270676788Y12575486D01*
X270678427Y12576633D01*
X270680080Y12575987D01*
X270697328Y12557032D01*
X270697528Y12556772D01*
X270733944Y12500481D01*
X270786650Y12455089D01*
X270855231Y12445440D01*
X270918298Y12474471D01*
X270939053Y12497841D01*
X270996604Y12582208D01*
X270996810Y12582463D01*
X271003178Y12589127D01*
X271005098Y12589688D01*
X271006544Y12588306D01*
G37*
G36*
X222085779Y13277512D02*
G01*
X222085601Y13276032D01*
X222052059Y13214859D01*
X222056879Y13145770D01*
X222098320Y13090209D01*
X222150781Y13067389D01*
X222197215Y13059118D01*
X222198745Y13057830D01*
X222198394Y13055861D01*
X222196690Y13055157D01*
X222021400Y13070493D01*
X221791668Y13050394D01*
X221568910Y12990706D01*
X221359901Y12893244D01*
X221170996Y12760971D01*
X221073716Y12663691D01*
X221071784Y12663173D01*
X221070370Y12664587D01*
X221070856Y12666487D01*
X221140534Y12739400D01*
X221140779Y12739617D01*
X221152385Y12748331D01*
X221193991Y12804075D01*
X221198834Y12873163D01*
X221165555Y12933902D01*
X221104536Y12967108D01*
X221083192Y12969784D01*
X221070744Y12970240D01*
X221070418Y12970279D01*
X221036077Y12977266D01*
X221034579Y12978591D01*
X221034978Y12980551D01*
X221036650Y12981218D01*
X221227650Y12964507D01*
X221457382Y12984606D01*
X221680140Y13044294D01*
X221889149Y13141756D01*
X222078054Y13274029D01*
X222082433Y13278408D01*
X222084365Y13278926D01*
X222085779Y13277512D01*
G37*
G36*
X138742029Y13277512D02*
G01*
X138741851Y13276032D01*
X138708309Y13214859D01*
X138713129Y13145770D01*
X138754570Y13090209D01*
X138807031Y13067389D01*
X138853465Y13059118D01*
X138854995Y13057830D01*
X138854644Y13055861D01*
X138852940Y13055157D01*
X138677650Y13070493D01*
X138447918Y13050394D01*
X138225160Y12990706D01*
X138016151Y12893244D01*
X137827246Y12760971D01*
X137729977Y12663702D01*
X137728045Y12663184D01*
X137726631Y12664598D01*
X137727117Y12666498D01*
X137796784Y12739400D01*
X137797029Y12739617D01*
X137808635Y12748331D01*
X137850241Y12804075D01*
X137855084Y12873163D01*
X137821805Y12933902D01*
X137760786Y12967108D01*
X137739442Y12969784D01*
X137726994Y12970240D01*
X137726668Y12970279D01*
X137692327Y12977266D01*
X137690829Y12978591D01*
X137691228Y12980551D01*
X137692900Y12981218D01*
X137883900Y12964507D01*
X138113632Y12984606D01*
X138336390Y13044294D01*
X138545399Y13141756D01*
X138734304Y13274029D01*
X138738683Y13278408D01*
X138740615Y13278926D01*
X138742029Y13277512D01*
G37*
G36*
X253042029Y13277512D02*
G01*
X253041851Y13276032D01*
X253008309Y13214859D01*
X253013129Y13145770D01*
X253054570Y13090209D01*
X253107031Y13067389D01*
X253153465Y13059118D01*
X253154995Y13057830D01*
X253154644Y13055861D01*
X253152940Y13055157D01*
X252977650Y13070493D01*
X252747918Y13050394D01*
X252525160Y12990706D01*
X252316151Y12893244D01*
X252127246Y12760971D01*
X252029977Y12663702D01*
X252028045Y12663184D01*
X252026631Y12664598D01*
X252027117Y12666498D01*
X252096784Y12739400D01*
X252097029Y12739617D01*
X252108635Y12748331D01*
X252150241Y12804075D01*
X252155084Y12873163D01*
X252121805Y12933902D01*
X252060786Y12967108D01*
X252039442Y12969784D01*
X252026994Y12970240D01*
X252026668Y12970279D01*
X251992327Y12977266D01*
X251990829Y12978591D01*
X251991228Y12980551D01*
X251992900Y12981218D01*
X252183900Y12964507D01*
X252413632Y12984606D01*
X252636390Y13044294D01*
X252845399Y13141756D01*
X253034304Y13274029D01*
X253038683Y13278408D01*
X253040615Y13278926D01*
X253042029Y13277512D01*
G37*
G36*
X203369913Y13718663D02*
G01*
X203370088Y13718361D01*
X203413156Y13626001D01*
X203519233Y13474507D01*
X203519408Y13472515D01*
X203517769Y13471368D01*
X203516083Y13472051D01*
X203488507Y13503886D01*
X203488314Y13504150D01*
X203472200Y13530446D01*
X203420618Y13577113D01*
X203352293Y13588436D01*
X203288535Y13560954D01*
X203267215Y13538099D01*
X203248116Y13511521D01*
X203246293Y13510698D01*
X203244669Y13511865D01*
X203244854Y13513835D01*
X203323394Y13626001D01*
X203366462Y13718361D01*
X203368101Y13719508D01*
X203369913Y13718663D01*
G37*
G36*
X62876163Y13718663D02*
G01*
X62876338Y13718361D01*
X62919406Y13626001D01*
X63025483Y13474507D01*
X63025658Y13472515D01*
X63024019Y13471368D01*
X63022333Y13472051D01*
X62994757Y13503886D01*
X62994564Y13504150D01*
X62978450Y13530446D01*
X62926868Y13577113D01*
X62858543Y13588436D01*
X62794785Y13560954D01*
X62773465Y13538099D01*
X62754366Y13511521D01*
X62752543Y13510698D01*
X62750919Y13511865D01*
X62751104Y13513835D01*
X62829644Y13626001D01*
X62872712Y13718361D01*
X62874351Y13719508D01*
X62876163Y13718663D01*
G37*
G36*
X15251163Y13718663D02*
G01*
X15251338Y13718361D01*
X15294406Y13626001D01*
X15400483Y13474507D01*
X15400658Y13472515D01*
X15399019Y13471368D01*
X15397333Y13472051D01*
X15369757Y13503886D01*
X15369564Y13504150D01*
X15353450Y13530446D01*
X15301868Y13577113D01*
X15233543Y13588436D01*
X15169785Y13560954D01*
X15148465Y13538099D01*
X15129366Y13511521D01*
X15127543Y13510698D01*
X15125919Y13511865D01*
X15126104Y13513835D01*
X15204644Y13626001D01*
X15247712Y13718361D01*
X15249351Y13719508D01*
X15251163Y13718663D01*
G37*
G36*
X277188663Y13718663D02*
G01*
X277188838Y13718361D01*
X277231906Y13626001D01*
X277337983Y13474507D01*
X277338158Y13472515D01*
X277336519Y13471368D01*
X277334833Y13472051D01*
X277307257Y13503886D01*
X277307064Y13504150D01*
X277290950Y13530446D01*
X277239368Y13577113D01*
X277171043Y13588436D01*
X277107285Y13560954D01*
X277085965Y13538099D01*
X277066866Y13511521D01*
X277065043Y13510698D01*
X277063419Y13511865D01*
X277063604Y13513835D01*
X277142144Y13626001D01*
X277185212Y13718361D01*
X277186851Y13719508D01*
X277188663Y13718663D01*
G37*
G36*
X250994913Y13718663D02*
G01*
X250995088Y13718361D01*
X251038156Y13626001D01*
X251144233Y13474507D01*
X251144408Y13472515D01*
X251142769Y13471368D01*
X251141083Y13472051D01*
X251113507Y13503886D01*
X251113314Y13504150D01*
X251097200Y13530446D01*
X251045618Y13577113D01*
X250977293Y13588436D01*
X250913535Y13560954D01*
X250892215Y13538099D01*
X250873116Y13511521D01*
X250871293Y13510698D01*
X250869669Y13511865D01*
X250869854Y13513835D01*
X250948394Y13626001D01*
X250991462Y13718361D01*
X250993101Y13719508D01*
X250994913Y13718663D01*
G37*
G36*
X274807413Y13718663D02*
G01*
X274807588Y13718361D01*
X274850656Y13626001D01*
X274956733Y13474507D01*
X274956908Y13472515D01*
X274955269Y13471368D01*
X274953583Y13472051D01*
X274926007Y13503886D01*
X274925814Y13504150D01*
X274909700Y13530446D01*
X274858118Y13577113D01*
X274789793Y13588436D01*
X274726035Y13560954D01*
X274704715Y13538099D01*
X274685616Y13511521D01*
X274683793Y13510698D01*
X274682169Y13511865D01*
X274682354Y13513835D01*
X274760894Y13626001D01*
X274803962Y13718361D01*
X274805601Y13719508D01*
X274807413Y13718663D01*
G37*
G36*
X39063663Y13718663D02*
G01*
X39063838Y13718361D01*
X39106906Y13626001D01*
X39212983Y13474507D01*
X39213158Y13472515D01*
X39211519Y13471368D01*
X39209833Y13472051D01*
X39182257Y13503886D01*
X39182064Y13504150D01*
X39165950Y13530446D01*
X39114368Y13577113D01*
X39046043Y13588436D01*
X38982285Y13560954D01*
X38960965Y13538099D01*
X38941866Y13511521D01*
X38940043Y13510698D01*
X38938419Y13511865D01*
X38938604Y13513835D01*
X39017144Y13626001D01*
X39060212Y13718361D01*
X39061851Y13719508D01*
X39063663Y13718663D01*
G37*
G36*
X227182413Y13718663D02*
G01*
X227182588Y13718361D01*
X227225656Y13626001D01*
X227331733Y13474507D01*
X227331908Y13472515D01*
X227330269Y13471368D01*
X227328583Y13472051D01*
X227301007Y13503886D01*
X227300814Y13504150D01*
X227284700Y13530446D01*
X227233118Y13577113D01*
X227164793Y13588436D01*
X227101035Y13560954D01*
X227079715Y13538099D01*
X227060616Y13511521D01*
X227058793Y13510698D01*
X227057169Y13511865D01*
X227057354Y13513835D01*
X227135894Y13626001D01*
X227178962Y13718361D01*
X227180601Y13719508D01*
X227182413Y13718663D01*
G37*
G36*
X63044044Y15128306D02*
G01*
X63043762Y15126598D01*
X62919406Y14948999D01*
X62876338Y14856639D01*
X62874699Y14855492D01*
X62872887Y14856337D01*
X62872712Y14856639D01*
X62829644Y14948999D01*
X62714463Y15113494D01*
X62714288Y15115486D01*
X62715927Y15116633D01*
X62717580Y15115987D01*
X62734828Y15097032D01*
X62735028Y15096772D01*
X62771444Y15040481D01*
X62824150Y14995089D01*
X62892731Y14985440D01*
X62955798Y15014471D01*
X62976553Y15037841D01*
X63034104Y15122208D01*
X63034310Y15122463D01*
X63040678Y15129127D01*
X63042598Y15129688D01*
X63044044Y15128306D01*
G37*
G36*
X15419044Y15128306D02*
G01*
X15418762Y15126598D01*
X15294406Y14948999D01*
X15251338Y14856639D01*
X15249699Y14855492D01*
X15247887Y14856337D01*
X15247712Y14856639D01*
X15204644Y14948999D01*
X15089463Y15113494D01*
X15089288Y15115486D01*
X15090927Y15116633D01*
X15092580Y15115987D01*
X15109828Y15097032D01*
X15110028Y15096772D01*
X15146444Y15040481D01*
X15199150Y14995089D01*
X15267731Y14985440D01*
X15330798Y15014471D01*
X15351553Y15037841D01*
X15409104Y15122208D01*
X15409310Y15122463D01*
X15415678Y15129127D01*
X15417598Y15129688D01*
X15419044Y15128306D01*
G37*
G36*
X39231544Y15128306D02*
G01*
X39231262Y15126598D01*
X39106906Y14948999D01*
X39063838Y14856639D01*
X39062199Y14855492D01*
X39060387Y14856337D01*
X39060212Y14856639D01*
X39017144Y14948999D01*
X38901963Y15113494D01*
X38901788Y15115486D01*
X38903427Y15116633D01*
X38905080Y15115987D01*
X38922328Y15097032D01*
X38922528Y15096772D01*
X38958944Y15040481D01*
X39011650Y14995089D01*
X39080231Y14985440D01*
X39143298Y15014471D01*
X39164053Y15037841D01*
X39221604Y15122208D01*
X39221810Y15122463D01*
X39228178Y15129127D01*
X39230098Y15129688D01*
X39231544Y15128306D01*
G37*
G36*
X203537794Y15128306D02*
G01*
X203537512Y15126598D01*
X203413156Y14948999D01*
X203370088Y14856639D01*
X203368449Y14855492D01*
X203366637Y14856337D01*
X203366462Y14856639D01*
X203323394Y14948999D01*
X203208213Y15113494D01*
X203208038Y15115486D01*
X203209677Y15116633D01*
X203211330Y15115987D01*
X203228578Y15097032D01*
X203228778Y15096772D01*
X203265194Y15040481D01*
X203317900Y14995089D01*
X203386481Y14985440D01*
X203449548Y15014471D01*
X203470303Y15037841D01*
X203527854Y15122208D01*
X203528060Y15122463D01*
X203534428Y15129127D01*
X203536348Y15129688D01*
X203537794Y15128306D01*
G37*
G36*
X227350294Y15128306D02*
G01*
X227350012Y15126598D01*
X227225656Y14948999D01*
X227182588Y14856639D01*
X227180949Y14855492D01*
X227179137Y14856337D01*
X227178962Y14856639D01*
X227135894Y14948999D01*
X227020713Y15113494D01*
X227020538Y15115486D01*
X227022177Y15116633D01*
X227023830Y15115987D01*
X227041078Y15097032D01*
X227041278Y15096772D01*
X227077694Y15040481D01*
X227130400Y14995089D01*
X227198981Y14985440D01*
X227262048Y15014471D01*
X227282803Y15037841D01*
X227340354Y15122208D01*
X227340560Y15122463D01*
X227346928Y15129127D01*
X227348848Y15129688D01*
X227350294Y15128306D01*
G37*
G36*
X251162794Y15128306D02*
G01*
X251162512Y15126598D01*
X251038156Y14948999D01*
X250995088Y14856639D01*
X250993449Y14855492D01*
X250991637Y14856337D01*
X250991462Y14856639D01*
X250948394Y14948999D01*
X250833213Y15113494D01*
X250833038Y15115486D01*
X250834677Y15116633D01*
X250836330Y15115987D01*
X250853578Y15097032D01*
X250853778Y15096772D01*
X250890194Y15040481D01*
X250942900Y14995089D01*
X251011481Y14985440D01*
X251074548Y15014471D01*
X251095303Y15037841D01*
X251152854Y15122208D01*
X251153060Y15122463D01*
X251159428Y15129127D01*
X251161348Y15129688D01*
X251162794Y15128306D01*
G37*
G36*
X274975294Y15128306D02*
G01*
X274975012Y15126598D01*
X274850656Y14948999D01*
X274807588Y14856639D01*
X274805949Y14855492D01*
X274804137Y14856337D01*
X274803962Y14856639D01*
X274760894Y14948999D01*
X274645713Y15113494D01*
X274645538Y15115486D01*
X274647177Y15116633D01*
X274648830Y15115987D01*
X274666078Y15097032D01*
X274666278Y15096772D01*
X274702694Y15040481D01*
X274755400Y14995089D01*
X274823981Y14985440D01*
X274887048Y15014471D01*
X274907803Y15037841D01*
X274965354Y15122208D01*
X274965560Y15122463D01*
X274971928Y15129127D01*
X274973848Y15129688D01*
X274975294Y15128306D01*
G37*
G36*
X277356544Y15128306D02*
G01*
X277356262Y15126598D01*
X277231906Y14948999D01*
X277188838Y14856639D01*
X277187199Y14855492D01*
X277185387Y14856337D01*
X277185212Y14856639D01*
X277142144Y14948999D01*
X277026963Y15113494D01*
X277026788Y15115486D01*
X277028427Y15116633D01*
X277030080Y15115987D01*
X277047328Y15097032D01*
X277047528Y15096772D01*
X277083944Y15040481D01*
X277136650Y14995089D01*
X277205231Y14985440D01*
X277268298Y15014471D01*
X277289053Y15037841D01*
X277346604Y15122208D01*
X277346810Y15122463D01*
X277353178Y15129127D01*
X277355098Y15129688D01*
X277356544Y15128306D01*
G37*
G36*
X170440123Y15353259D02*
G01*
X170441442Y15351755D01*
X170440799Y15349861D01*
X170440627Y15349727D01*
X170370996Y15300971D01*
X170273715Y15203690D01*
X170271783Y15203172D01*
X170270369Y15204586D01*
X170270855Y15206486D01*
X170281917Y15218062D01*
X170313860Y15279852D01*
X170307353Y15348803D01*
X170264510Y15403408D01*
X170234099Y15418994D01*
X170233013Y15420674D01*
X170233926Y15422454D01*
X170235654Y15422668D01*
X170440123Y15353259D01*
G37*
G36*
X103785856Y15367777D02*
G01*
X103787175Y15366273D01*
X103786532Y15364379D01*
X103786360Y15364245D01*
X103695996Y15300971D01*
X103598720Y15203695D01*
X103596788Y15203177D01*
X103595374Y15204591D01*
X103595860Y15206491D01*
X103622470Y15234337D01*
X103654413Y15296127D01*
X103647906Y15365078D01*
X103605063Y15419683D01*
X103585905Y15429503D01*
X103584819Y15431183D01*
X103584824Y15431207D01*
X103580888Y15433148D01*
X103579777Y15434811D01*
X103580662Y15436605D01*
X103582416Y15436836D01*
X103785856Y15367777D01*
G37*
G36*
X105414296Y15513315D02*
G01*
X105415181Y15511521D01*
X105414539Y15510180D01*
X105363836Y15463535D01*
X105346308Y15396530D01*
X105367833Y15330553D01*
X105379912Y15317629D01*
X105380364Y15315680D01*
X105378903Y15314315D01*
X105377304Y15314625D01*
X105223507Y15422315D01*
X105222662Y15424127D01*
X105223809Y15425766D01*
X105224011Y15425847D01*
X105258200Y15437452D01*
X105412300Y15513446D01*
X105414296Y15513315D01*
G37*
G36*
X172064888Y15532593D02*
G01*
X172065773Y15530799D01*
X172065131Y15529458D01*
X172014427Y15482812D01*
X171996899Y15415807D01*
X172018424Y15349830D01*
X172036415Y15330581D01*
X172036867Y15328632D01*
X172035406Y15327267D01*
X172033807Y15327577D01*
X171882899Y15433244D01*
X171875509Y15436690D01*
X171874362Y15438329D01*
X171875207Y15440141D01*
X171875469Y15440297D01*
X172062892Y15532724D01*
X172064888Y15532593D01*
G37*
G36*
X32135143Y22026000D02*
G01*
X32135143Y22024000D01*
X32134296Y22023206D01*
X31885949Y21900735D01*
X31727908Y21795136D01*
X31725912Y21795005D01*
X31724801Y21796668D01*
X31725262Y21798082D01*
X31769442Y21850946D01*
X31778074Y21919661D01*
X31748183Y21982137D01*
X31689121Y22018621D01*
X31656474Y22023018D01*
X31654891Y22024240D01*
X31655158Y22026222D01*
X31656741Y22027000D01*
X32133411Y22027000D01*
X32135143Y22026000D01*
G37*
G36*
X248557788Y22026000D02*
G01*
X248557788Y22024000D01*
X248556619Y22023081D01*
X248489607Y22003405D01*
X248444252Y21951062D01*
X248434395Y21882509D01*
X248463233Y21819364D01*
X248486431Y21798897D01*
X248487068Y21797001D01*
X248485745Y21795501D01*
X248483997Y21795734D01*
X248326851Y21900735D01*
X248078504Y22023206D01*
X248077393Y22024869D01*
X248078278Y22026663D01*
X248079389Y22027000D01*
X248556056Y22027000D01*
X248557788Y22026000D01*
G37*
G36*
X10432788Y22026000D02*
G01*
X10432788Y22024000D01*
X10431619Y22023081D01*
X10364607Y22003405D01*
X10319252Y21951062D01*
X10309395Y21882509D01*
X10338233Y21819364D01*
X10361431Y21798897D01*
X10362068Y21797001D01*
X10360745Y21795501D01*
X10358997Y21795734D01*
X10201851Y21900735D01*
X9953504Y22023206D01*
X9952393Y22024869D01*
X9953278Y22026663D01*
X9954389Y22027000D01*
X10431056Y22027000D01*
X10432788Y22026000D01*
G37*
G36*
X33391136Y22385674D02*
G01*
X33496125Y22283398D01*
X33671182Y22166429D01*
X33864629Y22083317D01*
X34069985Y22036851D01*
X34274823Y22028802D01*
X34276514Y22027735D01*
X34276435Y22025737D01*
X34275473Y22024941D01*
X34221785Y22003941D01*
X34181166Y21947846D01*
X34177323Y21878694D01*
X34211576Y21818263D01*
X34226492Y21806218D01*
X34227211Y21804352D01*
X34225954Y21802796D01*
X34224124Y21802999D01*
X34077851Y21900735D01*
X33820700Y22027548D01*
X33549206Y22119708D01*
X33275393Y22174173D01*
X33273889Y22175492D01*
X33274279Y22177454D01*
X33275605Y22178127D01*
X33344223Y22184267D01*
X33398917Y22226754D01*
X33421960Y22292067D01*
X33405996Y22359625D01*
X33388150Y22383028D01*
X33387895Y22385012D01*
X33389485Y22386225D01*
X33391136Y22385674D01*
G37*
G36*
X52141560Y23395816D02*
G01*
X52142132Y23394167D01*
X52120053Y23207619D01*
X52132212Y23022100D01*
X52131327Y23020306D01*
X52129331Y23020175D01*
X52128353Y23021240D01*
X52104866Y23081288D01*
X52048772Y23121908D01*
X51979620Y23125752D01*
X51919368Y23091601D01*
X51887052Y23030120D01*
X51884640Y23005878D01*
X51883474Y23004253D01*
X51881483Y23004451D01*
X51880650Y23006076D01*
X51880650Y23348919D01*
X51881650Y23350651D01*
X51883650Y23350651D01*
X51884569Y23349482D01*
X51904245Y23282470D01*
X51956588Y23237115D01*
X52025141Y23227258D01*
X52088139Y23256029D01*
X52125691Y23314461D01*
X52130188Y23338301D01*
X52133637Y23377717D01*
X52133697Y23378061D01*
X52138214Y23394920D01*
X52139628Y23396334D01*
X52141560Y23395816D01*
G37*
G36*
X71191560Y23395816D02*
G01*
X71192132Y23394167D01*
X71170053Y23207619D01*
X71182212Y23022100D01*
X71181327Y23020306D01*
X71179331Y23020175D01*
X71178353Y23021240D01*
X71154866Y23081288D01*
X71098772Y23121908D01*
X71029620Y23125752D01*
X70969368Y23091601D01*
X70937052Y23030120D01*
X70934640Y23005878D01*
X70933474Y23004253D01*
X70931483Y23004451D01*
X70930650Y23006076D01*
X70930650Y23348919D01*
X70931650Y23350651D01*
X70933650Y23350651D01*
X70934569Y23349482D01*
X70954245Y23282470D01*
X71006588Y23237115D01*
X71075141Y23227258D01*
X71138139Y23256029D01*
X71175691Y23314461D01*
X71180188Y23338301D01*
X71183637Y23377717D01*
X71183697Y23378061D01*
X71188214Y23394920D01*
X71189628Y23396334D01*
X71191560Y23395816D01*
G37*
G36*
X11660310Y23395816D02*
G01*
X11660882Y23394167D01*
X11638803Y23207619D01*
X11650962Y23022100D01*
X11650077Y23020306D01*
X11648081Y23020175D01*
X11647103Y23021240D01*
X11623616Y23081288D01*
X11567522Y23121908D01*
X11498370Y23125752D01*
X11438118Y23091601D01*
X11405802Y23030120D01*
X11403390Y23005878D01*
X11402224Y23004253D01*
X11400233Y23004451D01*
X11399400Y23006076D01*
X11399400Y23348919D01*
X11400400Y23350651D01*
X11402400Y23350651D01*
X11403319Y23349482D01*
X11422995Y23282470D01*
X11475338Y23237115D01*
X11543891Y23227258D01*
X11606889Y23256029D01*
X11644441Y23314461D01*
X11648938Y23338301D01*
X11652387Y23377717D01*
X11652447Y23378061D01*
X11656964Y23394920D01*
X11658378Y23396334D01*
X11660310Y23395816D01*
G37*
G36*
X223591560Y23395816D02*
G01*
X223592132Y23394167D01*
X223570053Y23207619D01*
X223582212Y23022100D01*
X223581327Y23020306D01*
X223579331Y23020175D01*
X223578353Y23021240D01*
X223554866Y23081288D01*
X223498772Y23121908D01*
X223429620Y23125752D01*
X223369368Y23091601D01*
X223337052Y23030120D01*
X223334640Y23005878D01*
X223333474Y23004253D01*
X223331483Y23004451D01*
X223330650Y23006076D01*
X223330650Y23348919D01*
X223331650Y23350651D01*
X223333650Y23350651D01*
X223334569Y23349482D01*
X223354245Y23282470D01*
X223406588Y23237115D01*
X223475141Y23227258D01*
X223538139Y23256029D01*
X223575691Y23314461D01*
X223580188Y23338301D01*
X223583637Y23377717D01*
X223583697Y23378061D01*
X223588214Y23394920D01*
X223589628Y23396334D01*
X223591560Y23395816D01*
G37*
G36*
X204541560Y23395816D02*
G01*
X204542132Y23394167D01*
X204520053Y23207619D01*
X204532212Y23022100D01*
X204531327Y23020306D01*
X204529331Y23020175D01*
X204528353Y23021240D01*
X204504866Y23081288D01*
X204448772Y23121908D01*
X204379620Y23125752D01*
X204319368Y23091601D01*
X204287052Y23030120D01*
X204284640Y23005878D01*
X204283474Y23004253D01*
X204281483Y23004451D01*
X204280650Y23006076D01*
X204280650Y23348919D01*
X204281650Y23350651D01*
X204283650Y23350651D01*
X204284569Y23349482D01*
X204304245Y23282470D01*
X204356588Y23237115D01*
X204425141Y23227258D01*
X204488139Y23256029D01*
X204525691Y23314461D01*
X204530188Y23338301D01*
X204533637Y23377717D01*
X204533697Y23378061D01*
X204538214Y23394920D01*
X204539628Y23396334D01*
X204541560Y23395816D01*
G37*
G36*
X90241560Y23395816D02*
G01*
X90242132Y23394167D01*
X90220053Y23207619D01*
X90232212Y23022100D01*
X90231327Y23020306D01*
X90229331Y23020175D01*
X90228353Y23021240D01*
X90204866Y23081288D01*
X90148772Y23121908D01*
X90079620Y23125752D01*
X90019368Y23091601D01*
X89987052Y23030120D01*
X89984640Y23005878D01*
X89983474Y23004253D01*
X89981483Y23004451D01*
X89980650Y23006076D01*
X89980650Y23348919D01*
X89981650Y23350651D01*
X89983650Y23350651D01*
X89984569Y23349482D01*
X90004245Y23282470D01*
X90056588Y23237115D01*
X90125141Y23227258D01*
X90188139Y23256029D01*
X90225691Y23314461D01*
X90230188Y23338301D01*
X90233637Y23377717D01*
X90233697Y23378061D01*
X90238214Y23394920D01*
X90239628Y23396334D01*
X90241560Y23395816D01*
G37*
G36*
X275979060Y23395816D02*
G01*
X275979632Y23394167D01*
X275957553Y23207619D01*
X275969712Y23022100D01*
X275968827Y23020306D01*
X275966831Y23020175D01*
X275965853Y23021240D01*
X275942366Y23081288D01*
X275886272Y23121908D01*
X275817120Y23125752D01*
X275756868Y23091601D01*
X275724552Y23030120D01*
X275722140Y23005878D01*
X275720974Y23004253D01*
X275718983Y23004451D01*
X275718150Y23006076D01*
X275718150Y23348919D01*
X275719150Y23350651D01*
X275721150Y23350651D01*
X275722069Y23349482D01*
X275741745Y23282470D01*
X275794088Y23237115D01*
X275862641Y23227258D01*
X275925639Y23256029D01*
X275963191Y23314461D01*
X275967688Y23338301D01*
X275971137Y23377717D01*
X275971197Y23378061D01*
X275975714Y23394920D01*
X275977128Y23396334D01*
X275979060Y23395816D01*
G37*
G36*
X249785310Y23395816D02*
G01*
X249785882Y23394167D01*
X249763803Y23207619D01*
X249775962Y23022100D01*
X249775077Y23020306D01*
X249773081Y23020175D01*
X249772103Y23021240D01*
X249748616Y23081288D01*
X249692522Y23121908D01*
X249623370Y23125752D01*
X249563118Y23091601D01*
X249530802Y23030120D01*
X249528390Y23005878D01*
X249527224Y23004253D01*
X249525233Y23004451D01*
X249524400Y23006076D01*
X249524400Y23348919D01*
X249525400Y23350651D01*
X249527400Y23350651D01*
X249528319Y23349482D01*
X249547995Y23282470D01*
X249600338Y23237115D01*
X249668891Y23227258D01*
X249731889Y23256029D01*
X249769441Y23314461D01*
X249773938Y23338301D01*
X249777387Y23377717D01*
X249777447Y23378061D01*
X249781964Y23394920D01*
X249783378Y23396334D01*
X249785310Y23395816D01*
G37*
G36*
X33091560Y23395816D02*
G01*
X33092132Y23394167D01*
X33070053Y23207619D01*
X33082212Y23022100D01*
X33081327Y23020306D01*
X33079331Y23020175D01*
X33078353Y23021240D01*
X33054866Y23081288D01*
X32998772Y23121908D01*
X32929620Y23125752D01*
X32869368Y23091601D01*
X32837052Y23030120D01*
X32834640Y23005878D01*
X32833474Y23004253D01*
X32831483Y23004451D01*
X32830650Y23006076D01*
X32830650Y23348919D01*
X32831650Y23350651D01*
X32833650Y23350651D01*
X32834569Y23349482D01*
X32854245Y23282470D01*
X32906588Y23237115D01*
X32975141Y23227258D01*
X33038139Y23256029D01*
X33075691Y23314461D01*
X33080188Y23338301D01*
X33083637Y23377717D01*
X33083697Y23378061D01*
X33088214Y23394920D01*
X33089628Y23396334D01*
X33091560Y23395816D01*
G37*
G36*
X109291560Y23395816D02*
G01*
X109292132Y23394167D01*
X109270053Y23207619D01*
X109282212Y23022100D01*
X109281327Y23020306D01*
X109279331Y23020175D01*
X109278353Y23021240D01*
X109254866Y23081288D01*
X109198772Y23121908D01*
X109129620Y23125752D01*
X109069368Y23091601D01*
X109037052Y23030120D01*
X109034640Y23005878D01*
X109033474Y23004253D01*
X109031483Y23004451D01*
X109030650Y23006076D01*
X109030650Y23348919D01*
X109031650Y23350651D01*
X109033650Y23350651D01*
X109034569Y23349482D01*
X109054245Y23282470D01*
X109106588Y23237115D01*
X109175141Y23227258D01*
X109238139Y23256029D01*
X109275691Y23314461D01*
X109280188Y23338301D01*
X109283637Y23377717D01*
X109283697Y23378061D01*
X109288214Y23394920D01*
X109289628Y23396334D01*
X109291560Y23395816D01*
G37*
G36*
X259310310Y23395816D02*
G01*
X259310882Y23394167D01*
X259288803Y23207619D01*
X259300962Y23022100D01*
X259300077Y23020306D01*
X259298081Y23020175D01*
X259297103Y23021240D01*
X259273616Y23081288D01*
X259217522Y23121908D01*
X259148370Y23125752D01*
X259088118Y23091601D01*
X259055802Y23030120D01*
X259053390Y23005878D01*
X259052224Y23004253D01*
X259050233Y23004451D01*
X259049400Y23006076D01*
X259049400Y23348919D01*
X259050400Y23350651D01*
X259052400Y23350651D01*
X259053319Y23349482D01*
X259072995Y23282470D01*
X259125338Y23237115D01*
X259193891Y23227258D01*
X259256889Y23256029D01*
X259294441Y23314461D01*
X259298938Y23338301D01*
X259302387Y23377717D01*
X259302447Y23378061D01*
X259306964Y23394920D01*
X259308378Y23396334D01*
X259310310Y23395816D01*
G37*
G36*
X21185310Y23395816D02*
G01*
X21185882Y23394167D01*
X21163803Y23207619D01*
X21175962Y23022100D01*
X21175077Y23020306D01*
X21173081Y23020175D01*
X21172103Y23021240D01*
X21148616Y23081288D01*
X21092522Y23121908D01*
X21023370Y23125752D01*
X20963118Y23091601D01*
X20930802Y23030120D01*
X20928390Y23005878D01*
X20927224Y23004253D01*
X20925233Y23004451D01*
X20924400Y23006076D01*
X20924400Y23348919D01*
X20925400Y23350651D01*
X20927400Y23350651D01*
X20928319Y23349482D01*
X20947995Y23282470D01*
X21000338Y23237115D01*
X21068891Y23227258D01*
X21131889Y23256029D01*
X21169441Y23314461D01*
X21173938Y23338301D01*
X21177387Y23377717D01*
X21177447Y23378061D01*
X21181964Y23394920D01*
X21183378Y23396334D01*
X21185310Y23395816D01*
G37*
G36*
X128341560Y23395816D02*
G01*
X128342132Y23394167D01*
X128320053Y23207619D01*
X128332212Y23022100D01*
X128331327Y23020306D01*
X128329331Y23020175D01*
X128328353Y23021240D01*
X128304866Y23081288D01*
X128248772Y23121908D01*
X128179620Y23125752D01*
X128119368Y23091601D01*
X128087052Y23030120D01*
X128084640Y23005878D01*
X128083474Y23004253D01*
X128081483Y23004451D01*
X128080650Y23006076D01*
X128080650Y23348919D01*
X128081650Y23350651D01*
X128083650Y23350651D01*
X128084569Y23349482D01*
X128104245Y23282470D01*
X128156588Y23237115D01*
X128225141Y23227258D01*
X128288139Y23256029D01*
X128325691Y23314461D01*
X128330188Y23338301D01*
X128333637Y23377717D01*
X128333697Y23378061D01*
X128338214Y23394920D01*
X128339628Y23396334D01*
X128341560Y23395816D01*
G37*
G36*
X185491560Y23395816D02*
G01*
X185492132Y23394167D01*
X185470053Y23207619D01*
X185482212Y23022100D01*
X185481327Y23020306D01*
X185479331Y23020175D01*
X185478353Y23021240D01*
X185454866Y23081288D01*
X185398772Y23121908D01*
X185329620Y23125752D01*
X185269368Y23091601D01*
X185237052Y23030120D01*
X185234640Y23005878D01*
X185233474Y23004253D01*
X185231483Y23004451D01*
X185230650Y23006076D01*
X185230650Y23348919D01*
X185231650Y23350651D01*
X185233650Y23350651D01*
X185234569Y23349482D01*
X185254245Y23282470D01*
X185306588Y23237115D01*
X185375141Y23227258D01*
X185438139Y23256029D01*
X185475691Y23314461D01*
X185480188Y23338301D01*
X185483637Y23377717D01*
X185483697Y23378061D01*
X185488214Y23394920D01*
X185489628Y23396334D01*
X185491560Y23395816D01*
G37*
G36*
X147391560Y23395816D02*
G01*
X147392132Y23394167D01*
X147370053Y23207619D01*
X147382212Y23022100D01*
X147381327Y23020306D01*
X147379331Y23020175D01*
X147378353Y23021240D01*
X147354866Y23081288D01*
X147298772Y23121908D01*
X147229620Y23125752D01*
X147169368Y23091601D01*
X147137052Y23030120D01*
X147134640Y23005878D01*
X147133474Y23004253D01*
X147131483Y23004451D01*
X147130650Y23006076D01*
X147130650Y23348919D01*
X147131650Y23350651D01*
X147133650Y23350651D01*
X147134569Y23349482D01*
X147154245Y23282470D01*
X147206588Y23237115D01*
X147275141Y23227258D01*
X147338139Y23256029D01*
X147375691Y23314461D01*
X147380188Y23338301D01*
X147383637Y23377717D01*
X147383697Y23378061D01*
X147388214Y23394920D01*
X147389628Y23396334D01*
X147391560Y23395816D01*
G37*
G36*
X166441560Y23395816D02*
G01*
X166442132Y23394167D01*
X166420053Y23207619D01*
X166432212Y23022100D01*
X166431327Y23020306D01*
X166429331Y23020175D01*
X166428353Y23021240D01*
X166404866Y23081288D01*
X166348772Y23121908D01*
X166279620Y23125752D01*
X166219368Y23091601D01*
X166187052Y23030120D01*
X166184640Y23005878D01*
X166183474Y23004253D01*
X166181483Y23004451D01*
X166180650Y23006076D01*
X166180650Y23348919D01*
X166181650Y23350651D01*
X166183650Y23350651D01*
X166184569Y23349482D01*
X166204245Y23282470D01*
X166256588Y23237115D01*
X166325141Y23227258D01*
X166388139Y23256029D01*
X166425691Y23314461D01*
X166430188Y23338301D01*
X166433637Y23377717D01*
X166433697Y23378061D01*
X166438214Y23394920D01*
X166439628Y23396334D01*
X166441560Y23395816D01*
G37*
G36*
X254890419Y29561750D02*
G01*
X254906410Y29554294D01*
X255129168Y29494606D01*
X255280589Y29481359D01*
X255282228Y29480212D01*
X255282053Y29478220D01*
X255280342Y29477368D01*
X255196176Y29480454D01*
X255128764Y29463315D01*
X255081523Y29412672D01*
X255069162Y29344524D01*
X255095616Y29280486D01*
X255144595Y29244282D01*
X255145393Y29242449D01*
X255144204Y29240840D01*
X255142665Y29240816D01*
X255028646Y29286305D01*
X254836057Y29324613D01*
X254833890Y29324642D01*
X254832171Y29325665D01*
X254832197Y29327665D01*
X254833378Y29328568D01*
X254898854Y29346865D01*
X254944889Y29398607D01*
X254955642Y29467028D01*
X254927684Y29530430D01*
X254888416Y29558306D01*
X254887583Y29560124D01*
X254888741Y29561755D01*
X254890419Y29561750D01*
G37*
G36*
X16765419Y29561750D02*
G01*
X16781410Y29554294D01*
X17004168Y29494606D01*
X17155589Y29481359D01*
X17157228Y29480212D01*
X17157053Y29478220D01*
X17155342Y29477368D01*
X17071176Y29480454D01*
X17003764Y29463315D01*
X16956523Y29412672D01*
X16944162Y29344524D01*
X16970616Y29280486D01*
X17019595Y29244282D01*
X17020393Y29242449D01*
X17019204Y29240840D01*
X17017665Y29240816D01*
X16903646Y29286305D01*
X16711057Y29324613D01*
X16708890Y29324642D01*
X16707171Y29325665D01*
X16707197Y29327665D01*
X16708378Y29328568D01*
X16773854Y29346865D01*
X16819889Y29398607D01*
X16830642Y29467028D01*
X16802684Y29530430D01*
X16763416Y29558306D01*
X16762583Y29560124D01*
X16763741Y29561755D01*
X16765419Y29561750D01*
G37*
G36*
X34576594Y34594179D02*
G01*
X34576954Y34592749D01*
X34567978Y34524443D01*
X34597511Y34461798D01*
X34656226Y34425064D01*
X34725600Y34425906D01*
X34763409Y34445154D01*
X34783116Y34459950D01*
X34783394Y34460125D01*
X34804041Y34470873D01*
X34806039Y34470786D01*
X34806962Y34469012D01*
X34806111Y34467461D01*
X34639746Y34350971D01*
X34476679Y34187904D01*
X34344406Y33998999D01*
X34246944Y33789990D01*
X34235629Y33747763D01*
X34234215Y33746349D01*
X34232283Y33746867D01*
X34231697Y33748251D01*
X34230666Y33816638D01*
X34192349Y33874330D01*
X34128923Y33902149D01*
X34060303Y33891225D01*
X34044875Y33882468D01*
X34018521Y33864858D01*
X34016525Y33864727D01*
X34015414Y33866390D01*
X34016118Y33868047D01*
X34188858Y34014282D01*
X34357148Y34206181D01*
X34495217Y34420833D01*
X34573147Y34593831D01*
X34574771Y34595000D01*
X34576594Y34594179D01*
G37*
G36*
X277904835Y38234965D02*
G01*
X277905314Y38233385D01*
X277889703Y38114809D01*
X277908107Y37948113D01*
X277958706Y37809841D01*
X277958362Y37807871D01*
X277956484Y37807184D01*
X277955096Y37808154D01*
X277947065Y37822065D01*
X277946895Y37822447D01*
X277938849Y37847210D01*
X277899587Y37904628D01*
X277835792Y37931588D01*
X277767522Y37919774D01*
X277719944Y37878097D01*
X277717982Y37877708D01*
X277716664Y37879212D01*
X277716963Y37880712D01*
X277767635Y37956549D01*
X277894448Y38213700D01*
X277901437Y38234289D01*
X277902941Y38235608D01*
X277904835Y38234965D01*
G37*
G36*
X278049678Y38829385D02*
G01*
X278050519Y38828159D01*
X278065564Y38760926D01*
X278114827Y38712246D01*
X278182600Y38697924D01*
X278223773Y38713088D01*
X278225744Y38712748D01*
X278226291Y38712025D01*
X278227007Y38710418D01*
X278294405Y38740427D01*
X278296394Y38740218D01*
X278297207Y38738391D01*
X278296135Y38736823D01*
X278195326Y38684791D01*
X278068945Y38574542D01*
X277976357Y38442803D01*
X277974543Y38441961D01*
X277972907Y38443111D01*
X277972827Y38444596D01*
X277986608Y38485194D01*
X278042544Y38766401D01*
X278046571Y38827853D01*
X278047682Y38829516D01*
X278049678Y38829385D01*
G37*
G36*
X251146643Y41076000D02*
G01*
X251146643Y41074000D01*
X251145796Y41073206D01*
X250897449Y40950735D01*
X250739408Y40845136D01*
X250737412Y40845005D01*
X250736301Y40846668D01*
X250736762Y40848082D01*
X250780942Y40900946D01*
X250789574Y40969661D01*
X250759683Y41032137D01*
X250700621Y41068621D01*
X250667974Y41073018D01*
X250666391Y41074240D01*
X250666658Y41076222D01*
X250668241Y41077000D01*
X251144911Y41077000D01*
X251146643Y41076000D01*
G37*
G36*
X252480694Y41421491D02*
G01*
X252571125Y41333398D01*
X252746182Y41216429D01*
X252939629Y41133317D01*
X253144985Y41086851D01*
X253322614Y41079871D01*
X253324305Y41078804D01*
X253324226Y41076806D01*
X253322709Y41075881D01*
X253305420Y41074368D01*
X253240638Y41049029D01*
X253200018Y40992934D01*
X253196175Y40923782D01*
X253230429Y40863349D01*
X253245347Y40851303D01*
X253246067Y40849437D01*
X253244810Y40847881D01*
X253242980Y40848084D01*
X253089351Y40950735D01*
X252832200Y41077548D01*
X252560706Y41169708D01*
X252366159Y41208406D01*
X252364655Y41209725D01*
X252365045Y41211687D01*
X252366371Y41212360D01*
X252434991Y41218501D01*
X252489685Y41260988D01*
X252512727Y41326302D01*
X252496762Y41393859D01*
X252477708Y41418845D01*
X252477453Y41420829D01*
X252479043Y41422042D01*
X252480694Y41421491D01*
G37*
G36*
X13903094Y41936306D02*
G01*
X13903528Y41935479D01*
X13926899Y41843459D01*
X14014004Y41654512D01*
X14013821Y41652521D01*
X14012005Y41651683D01*
X14010550Y41652528D01*
X14006634Y41658120D01*
X14005755Y41658044D01*
X14005100Y41658534D01*
X13965781Y41703191D01*
X13899178Y41722177D01*
X13832874Y41702138D01*
X13795143Y41658593D01*
X13793631Y41658070D01*
X13789235Y41651792D01*
X13789108Y41651629D01*
X13788558Y41650994D01*
X13788394Y41650643D01*
X13788219Y41650341D01*
X13763833Y41615514D01*
X13762021Y41614669D01*
X13760382Y41615816D01*
X13760450Y41617638D01*
X13839926Y41759552D01*
X13899696Y41935630D01*
X13901200Y41936949D01*
X13903094Y41936306D01*
G37*
G36*
X16147240Y42430348D02*
G01*
X16147853Y42428061D01*
X16147913Y42427717D01*
X16151345Y42388495D01*
X16176684Y42323712D01*
X16232778Y42283092D01*
X16301930Y42279248D01*
X16362182Y42313399D01*
X16394498Y42374880D01*
X16396910Y42399120D01*
X16398076Y42400745D01*
X16400067Y42400547D01*
X16400900Y42398922D01*
X16400900Y42056081D01*
X16399900Y42054349D01*
X16397900Y42054349D01*
X16396981Y42055518D01*
X16377305Y42122530D01*
X16324962Y42167885D01*
X16256409Y42177742D01*
X16193411Y42148971D01*
X16155859Y42090539D01*
X16151362Y42066699D01*
X16147913Y42027283D01*
X16147853Y42026939D01*
X16139441Y41995546D01*
X16138027Y41994132D01*
X16136095Y41994650D01*
X16135530Y41996351D01*
X16160325Y42167353D01*
X16161898Y42227428D01*
X16143316Y42429647D01*
X16144154Y42431463D01*
X16146145Y42431646D01*
X16147240Y42430348D01*
G37*
G36*
X175966560Y42445816D02*
G01*
X175967132Y42444167D01*
X175945053Y42257619D01*
X175957212Y42072100D01*
X175956327Y42070306D01*
X175954331Y42070175D01*
X175953353Y42071240D01*
X175929866Y42131288D01*
X175873772Y42171908D01*
X175804620Y42175752D01*
X175744368Y42141601D01*
X175712052Y42080120D01*
X175709640Y42055880D01*
X175708474Y42054255D01*
X175706483Y42054453D01*
X175705650Y42056078D01*
X175705650Y42398919D01*
X175706650Y42400651D01*
X175708650Y42400651D01*
X175709569Y42399482D01*
X175729245Y42332470D01*
X175781588Y42287115D01*
X175850141Y42277258D01*
X175913139Y42306029D01*
X175950691Y42364461D01*
X175955188Y42388301D01*
X175958637Y42427717D01*
X175958697Y42428061D01*
X175963214Y42444920D01*
X175964628Y42446334D01*
X175966560Y42445816D01*
G37*
G36*
X233116560Y42445816D02*
G01*
X233117132Y42444167D01*
X233095053Y42257619D01*
X233107212Y42072100D01*
X233106327Y42070306D01*
X233104331Y42070175D01*
X233103353Y42071240D01*
X233079866Y42131288D01*
X233023772Y42171908D01*
X232954620Y42175752D01*
X232894368Y42141601D01*
X232862052Y42080120D01*
X232859640Y42055880D01*
X232858474Y42054255D01*
X232856483Y42054453D01*
X232855650Y42056078D01*
X232855650Y42398919D01*
X232856650Y42400651D01*
X232858650Y42400651D01*
X232859569Y42399482D01*
X232879245Y42332470D01*
X232931588Y42287115D01*
X233000141Y42277258D01*
X233063139Y42306029D01*
X233100691Y42364461D01*
X233105188Y42388301D01*
X233108637Y42427717D01*
X233108697Y42428061D01*
X233113214Y42444920D01*
X233114628Y42446334D01*
X233116560Y42445816D01*
G37*
G36*
X137866560Y42445816D02*
G01*
X137867132Y42444167D01*
X137845053Y42257619D01*
X137857212Y42072100D01*
X137856327Y42070306D01*
X137854331Y42070175D01*
X137853353Y42071240D01*
X137829866Y42131288D01*
X137773772Y42171908D01*
X137704620Y42175752D01*
X137644368Y42141601D01*
X137612052Y42080120D01*
X137609640Y42055880D01*
X137608474Y42054255D01*
X137606483Y42054453D01*
X137605650Y42056078D01*
X137605650Y42398919D01*
X137606650Y42400651D01*
X137608650Y42400651D01*
X137609569Y42399482D01*
X137629245Y42332470D01*
X137681588Y42287115D01*
X137750141Y42277258D01*
X137813139Y42306029D01*
X137850691Y42364461D01*
X137855188Y42388301D01*
X137858637Y42427717D01*
X137858697Y42428061D01*
X137863214Y42444920D01*
X137864628Y42446334D01*
X137866560Y42445816D01*
G37*
G36*
X80716560Y42445816D02*
G01*
X80717132Y42444167D01*
X80695053Y42257619D01*
X80707212Y42072100D01*
X80706327Y42070306D01*
X80704331Y42070175D01*
X80703353Y42071240D01*
X80679866Y42131288D01*
X80623772Y42171908D01*
X80554620Y42175752D01*
X80494368Y42141601D01*
X80462052Y42080120D01*
X80459640Y42055880D01*
X80458474Y42054255D01*
X80456483Y42054453D01*
X80455650Y42056078D01*
X80455650Y42398919D01*
X80456650Y42400651D01*
X80458650Y42400651D01*
X80459569Y42399482D01*
X80479245Y42332470D01*
X80531588Y42287115D01*
X80600141Y42277258D01*
X80663139Y42306029D01*
X80700691Y42364461D01*
X80705188Y42388301D01*
X80708637Y42427717D01*
X80708697Y42428061D01*
X80713214Y42444920D01*
X80714628Y42446334D01*
X80716560Y42445816D01*
G37*
G36*
X195016560Y42445816D02*
G01*
X195017132Y42444167D01*
X194995053Y42257619D01*
X195007212Y42072100D01*
X195006327Y42070306D01*
X195004331Y42070175D01*
X195003353Y42071240D01*
X194979866Y42131288D01*
X194923772Y42171908D01*
X194854620Y42175752D01*
X194794368Y42141601D01*
X194762052Y42080120D01*
X194759640Y42055880D01*
X194758474Y42054255D01*
X194756483Y42054453D01*
X194755650Y42056078D01*
X194755650Y42398919D01*
X194756650Y42400651D01*
X194758650Y42400651D01*
X194759569Y42399482D01*
X194779245Y42332470D01*
X194831588Y42287115D01*
X194900141Y42277258D01*
X194963139Y42306029D01*
X195000691Y42364461D01*
X195005188Y42388301D01*
X195008637Y42427717D01*
X195008697Y42428061D01*
X195013214Y42444920D01*
X195014628Y42446334D01*
X195016560Y42445816D01*
G37*
G36*
X156916560Y42445816D02*
G01*
X156917132Y42444167D01*
X156895053Y42257619D01*
X156907212Y42072100D01*
X156906327Y42070306D01*
X156904331Y42070175D01*
X156903353Y42071240D01*
X156879866Y42131288D01*
X156823772Y42171908D01*
X156754620Y42175752D01*
X156694368Y42141601D01*
X156662052Y42080120D01*
X156659640Y42055880D01*
X156658474Y42054255D01*
X156656483Y42054453D01*
X156655650Y42056078D01*
X156655650Y42398919D01*
X156656650Y42400651D01*
X156658650Y42400651D01*
X156659569Y42399482D01*
X156679245Y42332470D01*
X156731588Y42287115D01*
X156800141Y42277258D01*
X156863139Y42306029D01*
X156900691Y42364461D01*
X156905188Y42388301D01*
X156908637Y42427717D01*
X156908697Y42428061D01*
X156913214Y42444920D01*
X156914628Y42446334D01*
X156916560Y42445816D01*
G37*
G36*
X252166560Y42445816D02*
G01*
X252167132Y42444167D01*
X252145053Y42257619D01*
X252157212Y42072100D01*
X252156327Y42070306D01*
X252154331Y42070175D01*
X252153353Y42071240D01*
X252129866Y42131288D01*
X252073772Y42171908D01*
X252004620Y42175752D01*
X251944368Y42141601D01*
X251912052Y42080120D01*
X251909640Y42055880D01*
X251908474Y42054255D01*
X251906483Y42054453D01*
X251905650Y42056078D01*
X251905650Y42398919D01*
X251906650Y42400651D01*
X251908650Y42400651D01*
X251909569Y42399482D01*
X251929245Y42332470D01*
X251981588Y42287115D01*
X252050141Y42277258D01*
X252113139Y42306029D01*
X252150691Y42364461D01*
X252155188Y42388301D01*
X252158637Y42427717D01*
X252158697Y42428061D01*
X252163214Y42444920D01*
X252164628Y42446334D01*
X252166560Y42445816D01*
G37*
G36*
X11660310Y42445816D02*
G01*
X11660882Y42444167D01*
X11638803Y42257619D01*
X11650962Y42072100D01*
X11650077Y42070306D01*
X11648081Y42070175D01*
X11647103Y42071240D01*
X11623616Y42131288D01*
X11567522Y42171908D01*
X11498370Y42175752D01*
X11438118Y42141601D01*
X11405802Y42080120D01*
X11403390Y42055880D01*
X11402224Y42054255D01*
X11400233Y42054453D01*
X11399400Y42056078D01*
X11399400Y42398919D01*
X11400400Y42400651D01*
X11402400Y42400651D01*
X11403319Y42399482D01*
X11422995Y42332470D01*
X11475338Y42287115D01*
X11543891Y42277258D01*
X11606889Y42306029D01*
X11644441Y42364461D01*
X11648938Y42388301D01*
X11652387Y42427717D01*
X11652447Y42428061D01*
X11656964Y42444920D01*
X11658378Y42446334D01*
X11660310Y42445816D01*
G37*
G36*
X118816560Y42445816D02*
G01*
X118817132Y42444167D01*
X118795053Y42257619D01*
X118807212Y42072100D01*
X118806327Y42070306D01*
X118804331Y42070175D01*
X118803353Y42071240D01*
X118779866Y42131288D01*
X118723772Y42171908D01*
X118654620Y42175752D01*
X118594368Y42141601D01*
X118562052Y42080120D01*
X118559640Y42055880D01*
X118558474Y42054255D01*
X118556483Y42054453D01*
X118555650Y42056078D01*
X118555650Y42398919D01*
X118556650Y42400651D01*
X118558650Y42400651D01*
X118559569Y42399482D01*
X118579245Y42332470D01*
X118631588Y42287115D01*
X118700141Y42277258D01*
X118763139Y42306029D01*
X118800691Y42364461D01*
X118805188Y42388301D01*
X118808637Y42427717D01*
X118808697Y42428061D01*
X118813214Y42444920D01*
X118814628Y42446334D01*
X118816560Y42445816D01*
G37*
G36*
X264072810Y42445816D02*
G01*
X264073382Y42444167D01*
X264051303Y42257619D01*
X264063462Y42072100D01*
X264062577Y42070306D01*
X264060581Y42070175D01*
X264059603Y42071240D01*
X264036116Y42131288D01*
X263980022Y42171908D01*
X263910870Y42175752D01*
X263850618Y42141601D01*
X263818302Y42080120D01*
X263815890Y42055880D01*
X263814724Y42054255D01*
X263812733Y42054453D01*
X263811900Y42056078D01*
X263811900Y42398919D01*
X263812900Y42400651D01*
X263814900Y42400651D01*
X263815819Y42399482D01*
X263835495Y42332470D01*
X263887838Y42287115D01*
X263956391Y42277258D01*
X264019389Y42306029D01*
X264056941Y42364461D01*
X264061438Y42388301D01*
X264064887Y42427717D01*
X264064947Y42428061D01*
X264069464Y42444920D01*
X264070878Y42446334D01*
X264072810Y42445816D01*
G37*
G36*
X214066560Y42445816D02*
G01*
X214067132Y42444167D01*
X214045053Y42257619D01*
X214057212Y42072100D01*
X214056327Y42070306D01*
X214054331Y42070175D01*
X214053353Y42071240D01*
X214029866Y42131288D01*
X213973772Y42171908D01*
X213904620Y42175752D01*
X213844368Y42141601D01*
X213812052Y42080120D01*
X213809640Y42055880D01*
X213808474Y42054255D01*
X213806483Y42054453D01*
X213805650Y42056078D01*
X213805650Y42398919D01*
X213806650Y42400651D01*
X213808650Y42400651D01*
X213809569Y42399482D01*
X213829245Y42332470D01*
X213881588Y42287115D01*
X213950141Y42277258D01*
X214013139Y42306029D01*
X214050691Y42364461D01*
X214055188Y42388301D01*
X214058637Y42427717D01*
X214058697Y42428061D01*
X214063214Y42444920D01*
X214064628Y42446334D01*
X214066560Y42445816D01*
G37*
G36*
X99766560Y42445816D02*
G01*
X99767132Y42444167D01*
X99745053Y42257619D01*
X99757212Y42072100D01*
X99756327Y42070306D01*
X99754331Y42070175D01*
X99753353Y42071240D01*
X99729866Y42131288D01*
X99673772Y42171908D01*
X99604620Y42175752D01*
X99544368Y42141601D01*
X99512052Y42080120D01*
X99509640Y42055880D01*
X99508474Y42054255D01*
X99506483Y42054453D01*
X99505650Y42056078D01*
X99505650Y42398919D01*
X99506650Y42400651D01*
X99508650Y42400651D01*
X99509569Y42399482D01*
X99529245Y42332470D01*
X99581588Y42287115D01*
X99650141Y42277258D01*
X99713139Y42306029D01*
X99750691Y42364461D01*
X99755188Y42388301D01*
X99758637Y42427717D01*
X99758697Y42428061D01*
X99763214Y42444920D01*
X99764628Y42446334D01*
X99766560Y42445816D01*
G37*
G36*
X42616560Y42445816D02*
G01*
X42617132Y42444167D01*
X42595053Y42257619D01*
X42607212Y42072100D01*
X42606327Y42070306D01*
X42604331Y42070175D01*
X42603353Y42071240D01*
X42579866Y42131288D01*
X42523772Y42171908D01*
X42454620Y42175752D01*
X42394368Y42141601D01*
X42362052Y42080120D01*
X42359640Y42055880D01*
X42358474Y42054255D01*
X42356483Y42054453D01*
X42355650Y42056078D01*
X42355650Y42398919D01*
X42356650Y42400651D01*
X42358650Y42400651D01*
X42359569Y42399482D01*
X42379245Y42332470D01*
X42431588Y42287115D01*
X42500141Y42277258D01*
X42563139Y42306029D01*
X42600691Y42364461D01*
X42605188Y42388301D01*
X42608637Y42427717D01*
X42608697Y42428061D01*
X42613214Y42444920D01*
X42614628Y42446334D01*
X42616560Y42445816D01*
G37*
G36*
X61666560Y42445816D02*
G01*
X61667132Y42444167D01*
X61645053Y42257619D01*
X61657212Y42072100D01*
X61656327Y42070306D01*
X61654331Y42070175D01*
X61653353Y42071240D01*
X61629866Y42131288D01*
X61573772Y42171908D01*
X61504620Y42175752D01*
X61444368Y42141601D01*
X61412052Y42080120D01*
X61409640Y42055880D01*
X61408474Y42054255D01*
X61406483Y42054453D01*
X61405650Y42056078D01*
X61405650Y42398919D01*
X61406650Y42400651D01*
X61408650Y42400651D01*
X61409569Y42399482D01*
X61429245Y42332470D01*
X61481588Y42287115D01*
X61550141Y42277258D01*
X61613139Y42306029D01*
X61650691Y42364461D01*
X61655188Y42388301D01*
X61658637Y42427717D01*
X61658697Y42428061D01*
X61663214Y42444920D01*
X61664628Y42446334D01*
X61666560Y42445816D01*
G37*
G36*
X14031302Y42826879D02*
G01*
X14031259Y42825103D01*
X13948485Y42667775D01*
X13901543Y42516598D01*
X13900074Y42515240D01*
X13898164Y42515833D01*
X13897708Y42516648D01*
X13862976Y42639798D01*
X13777657Y42812810D01*
X13777788Y42814806D01*
X13779582Y42815691D01*
X13781089Y42814842D01*
X13788219Y42804659D01*
X13788394Y42804357D01*
X13788555Y42804012D01*
X13789052Y42803447D01*
X13789189Y42803273D01*
X13793666Y42796880D01*
X13794545Y42796956D01*
X13795200Y42796466D01*
X13834519Y42751809D01*
X13901122Y42732823D01*
X13967426Y42752862D01*
X14005157Y42796407D01*
X14006669Y42796930D01*
X14011065Y42803208D01*
X14011192Y42803371D01*
X14011742Y42804006D01*
X14011906Y42804357D01*
X14012081Y42804659D01*
X14027851Y42827181D01*
X14029663Y42828026D01*
X14031302Y42826879D01*
G37*
G36*
X263810518Y43205137D02*
G01*
X263867061Y43155550D01*
X264008548Y43061012D01*
X264009433Y43059218D01*
X264008322Y43057555D01*
X264006839Y43057440D01*
X263941091Y43078027D01*
X263874301Y43059703D01*
X263827975Y43008130D01*
X263815850Y42954693D01*
X263814492Y42953226D01*
X263812542Y42953668D01*
X263811900Y42955136D01*
X263811900Y43179801D01*
X263807237Y43203243D01*
X263807880Y43205137D01*
X263809842Y43205527D01*
X263810518Y43205137D01*
G37*
G36*
X263452922Y43574421D02*
G01*
X263462450Y43560161D01*
X263620111Y43380383D01*
X263620501Y43378421D01*
X263618997Y43377102D01*
X263618217Y43377102D01*
X263613701Y43378000D01*
X263346891Y43378000D01*
X263345159Y43379000D01*
X263345159Y43381000D01*
X263346328Y43381919D01*
X263413343Y43401596D01*
X263458698Y43453939D01*
X263468564Y43522558D01*
X263449391Y43572594D01*
X263449705Y43574570D01*
X263451573Y43575285D01*
X263452922Y43574421D01*
G37*
G36*
X124616322Y46667032D02*
G01*
X124669689Y46467864D01*
X124669171Y46465932D01*
X124667239Y46465414D01*
X124666149Y46466157D01*
X124629102Y46516289D01*
X124564361Y46540895D01*
X124496405Y46526552D01*
X124480374Y46515732D01*
X124478379Y46515592D01*
X124477260Y46517250D01*
X124477976Y46518928D01*
X124513870Y46548780D01*
X124612852Y46667793D01*
X124614729Y46668485D01*
X124616322Y46667032D01*
G37*
G36*
X131769582Y46695013D02*
G01*
X131769801Y46694753D01*
X131829238Y46610651D01*
X131915389Y46526727D01*
X131915931Y46524802D01*
X131914536Y46523369D01*
X131913058Y46523526D01*
X131852967Y46555324D01*
X131783955Y46549479D01*
X131728934Y46507156D01*
X131713307Y46478236D01*
X131710606Y46471090D01*
X131709058Y46469823D01*
X131707187Y46470530D01*
X131706803Y46472315D01*
X131766236Y46694117D01*
X131767650Y46695531D01*
X131769582Y46695013D01*
G37*
G36*
X131811098Y48363103D02*
G01*
X131813975Y48351980D01*
X131814016Y48351782D01*
X131827237Y48265387D01*
X131856704Y48202379D01*
X131915303Y48165464D01*
X131984733Y48166092D01*
X132010897Y48177641D01*
X132012886Y48177425D01*
X132013693Y48175596D01*
X132013024Y48174307D01*
X131866829Y48046097D01*
X131861697Y48039587D01*
X131859839Y48038846D01*
X131858268Y48040084D01*
X131858151Y48040512D01*
X131807187Y48362289D01*
X131807903Y48364156D01*
X131809879Y48364469D01*
X131811098Y48363103D01*
G37*
G36*
X124568546Y48370345D02*
G01*
X124569114Y48368610D01*
X124520176Y48059623D01*
X124518918Y48058069D01*
X124516843Y48058467D01*
X124408342Y48158765D01*
X124362639Y48187602D01*
X124361708Y48189372D01*
X124362775Y48191063D01*
X124364253Y48191217D01*
X124429639Y48172607D01*
X124495926Y48192673D01*
X124540948Y48245513D01*
X124550153Y48276620D01*
X124563904Y48364434D01*
X124563945Y48364633D01*
X124565204Y48369431D01*
X124566611Y48370852D01*
X124568546Y48370345D01*
G37*
G36*
X253572332Y53609189D02*
G01*
X253572538Y53607211D01*
X253556990Y53572041D01*
X253547927Y53503076D01*
X253577460Y53440431D01*
X253636175Y53403697D01*
X253705549Y53404539D01*
X253732491Y53418255D01*
X253734488Y53418150D01*
X253735395Y53416368D01*
X253734545Y53414835D01*
X253714746Y53400971D01*
X253551679Y53237904D01*
X253419406Y53048999D01*
X253329770Y52856774D01*
X253328131Y52855627D01*
X253326319Y52856472D01*
X253325979Y52857916D01*
X253336346Y52926987D01*
X253307966Y52990161D01*
X253249933Y53027965D01*
X253180611Y53028393D01*
X253133021Y53002089D01*
X253131022Y53002126D01*
X253130054Y53003876D01*
X253130762Y53005365D01*
X253200358Y53064282D01*
X253368648Y53256181D01*
X253506717Y53470833D01*
X253568885Y53608841D01*
X253570509Y53610010D01*
X253572332Y53609189D01*
G37*
G36*
X274220578Y54781065D02*
G01*
X274221197Y54779069D01*
X274173566Y54591524D01*
X274172185Y54577805D01*
X274171016Y54576181D01*
X274169027Y54576382D01*
X274168229Y54577640D01*
X274155531Y54646059D01*
X274108084Y54696512D01*
X274040680Y54713358D01*
X274024719Y54711457D01*
X274022881Y54712245D01*
X274022645Y54714231D01*
X274023840Y54715337D01*
X274218616Y54781455D01*
X274220578Y54781065D01*
G37*
G36*
X277313206Y55235104D02*
G01*
X277326364Y55217289D01*
X277326515Y55217051D01*
X277341570Y55189149D01*
X277390509Y55139719D01*
X277458110Y55124661D01*
X277523198Y55148568D01*
X277525169Y55148227D01*
X277525859Y55146350D01*
X277525302Y55145277D01*
X277522929Y55142904D01*
X277433974Y55015864D01*
X277432162Y55015019D01*
X277430472Y55016286D01*
X277423645Y55033841D01*
X277309861Y55232924D01*
X277309869Y55234924D01*
X277311606Y55235916D01*
X277313206Y55235104D01*
G37*
G36*
X275544037Y56168747D02*
G01*
X275544531Y56167345D01*
X275541662Y56098512D01*
X275576647Y56038740D01*
X275638551Y56007290D01*
X275667818Y56005394D01*
X275707397Y56007572D01*
X275709181Y56006669D01*
X275709291Y56004672D01*
X275707777Y56003593D01*
X275511375Y55976864D01*
X275471092Y55965122D01*
X275469149Y55965597D01*
X275468589Y55967517D01*
X275468738Y55967927D01*
X275481448Y55993700D01*
X275540639Y56168071D01*
X275542143Y56169390D01*
X275544037Y56168747D01*
G37*
G36*
X268609406Y56977629D02*
G01*
X268609693Y56975650D01*
X268608353Y56974459D01*
X268576961Y56966047D01*
X268576617Y56965987D01*
X268537395Y56962555D01*
X268472612Y56937216D01*
X268431992Y56881122D01*
X268428148Y56811970D01*
X268462299Y56751718D01*
X268523780Y56719402D01*
X268548022Y56716990D01*
X268549647Y56715824D01*
X268549449Y56713833D01*
X268547824Y56713000D01*
X268204981Y56713000D01*
X268203249Y56714000D01*
X268203249Y56716000D01*
X268204418Y56716919D01*
X268271430Y56736595D01*
X268316785Y56788938D01*
X268326642Y56857491D01*
X268297871Y56920489D01*
X268240162Y56957577D01*
X268239245Y56959355D01*
X268240327Y56961038D01*
X268241322Y56961258D01*
X268436611Y56953584D01*
X268607548Y56978370D01*
X268609406Y56977629D01*
G37*
G36*
X190254060Y61495816D02*
G01*
X190254632Y61494167D01*
X190232553Y61307619D01*
X190244712Y61122100D01*
X190243827Y61120306D01*
X190241831Y61120175D01*
X190240853Y61121240D01*
X190217366Y61181288D01*
X190161272Y61221908D01*
X190092120Y61225752D01*
X190031868Y61191601D01*
X189999552Y61130120D01*
X189997140Y61105878D01*
X189995974Y61104253D01*
X189993983Y61104451D01*
X189993150Y61106076D01*
X189993150Y61448919D01*
X189994150Y61450651D01*
X189996150Y61450651D01*
X189997069Y61449482D01*
X190016745Y61382470D01*
X190069088Y61337115D01*
X190137641Y61327258D01*
X190200639Y61356029D01*
X190238191Y61414461D01*
X190242688Y61438301D01*
X190246137Y61477717D01*
X190246197Y61478061D01*
X190250714Y61494920D01*
X190252128Y61496334D01*
X190254060Y61495816D01*
G37*
G36*
X56904060Y61495816D02*
G01*
X56904632Y61494167D01*
X56882553Y61307619D01*
X56894712Y61122100D01*
X56893827Y61120306D01*
X56891831Y61120175D01*
X56890853Y61121240D01*
X56867366Y61181288D01*
X56811272Y61221908D01*
X56742120Y61225752D01*
X56681868Y61191601D01*
X56649552Y61130120D01*
X56647140Y61105878D01*
X56645974Y61104253D01*
X56643983Y61104451D01*
X56643150Y61106076D01*
X56643150Y61448919D01*
X56644150Y61450651D01*
X56646150Y61450651D01*
X56647069Y61449482D01*
X56666745Y61382470D01*
X56719088Y61337115D01*
X56787641Y61327258D01*
X56850639Y61356029D01*
X56888191Y61414461D01*
X56892688Y61438301D01*
X56896137Y61477717D01*
X56896197Y61478061D01*
X56900714Y61494920D01*
X56902128Y61496334D01*
X56904060Y61495816D01*
G37*
G36*
X152154060Y61495816D02*
G01*
X152154632Y61494167D01*
X152132553Y61307619D01*
X152144712Y61122100D01*
X152143827Y61120306D01*
X152141831Y61120175D01*
X152140853Y61121240D01*
X152117366Y61181288D01*
X152061272Y61221908D01*
X151992120Y61225752D01*
X151931868Y61191601D01*
X151899552Y61130120D01*
X151897140Y61105878D01*
X151895974Y61104253D01*
X151893983Y61104451D01*
X151893150Y61106076D01*
X151893150Y61448919D01*
X151894150Y61450651D01*
X151896150Y61450651D01*
X151897069Y61449482D01*
X151916745Y61382470D01*
X151969088Y61337115D01*
X152037641Y61327258D01*
X152100639Y61356029D01*
X152138191Y61414461D01*
X152142688Y61438301D01*
X152146137Y61477717D01*
X152146197Y61478061D01*
X152150714Y61494920D01*
X152152128Y61496334D01*
X152154060Y61495816D01*
G37*
G36*
X171204060Y61495816D02*
G01*
X171204632Y61494167D01*
X171182553Y61307619D01*
X171194712Y61122100D01*
X171193827Y61120306D01*
X171191831Y61120175D01*
X171190853Y61121240D01*
X171167366Y61181288D01*
X171111272Y61221908D01*
X171042120Y61225752D01*
X170981868Y61191601D01*
X170949552Y61130120D01*
X170947140Y61105878D01*
X170945974Y61104253D01*
X170943983Y61104451D01*
X170943150Y61106076D01*
X170943150Y61448919D01*
X170944150Y61450651D01*
X170946150Y61450651D01*
X170947069Y61449482D01*
X170966745Y61382470D01*
X171019088Y61337115D01*
X171087641Y61327258D01*
X171150639Y61356029D01*
X171188191Y61414461D01*
X171192688Y61438301D01*
X171196137Y61477717D01*
X171196197Y61478061D01*
X171200714Y61494920D01*
X171202128Y61496334D01*
X171204060Y61495816D01*
G37*
G36*
X247404060Y61495816D02*
G01*
X247404632Y61494167D01*
X247382553Y61307619D01*
X247394712Y61122100D01*
X247393827Y61120306D01*
X247391831Y61120175D01*
X247390853Y61121240D01*
X247367366Y61181288D01*
X247311272Y61221908D01*
X247242120Y61225752D01*
X247181868Y61191601D01*
X247149552Y61130120D01*
X247147140Y61105878D01*
X247145974Y61104253D01*
X247143983Y61104451D01*
X247143150Y61106076D01*
X247143150Y61448919D01*
X247144150Y61450651D01*
X247146150Y61450651D01*
X247147069Y61449482D01*
X247166745Y61382470D01*
X247219088Y61337115D01*
X247287641Y61327258D01*
X247350639Y61356029D01*
X247388191Y61414461D01*
X247392688Y61438301D01*
X247396137Y61477717D01*
X247396197Y61478061D01*
X247400714Y61494920D01*
X247402128Y61496334D01*
X247404060Y61495816D01*
G37*
G36*
X37854060Y61495816D02*
G01*
X37854632Y61494167D01*
X37832553Y61307619D01*
X37844712Y61122100D01*
X37843827Y61120306D01*
X37841831Y61120175D01*
X37840853Y61121240D01*
X37817366Y61181288D01*
X37761272Y61221908D01*
X37692120Y61225752D01*
X37631868Y61191601D01*
X37599552Y61130120D01*
X37597140Y61105878D01*
X37595974Y61104253D01*
X37593983Y61104451D01*
X37593150Y61106076D01*
X37593150Y61448919D01*
X37594150Y61450651D01*
X37596150Y61450651D01*
X37597069Y61449482D01*
X37616745Y61382470D01*
X37669088Y61337115D01*
X37737641Y61327258D01*
X37800639Y61356029D01*
X37838191Y61414461D01*
X37842688Y61438301D01*
X37846137Y61477717D01*
X37846197Y61478061D01*
X37850714Y61494920D01*
X37852128Y61496334D01*
X37854060Y61495816D01*
G37*
G36*
X209304060Y61495816D02*
G01*
X209304632Y61494167D01*
X209282553Y61307619D01*
X209294712Y61122100D01*
X209293827Y61120306D01*
X209291831Y61120175D01*
X209290853Y61121240D01*
X209267366Y61181288D01*
X209211272Y61221908D01*
X209142120Y61225752D01*
X209081868Y61191601D01*
X209049552Y61130120D01*
X209047140Y61105878D01*
X209045974Y61104253D01*
X209043983Y61104451D01*
X209043150Y61106076D01*
X209043150Y61448919D01*
X209044150Y61450651D01*
X209046150Y61450651D01*
X209047069Y61449482D01*
X209066745Y61382470D01*
X209119088Y61337115D01*
X209187641Y61327258D01*
X209250639Y61356029D01*
X209288191Y61414461D01*
X209292688Y61438301D01*
X209296137Y61477717D01*
X209296197Y61478061D01*
X209300714Y61494920D01*
X209302128Y61496334D01*
X209304060Y61495816D01*
G37*
G36*
X228354060Y61495816D02*
G01*
X228354632Y61494167D01*
X228332553Y61307619D01*
X228344712Y61122100D01*
X228343827Y61120306D01*
X228341831Y61120175D01*
X228340853Y61121240D01*
X228317366Y61181288D01*
X228261272Y61221908D01*
X228192120Y61225752D01*
X228131868Y61191601D01*
X228099552Y61130120D01*
X228097140Y61105878D01*
X228095974Y61104253D01*
X228093983Y61104451D01*
X228093150Y61106076D01*
X228093150Y61448919D01*
X228094150Y61450651D01*
X228096150Y61450651D01*
X228097069Y61449482D01*
X228116745Y61382470D01*
X228169088Y61337115D01*
X228237641Y61327258D01*
X228300639Y61356029D01*
X228338191Y61414461D01*
X228342688Y61438301D01*
X228346137Y61477717D01*
X228346197Y61478061D01*
X228350714Y61494920D01*
X228352128Y61496334D01*
X228354060Y61495816D01*
G37*
G36*
X133104060Y61495816D02*
G01*
X133104632Y61494167D01*
X133082553Y61307619D01*
X133094712Y61122100D01*
X133093827Y61120306D01*
X133091831Y61120175D01*
X133090853Y61121240D01*
X133067366Y61181288D01*
X133011272Y61221908D01*
X132942120Y61225752D01*
X132881868Y61191601D01*
X132849552Y61130120D01*
X132847140Y61105878D01*
X132845974Y61104253D01*
X132843983Y61104451D01*
X132843150Y61106076D01*
X132843150Y61448919D01*
X132844150Y61450651D01*
X132846150Y61450651D01*
X132847069Y61449482D01*
X132866745Y61382470D01*
X132919088Y61337115D01*
X132987641Y61327258D01*
X133050639Y61356029D01*
X133088191Y61414461D01*
X133092688Y61438301D01*
X133096137Y61477717D01*
X133096197Y61478061D01*
X133100714Y61494920D01*
X133102128Y61496334D01*
X133104060Y61495816D01*
G37*
G36*
X14041560Y61495816D02*
G01*
X14042132Y61494167D01*
X14020053Y61307619D01*
X14032212Y61122100D01*
X14031327Y61120306D01*
X14029331Y61120175D01*
X14028353Y61121240D01*
X14004866Y61181288D01*
X13948772Y61221908D01*
X13879620Y61225752D01*
X13819368Y61191601D01*
X13787052Y61130120D01*
X13784640Y61105878D01*
X13783474Y61104253D01*
X13781483Y61104451D01*
X13780650Y61106076D01*
X13780650Y61448919D01*
X13781650Y61450651D01*
X13783650Y61450651D01*
X13784569Y61449482D01*
X13804245Y61382470D01*
X13856588Y61337115D01*
X13925141Y61327258D01*
X13988139Y61356029D01*
X14025691Y61414461D01*
X14030188Y61438301D01*
X14033637Y61477717D01*
X14033697Y61478061D01*
X14038214Y61494920D01*
X14039628Y61496334D01*
X14041560Y61495816D01*
G37*
G36*
X271216560Y61495816D02*
G01*
X271217132Y61494167D01*
X271195053Y61307619D01*
X271207212Y61122100D01*
X271206327Y61120306D01*
X271204331Y61120175D01*
X271203353Y61121240D01*
X271179866Y61181288D01*
X271123772Y61221908D01*
X271054620Y61225752D01*
X270994368Y61191601D01*
X270962052Y61130120D01*
X270959640Y61105878D01*
X270958474Y61104253D01*
X270956483Y61104451D01*
X270955650Y61106076D01*
X270955650Y61448919D01*
X270956650Y61450651D01*
X270958650Y61450651D01*
X270959569Y61449482D01*
X270979245Y61382470D01*
X271031588Y61337115D01*
X271100141Y61327258D01*
X271163139Y61356029D01*
X271200691Y61414461D01*
X271205188Y61438301D01*
X271208637Y61477717D01*
X271208697Y61478061D01*
X271213214Y61494920D01*
X271214628Y61496334D01*
X271216560Y61495816D01*
G37*
G36*
X95004060Y61495816D02*
G01*
X95004632Y61494167D01*
X94982553Y61307619D01*
X94994712Y61122100D01*
X94993827Y61120306D01*
X94991831Y61120175D01*
X94990853Y61121240D01*
X94967366Y61181288D01*
X94911272Y61221908D01*
X94842120Y61225752D01*
X94781868Y61191601D01*
X94749552Y61130120D01*
X94747140Y61105878D01*
X94745974Y61104253D01*
X94743983Y61104451D01*
X94743150Y61106076D01*
X94743150Y61448919D01*
X94744150Y61450651D01*
X94746150Y61450651D01*
X94747069Y61449482D01*
X94766745Y61382470D01*
X94819088Y61337115D01*
X94887641Y61327258D01*
X94950639Y61356029D01*
X94988191Y61414461D01*
X94992688Y61438301D01*
X94996137Y61477717D01*
X94996197Y61478061D01*
X95000714Y61494920D01*
X95002128Y61496334D01*
X95004060Y61495816D01*
G37*
G36*
X75954060Y61495816D02*
G01*
X75954632Y61494167D01*
X75932553Y61307619D01*
X75944712Y61122100D01*
X75943827Y61120306D01*
X75941831Y61120175D01*
X75940853Y61121240D01*
X75917366Y61181288D01*
X75861272Y61221908D01*
X75792120Y61225752D01*
X75731868Y61191601D01*
X75699552Y61130120D01*
X75697140Y61105878D01*
X75695974Y61104253D01*
X75693983Y61104451D01*
X75693150Y61106076D01*
X75693150Y61448919D01*
X75694150Y61450651D01*
X75696150Y61450651D01*
X75697069Y61449482D01*
X75716745Y61382470D01*
X75769088Y61337115D01*
X75837641Y61327258D01*
X75900639Y61356029D01*
X75938191Y61414461D01*
X75942688Y61438301D01*
X75946137Y61477717D01*
X75946197Y61478061D01*
X75950714Y61494920D01*
X75952128Y61496334D01*
X75954060Y61495816D01*
G37*
G36*
X114054060Y61495816D02*
G01*
X114054632Y61494167D01*
X114032553Y61307619D01*
X114044712Y61122100D01*
X114043827Y61120306D01*
X114041831Y61120175D01*
X114040853Y61121240D01*
X114017366Y61181288D01*
X113961272Y61221908D01*
X113892120Y61225752D01*
X113831868Y61191601D01*
X113799552Y61130120D01*
X113797140Y61105878D01*
X113795974Y61104253D01*
X113793983Y61104451D01*
X113793150Y61106076D01*
X113793150Y61448919D01*
X113794150Y61450651D01*
X113796150Y61450651D01*
X113797069Y61449482D01*
X113816745Y61382470D01*
X113869088Y61337115D01*
X113937641Y61327258D01*
X114000639Y61356029D01*
X114038191Y61414461D01*
X114042688Y61438301D01*
X114046137Y61477717D01*
X114046197Y61478061D01*
X114050714Y61494920D01*
X114052128Y61496334D01*
X114054060Y61495816D01*
G37*
G36*
X263706720Y67172165D02*
G01*
X263867061Y67031550D01*
X263923267Y66993995D01*
X263924152Y66992201D01*
X263923041Y66990538D01*
X263921558Y66990423D01*
X263855812Y67011009D01*
X263789022Y66992685D01*
X263742715Y66941133D01*
X263730790Y66881640D01*
X263734956Y66799401D01*
X263734045Y66797621D01*
X263732048Y66797520D01*
X263730962Y66799195D01*
X263715508Y67094060D01*
X263703426Y67170348D01*
X263704142Y67172215D01*
X263706118Y67172528D01*
X263706720Y67172165D01*
G37*
G36*
X263053282Y69185603D02*
G01*
X263053610Y69184060D01*
X263028256Y69056599D01*
X263018048Y68900841D01*
X263016937Y68899178D01*
X263014941Y68899309D01*
X263014498Y68899713D01*
X262814946Y69146139D01*
X262814633Y69148115D01*
X262816187Y69149373D01*
X262817951Y69148775D01*
X262840114Y69125419D01*
X262900270Y69090498D01*
X262969457Y69093628D01*
X263026012Y69133698D01*
X263049832Y69185288D01*
X263051466Y69186442D01*
X263053282Y69185603D01*
G37*
G36*
X255701538Y79176000D02*
G01*
X255701538Y79174000D01*
X255700369Y79173081D01*
X255633357Y79153405D01*
X255588002Y79101062D01*
X255578145Y79032509D01*
X255606983Y78969364D01*
X255630181Y78948897D01*
X255630818Y78947001D01*
X255629495Y78945501D01*
X255627747Y78945734D01*
X255470601Y79050735D01*
X255222254Y79173206D01*
X255221143Y79174869D01*
X255222028Y79176663D01*
X255223139Y79177000D01*
X255699806Y79177000D01*
X255701538Y79176000D01*
G37*
G36*
X277948391Y79542017D02*
G01*
X277948270Y79540367D01*
X277917245Y79483546D01*
X277922185Y79414464D01*
X277963690Y79359020D01*
X278028797Y79334736D01*
X278041610Y79334698D01*
X278043339Y79333693D01*
X278043333Y79331693D01*
X278041735Y79330702D01*
X277964551Y79325644D01*
X277683344Y79269708D01*
X277411850Y79177548D01*
X277154699Y79050735D01*
X277017747Y78959227D01*
X277015751Y78959096D01*
X277014640Y78960759D01*
X277015101Y78962173D01*
X277059281Y79015039D01*
X277067912Y79083754D01*
X277038022Y79146229D01*
X276979739Y79182232D01*
X276978791Y79183993D01*
X276979842Y79185695D01*
X276980869Y79185932D01*
X277167861Y79178584D01*
X277376225Y79208796D01*
X277575598Y79276474D01*
X277759293Y79379349D01*
X277921171Y79513979D01*
X277944977Y79542604D01*
X277946854Y79543296D01*
X277948391Y79542017D01*
G37*
G36*
X161679060Y80545816D02*
G01*
X161679632Y80544167D01*
X161657553Y80357619D01*
X161669712Y80172100D01*
X161668827Y80170306D01*
X161666831Y80170175D01*
X161665853Y80171240D01*
X161642366Y80231288D01*
X161586272Y80271908D01*
X161517120Y80275752D01*
X161456868Y80241601D01*
X161424552Y80180120D01*
X161422140Y80155878D01*
X161420974Y80154253D01*
X161418983Y80154451D01*
X161418150Y80156076D01*
X161418150Y80498919D01*
X161419150Y80500651D01*
X161421150Y80500651D01*
X161422069Y80499482D01*
X161441745Y80432470D01*
X161494088Y80387115D01*
X161562641Y80377258D01*
X161625639Y80406029D01*
X161663191Y80464461D01*
X161667688Y80488301D01*
X161671137Y80527717D01*
X161671197Y80528061D01*
X161675714Y80544920D01*
X161677128Y80546334D01*
X161679060Y80545816D01*
G37*
G36*
X104529060Y80545816D02*
G01*
X104529632Y80544167D01*
X104507553Y80357619D01*
X104519712Y80172100D01*
X104518827Y80170306D01*
X104516831Y80170175D01*
X104515853Y80171240D01*
X104492366Y80231288D01*
X104436272Y80271908D01*
X104367120Y80275752D01*
X104306868Y80241601D01*
X104274552Y80180120D01*
X104272140Y80155878D01*
X104270974Y80154253D01*
X104268983Y80154451D01*
X104268150Y80156076D01*
X104268150Y80498919D01*
X104269150Y80500651D01*
X104271150Y80500651D01*
X104272069Y80499482D01*
X104291745Y80432470D01*
X104344088Y80387115D01*
X104412641Y80377258D01*
X104475639Y80406029D01*
X104513191Y80464461D01*
X104517688Y80488301D01*
X104521137Y80527717D01*
X104521197Y80528061D01*
X104525714Y80544920D01*
X104527128Y80546334D01*
X104529060Y80545816D01*
G37*
G36*
X275979060Y80545816D02*
G01*
X275979632Y80544167D01*
X275957553Y80357619D01*
X275969712Y80172100D01*
X275968827Y80170306D01*
X275966831Y80170175D01*
X275965853Y80171240D01*
X275942366Y80231288D01*
X275886272Y80271908D01*
X275817120Y80275752D01*
X275756868Y80241601D01*
X275724552Y80180120D01*
X275722140Y80155878D01*
X275720974Y80154253D01*
X275718983Y80154451D01*
X275718150Y80156076D01*
X275718150Y80498919D01*
X275719150Y80500651D01*
X275721150Y80500651D01*
X275722069Y80499482D01*
X275741745Y80432470D01*
X275794088Y80387115D01*
X275862641Y80377258D01*
X275925639Y80406029D01*
X275963191Y80464461D01*
X275967688Y80488301D01*
X275971137Y80527717D01*
X275971197Y80528061D01*
X275975714Y80544920D01*
X275977128Y80546334D01*
X275979060Y80545816D01*
G37*
G36*
X47379060Y80545816D02*
G01*
X47379632Y80544167D01*
X47357553Y80357619D01*
X47369712Y80172100D01*
X47368827Y80170306D01*
X47366831Y80170175D01*
X47365853Y80171240D01*
X47342366Y80231288D01*
X47286272Y80271908D01*
X47217120Y80275752D01*
X47156868Y80241601D01*
X47124552Y80180120D01*
X47122140Y80155878D01*
X47120974Y80154253D01*
X47118983Y80154451D01*
X47118150Y80156076D01*
X47118150Y80498919D01*
X47119150Y80500651D01*
X47121150Y80500651D01*
X47122069Y80499482D01*
X47141745Y80432470D01*
X47194088Y80387115D01*
X47262641Y80377258D01*
X47325639Y80406029D01*
X47363191Y80464461D01*
X47367688Y80488301D01*
X47371137Y80527717D01*
X47371197Y80528061D01*
X47375714Y80544920D01*
X47377128Y80546334D01*
X47379060Y80545816D01*
G37*
G36*
X218829060Y80545816D02*
G01*
X218829632Y80544167D01*
X218807553Y80357619D01*
X218819712Y80172100D01*
X218818827Y80170306D01*
X218816831Y80170175D01*
X218815853Y80171240D01*
X218792366Y80231288D01*
X218736272Y80271908D01*
X218667120Y80275752D01*
X218606868Y80241601D01*
X218574552Y80180120D01*
X218572140Y80155878D01*
X218570974Y80154253D01*
X218568983Y80154451D01*
X218568150Y80156076D01*
X218568150Y80498919D01*
X218569150Y80500651D01*
X218571150Y80500651D01*
X218572069Y80499482D01*
X218591745Y80432470D01*
X218644088Y80387115D01*
X218712641Y80377258D01*
X218775639Y80406029D01*
X218813191Y80464461D01*
X218817688Y80488301D01*
X218821137Y80527717D01*
X218821197Y80528061D01*
X218825714Y80544920D01*
X218827128Y80546334D01*
X218829060Y80545816D01*
G37*
G36*
X9279060Y80545816D02*
G01*
X9279632Y80544167D01*
X9257553Y80357619D01*
X9269712Y80172100D01*
X9268827Y80170306D01*
X9266831Y80170175D01*
X9265853Y80171240D01*
X9242366Y80231288D01*
X9186272Y80271908D01*
X9117120Y80275752D01*
X9056868Y80241601D01*
X9024552Y80180120D01*
X9022140Y80155878D01*
X9020974Y80154253D01*
X9018983Y80154451D01*
X9018150Y80156076D01*
X9018150Y80498919D01*
X9019150Y80500651D01*
X9021150Y80500651D01*
X9022069Y80499482D01*
X9041745Y80432470D01*
X9094088Y80387115D01*
X9162641Y80377258D01*
X9225639Y80406029D01*
X9263191Y80464461D01*
X9267688Y80488301D01*
X9271137Y80527717D01*
X9271197Y80528061D01*
X9275714Y80544920D01*
X9277128Y80546334D01*
X9279060Y80545816D01*
G37*
G36*
X266454060Y80545816D02*
G01*
X266454632Y80544167D01*
X266432553Y80357619D01*
X266444712Y80172100D01*
X266443827Y80170306D01*
X266441831Y80170175D01*
X266440853Y80171240D01*
X266417366Y80231288D01*
X266361272Y80271908D01*
X266292120Y80275752D01*
X266231868Y80241601D01*
X266199552Y80180120D01*
X266197140Y80155878D01*
X266195974Y80154253D01*
X266193983Y80154451D01*
X266193150Y80156076D01*
X266193150Y80498919D01*
X266194150Y80500651D01*
X266196150Y80500651D01*
X266197069Y80499482D01*
X266216745Y80432470D01*
X266269088Y80387115D01*
X266337641Y80377258D01*
X266400639Y80406029D01*
X266438191Y80464461D01*
X266442688Y80488301D01*
X266446137Y80527717D01*
X266446197Y80528061D01*
X266450714Y80544920D01*
X266452128Y80546334D01*
X266454060Y80545816D01*
G37*
G36*
X199779060Y80545816D02*
G01*
X199779632Y80544167D01*
X199757553Y80357619D01*
X199769712Y80172100D01*
X199768827Y80170306D01*
X199766831Y80170175D01*
X199765853Y80171240D01*
X199742366Y80231288D01*
X199686272Y80271908D01*
X199617120Y80275752D01*
X199556868Y80241601D01*
X199524552Y80180120D01*
X199522140Y80155878D01*
X199520974Y80154253D01*
X199518983Y80154451D01*
X199518150Y80156076D01*
X199518150Y80498919D01*
X199519150Y80500651D01*
X199521150Y80500651D01*
X199522069Y80499482D01*
X199541745Y80432470D01*
X199594088Y80387115D01*
X199662641Y80377258D01*
X199725639Y80406029D01*
X199763191Y80464461D01*
X199767688Y80488301D01*
X199771137Y80527717D01*
X199771197Y80528061D01*
X199775714Y80544920D01*
X199777128Y80546334D01*
X199779060Y80545816D01*
G37*
G36*
X123579060Y80545816D02*
G01*
X123579632Y80544167D01*
X123557553Y80357619D01*
X123569712Y80172100D01*
X123568827Y80170306D01*
X123566831Y80170175D01*
X123565853Y80171240D01*
X123542366Y80231288D01*
X123486272Y80271908D01*
X123417120Y80275752D01*
X123356868Y80241601D01*
X123324552Y80180120D01*
X123322140Y80155878D01*
X123320974Y80154253D01*
X123318983Y80154451D01*
X123318150Y80156076D01*
X123318150Y80498919D01*
X123319150Y80500651D01*
X123321150Y80500651D01*
X123322069Y80499482D01*
X123341745Y80432470D01*
X123394088Y80387115D01*
X123462641Y80377258D01*
X123525639Y80406029D01*
X123563191Y80464461D01*
X123567688Y80488301D01*
X123571137Y80527717D01*
X123571197Y80528061D01*
X123575714Y80544920D01*
X123577128Y80546334D01*
X123579060Y80545816D01*
G37*
G36*
X180729060Y80545816D02*
G01*
X180729632Y80544167D01*
X180707553Y80357619D01*
X180719712Y80172100D01*
X180718827Y80170306D01*
X180716831Y80170175D01*
X180715853Y80171240D01*
X180692366Y80231288D01*
X180636272Y80271908D01*
X180567120Y80275752D01*
X180506868Y80241601D01*
X180474552Y80180120D01*
X180472140Y80155878D01*
X180470974Y80154253D01*
X180468983Y80154451D01*
X180468150Y80156076D01*
X180468150Y80498919D01*
X180469150Y80500651D01*
X180471150Y80500651D01*
X180472069Y80499482D01*
X180491745Y80432470D01*
X180544088Y80387115D01*
X180612641Y80377258D01*
X180675639Y80406029D01*
X180713191Y80464461D01*
X180717688Y80488301D01*
X180721137Y80527717D01*
X180721197Y80528061D01*
X180725714Y80544920D01*
X180727128Y80546334D01*
X180729060Y80545816D01*
G37*
G36*
X237879060Y80545816D02*
G01*
X237879632Y80544167D01*
X237857553Y80357619D01*
X237869712Y80172100D01*
X237868827Y80170306D01*
X237866831Y80170175D01*
X237865853Y80171240D01*
X237842366Y80231288D01*
X237786272Y80271908D01*
X237717120Y80275752D01*
X237656868Y80241601D01*
X237624552Y80180120D01*
X237622140Y80155878D01*
X237620974Y80154253D01*
X237618983Y80154451D01*
X237618150Y80156076D01*
X237618150Y80498919D01*
X237619150Y80500651D01*
X237621150Y80500651D01*
X237622069Y80499482D01*
X237641745Y80432470D01*
X237694088Y80387115D01*
X237762641Y80377258D01*
X237825639Y80406029D01*
X237863191Y80464461D01*
X237867688Y80488301D01*
X237871137Y80527717D01*
X237871197Y80528061D01*
X237875714Y80544920D01*
X237877128Y80546334D01*
X237879060Y80545816D01*
G37*
G36*
X85479060Y80545816D02*
G01*
X85479632Y80544167D01*
X85457553Y80357619D01*
X85469712Y80172100D01*
X85468827Y80170306D01*
X85466831Y80170175D01*
X85465853Y80171240D01*
X85442366Y80231288D01*
X85386272Y80271908D01*
X85317120Y80275752D01*
X85256868Y80241601D01*
X85224552Y80180120D01*
X85222140Y80155878D01*
X85220974Y80154253D01*
X85218983Y80154451D01*
X85218150Y80156076D01*
X85218150Y80498919D01*
X85219150Y80500651D01*
X85221150Y80500651D01*
X85222069Y80499482D01*
X85241745Y80432470D01*
X85294088Y80387115D01*
X85362641Y80377258D01*
X85425639Y80406029D01*
X85463191Y80464461D01*
X85467688Y80488301D01*
X85471137Y80527717D01*
X85471197Y80528061D01*
X85475714Y80544920D01*
X85477128Y80546334D01*
X85479060Y80545816D01*
G37*
G36*
X256929060Y80545816D02*
G01*
X256929632Y80544167D01*
X256907553Y80357619D01*
X256919712Y80172100D01*
X256918827Y80170306D01*
X256916831Y80170175D01*
X256915853Y80171240D01*
X256892366Y80231288D01*
X256836272Y80271908D01*
X256767120Y80275752D01*
X256706868Y80241601D01*
X256674552Y80180120D01*
X256672140Y80155878D01*
X256670974Y80154253D01*
X256668983Y80154451D01*
X256668150Y80156076D01*
X256668150Y80498919D01*
X256669150Y80500651D01*
X256671150Y80500651D01*
X256672069Y80499482D01*
X256691745Y80432470D01*
X256744088Y80387115D01*
X256812641Y80377258D01*
X256875639Y80406029D01*
X256913191Y80464461D01*
X256917688Y80488301D01*
X256921137Y80527717D01*
X256921197Y80528061D01*
X256925714Y80544920D01*
X256927128Y80546334D01*
X256929060Y80545816D01*
G37*
G36*
X28329060Y80545816D02*
G01*
X28329632Y80544167D01*
X28307553Y80357619D01*
X28319712Y80172100D01*
X28318827Y80170306D01*
X28316831Y80170175D01*
X28315853Y80171240D01*
X28292366Y80231288D01*
X28236272Y80271908D01*
X28167120Y80275752D01*
X28106868Y80241601D01*
X28074552Y80180120D01*
X28072140Y80155878D01*
X28070974Y80154253D01*
X28068983Y80154451D01*
X28068150Y80156076D01*
X28068150Y80498919D01*
X28069150Y80500651D01*
X28071150Y80500651D01*
X28072069Y80499482D01*
X28091745Y80432470D01*
X28144088Y80387115D01*
X28212641Y80377258D01*
X28275639Y80406029D01*
X28313191Y80464461D01*
X28317688Y80488301D01*
X28321137Y80527717D01*
X28321197Y80528061D01*
X28325714Y80544920D01*
X28327128Y80546334D01*
X28329060Y80545816D01*
G37*
G36*
X66429060Y80545816D02*
G01*
X66429632Y80544167D01*
X66407553Y80357619D01*
X66419712Y80172100D01*
X66418827Y80170306D01*
X66416831Y80170175D01*
X66415853Y80171240D01*
X66392366Y80231288D01*
X66336272Y80271908D01*
X66267120Y80275752D01*
X66206868Y80241601D01*
X66174552Y80180120D01*
X66172140Y80155878D01*
X66170974Y80154253D01*
X66168983Y80154451D01*
X66168150Y80156076D01*
X66168150Y80498919D01*
X66169150Y80500651D01*
X66171150Y80500651D01*
X66172069Y80499482D01*
X66191745Y80432470D01*
X66244088Y80387115D01*
X66312641Y80377258D01*
X66375639Y80406029D01*
X66413191Y80464461D01*
X66417688Y80488301D01*
X66421137Y80527717D01*
X66421197Y80528061D01*
X66425714Y80544920D01*
X66427128Y80546334D01*
X66429060Y80545816D01*
G37*
G36*
X142629060Y80545816D02*
G01*
X142629632Y80544167D01*
X142607553Y80357619D01*
X142619712Y80172100D01*
X142618827Y80170306D01*
X142616831Y80170175D01*
X142615853Y80171240D01*
X142592366Y80231288D01*
X142536272Y80271908D01*
X142467120Y80275752D01*
X142406868Y80241601D01*
X142374552Y80180120D01*
X142372140Y80155878D01*
X142370974Y80154253D01*
X142368983Y80154451D01*
X142368150Y80156076D01*
X142368150Y80498919D01*
X142369150Y80500651D01*
X142371150Y80500651D01*
X142372069Y80499482D01*
X142391745Y80432470D01*
X142444088Y80387115D01*
X142512641Y80377258D01*
X142575639Y80406029D01*
X142613191Y80464461D01*
X142617688Y80488301D01*
X142621137Y80527717D01*
X142621197Y80528061D01*
X142625714Y80544920D01*
X142627128Y80546334D01*
X142629060Y80545816D01*
G37*
G36*
X271559169Y86711750D02*
G01*
X271575160Y86704294D01*
X271797918Y86644606D01*
X271949339Y86631359D01*
X271950978Y86630212D01*
X271950803Y86628220D01*
X271949092Y86627368D01*
X271864926Y86630454D01*
X271797514Y86613315D01*
X271750273Y86562672D01*
X271737912Y86494524D01*
X271764366Y86430486D01*
X271813345Y86394282D01*
X271814143Y86392449D01*
X271812954Y86390840D01*
X271811415Y86390816D01*
X271697396Y86436305D01*
X271504807Y86474613D01*
X271502640Y86474642D01*
X271500921Y86475665D01*
X271500947Y86477665D01*
X271502128Y86478568D01*
X271567604Y86496865D01*
X271613639Y86548607D01*
X271624392Y86617028D01*
X271596434Y86680430D01*
X271557166Y86708306D01*
X271556333Y86710124D01*
X271557491Y86711755D01*
X271559169Y86711750D01*
G37*
G36*
X262034169Y86711750D02*
G01*
X262050160Y86704294D01*
X262272918Y86644606D01*
X262424339Y86631359D01*
X262425978Y86630212D01*
X262425803Y86628220D01*
X262424092Y86627368D01*
X262339926Y86630454D01*
X262272514Y86613315D01*
X262225273Y86562672D01*
X262212912Y86494524D01*
X262239366Y86430486D01*
X262288345Y86394282D01*
X262289143Y86392449D01*
X262287954Y86390840D01*
X262286415Y86390816D01*
X262172396Y86436305D01*
X261979807Y86474613D01*
X261977640Y86474642D01*
X261975921Y86475665D01*
X261975947Y86477665D01*
X261977128Y86478568D01*
X262042604Y86496865D01*
X262088639Y86548607D01*
X262099392Y86617028D01*
X262071434Y86680430D01*
X262032166Y86708306D01*
X262031333Y86710124D01*
X262032491Y86711755D01*
X262034169Y86711750D01*
G37*
G36*
X23157116Y88924713D02*
G01*
X23157532Y88923162D01*
X23148538Y88863944D01*
X23176809Y88800718D01*
X23234774Y88762813D01*
X23304053Y88762263D01*
X23356859Y88794124D01*
X23358858Y88794163D01*
X23359892Y88792451D01*
X23359530Y88791265D01*
X23231906Y88608999D01*
X23142392Y88417035D01*
X23140753Y88415888D01*
X23138941Y88416733D01*
X23138765Y88418722D01*
X23225543Y88605667D01*
X23235868Y88674456D01*
X23207489Y88737631D01*
X23149457Y88775435D01*
X23080120Y88775864D01*
X23034549Y88751527D01*
X22975639Y88701744D01*
X22973671Y88701390D01*
X22972380Y88702918D01*
X22973033Y88704779D01*
X23052105Y88773758D01*
X23148537Y88910967D01*
X23153692Y88924188D01*
X23155252Y88925439D01*
X23157116Y88924713D01*
G37*
G36*
X14490214Y88879679D02*
G01*
X14490400Y88878837D01*
X14490400Y88564173D01*
X14489400Y88562441D01*
X14487400Y88562441D01*
X14486481Y88563610D01*
X14466805Y88630622D01*
X14414462Y88675977D01*
X14345902Y88685834D01*
X14297943Y88664290D01*
X14295953Y88664492D01*
X14295709Y88664773D01*
X14289307Y88661397D01*
X14287308Y88661474D01*
X14286375Y88663243D01*
X14287059Y88664673D01*
X14412105Y88773758D01*
X14486764Y88879987D01*
X14488578Y88880829D01*
X14490214Y88879679D01*
G37*
G36*
X21940048Y88880752D02*
G01*
X22009834Y88779213D01*
X22124910Y88676684D01*
X22125538Y88674785D01*
X22124208Y88673292D01*
X22122967Y88673287D01*
X22066559Y88691438D01*
X21999626Y88673641D01*
X21952899Y88622437D01*
X21940349Y88568114D01*
X21938984Y88566651D01*
X21937036Y88567102D01*
X21936400Y88568564D01*
X21936400Y88879619D01*
X21937400Y88881351D01*
X21939400Y88881351D01*
X21940048Y88880752D01*
G37*
G36*
X15738966Y90005704D02*
G01*
X15738742Y90003772D01*
X15734456Y89997807D01*
X15711425Y89932175D01*
X15727465Y89864798D01*
X15777419Y89816757D01*
X15834650Y89802743D01*
X15836094Y89801359D01*
X15835619Y89799417D01*
X15834174Y89798800D01*
X15463599Y89798800D01*
X15387642Y89783691D01*
X15377011Y89776588D01*
X15375015Y89776457D01*
X15374789Y89776588D01*
X15364158Y89783691D01*
X15293841Y89797678D01*
X15292337Y89798997D01*
X15292727Y89800959D01*
X15294492Y89801623D01*
X15323400Y89797817D01*
X15458758Y89815638D01*
X15584890Y89867883D01*
X15693204Y89950996D01*
X15735531Y90006157D01*
X15737379Y90006922D01*
X15738966Y90005704D01*
G37*
G36*
X20684174Y90015404D02*
G01*
X20733596Y89950996D01*
X20841910Y89867883D01*
X20968042Y89815638D01*
X21103400Y89797817D01*
X21132308Y89801623D01*
X21134156Y89800858D01*
X21134417Y89798875D01*
X21132959Y89797678D01*
X21062642Y89783691D01*
X21052011Y89776588D01*
X21050015Y89776457D01*
X21049789Y89776588D01*
X21039158Y89783691D01*
X20963201Y89798800D01*
X20591385Y89798800D01*
X20589653Y89799800D01*
X20589653Y89801800D01*
X20590822Y89802719D01*
X20657834Y89822395D01*
X20703189Y89874738D01*
X20713055Y89943356D01*
X20693346Y89994589D01*
X20680927Y90013071D01*
X20680791Y90015066D01*
X20682451Y90016181D01*
X20684174Y90015404D01*
G37*
G36*
X14904174Y90015404D02*
G01*
X14953596Y89950996D01*
X15061910Y89867883D01*
X15188042Y89815638D01*
X15285682Y89802783D01*
X15287269Y89801565D01*
X15287008Y89799582D01*
X15285421Y89798800D01*
X14811385Y89798800D01*
X14809653Y89799800D01*
X14809653Y89801800D01*
X14810822Y89802719D01*
X14877834Y89822395D01*
X14923189Y89874738D01*
X14933055Y89943356D01*
X14913346Y89994589D01*
X14900927Y90013071D01*
X14900791Y90015066D01*
X14902451Y90016181D01*
X14904174Y90015404D01*
G37*
G36*
X21518965Y90005703D02*
G01*
X21518741Y90003771D01*
X21514456Y89997807D01*
X21491425Y89932175D01*
X21507465Y89864798D01*
X21557419Y89816757D01*
X21614650Y89802743D01*
X21616094Y89801359D01*
X21615619Y89799417D01*
X21614174Y89798800D01*
X21141379Y89798800D01*
X21139647Y89799800D01*
X21139647Y89801800D01*
X21141118Y89802783D01*
X21238758Y89815638D01*
X21364890Y89867883D01*
X21473204Y89950996D01*
X21515530Y90006156D01*
X21517378Y90006921D01*
X21518965Y90005703D01*
G37*
G36*
X12985278Y90708721D02*
G01*
X12986382Y90704326D01*
X12986435Y90704003D01*
X12994427Y90606789D01*
X13019427Y90541879D01*
X13075310Y90500965D01*
X13144439Y90496760D01*
X13204979Y90530657D01*
X13228582Y90564749D01*
X13253657Y90618523D01*
X13255296Y90619670D01*
X13257108Y90618825D01*
X13257333Y90616951D01*
X13217344Y90514383D01*
X13195437Y90347993D01*
X13195400Y90340790D01*
X13195400Y90093854D01*
X13194400Y90092122D01*
X13192400Y90092122D01*
X13191481Y90093291D01*
X13171804Y90160306D01*
X13119461Y90205661D01*
X13050908Y90215518D01*
X12987904Y90186745D01*
X12950632Y90129342D01*
X12947587Y90119320D01*
X12946126Y90117953D01*
X12944213Y90118534D01*
X12943741Y90120419D01*
X12980544Y90257768D01*
X13000643Y90487500D01*
X12981346Y90708060D01*
X12982191Y90709872D01*
X12984183Y90710047D01*
X12985278Y90708721D01*
G37*
G36*
X21850579Y90467880D02*
G01*
X21851019Y90466347D01*
X21835437Y90347993D01*
X21835400Y90340790D01*
X21835400Y90095728D01*
X21834400Y90093996D01*
X21832400Y90093996D01*
X21831481Y90095165D01*
X21811804Y90162180D01*
X21759461Y90207535D01*
X21690908Y90217392D01*
X21627861Y90188599D01*
X21595137Y90142713D01*
X21593317Y90141883D01*
X21591689Y90143044D01*
X21591661Y90144639D01*
X21608562Y90185442D01*
X21626383Y90320800D01*
X21609479Y90449193D01*
X21610244Y90451041D01*
X21612227Y90451302D01*
X21613058Y90450659D01*
X21654194Y90396195D01*
X21719191Y90372270D01*
X21786801Y90387282D01*
X21835676Y90436576D01*
X21847163Y90467308D01*
X21848706Y90468581D01*
X21850579Y90467880D01*
G37*
G36*
X14576494Y90496807D02*
G01*
X14578248Y90491596D01*
X14578340Y90491174D01*
X14578698Y90487884D01*
X14605388Y90423650D01*
X14662323Y90384214D01*
X14731540Y90381818D01*
X14791152Y90417278D01*
X14814080Y90453835D01*
X14815847Y90454771D01*
X14817541Y90453708D01*
X14817757Y90452511D01*
X14800417Y90320800D01*
X14818238Y90185442D01*
X14836272Y90141904D01*
X14836011Y90139921D01*
X14834163Y90139156D01*
X14832816Y90139950D01*
X14792667Y90194279D01*
X14727926Y90218885D01*
X14660160Y90204582D01*
X14610861Y90155888D01*
X14595336Y90095839D01*
X14593935Y90094413D01*
X14591998Y90094913D01*
X14591400Y90096340D01*
X14591400Y90340676D01*
X14572612Y90495929D01*
X14573397Y90497768D01*
X14575383Y90498009D01*
X14576494Y90496807D01*
G37*
M02*
