M48
; DRILL file {KiCad (6.0.2)} date Sat Nov 18 15:24:32 2023
; FORMAT={2:4/ absolute / inch / suppress leading zeros}
; #@! TF.CreationDate,2023-11-18T15:24:32-05:00
; #@! TF.GenerationSoftware,Kicad,Pcbnew,(6.0.2)
; #@! TF.FileFunction,NonPlated,1,2,NPTH
FMAT,2
INCH,TZ
; #@! TA.AperFunction,NonPlated,NPTH,ComponentDrill
T1C0.0256
; #@! TA.AperFunction,NonPlated,NPTH,ComponentDrill
T2C0.0689
; #@! TA.AperFunction,NonPlated,NPTH,ComponentDrill
T3C0.1200
; #@! TA.AperFunction,NonPlated,NPTH,ComponentDrill
T4C0.1570
%
G90
G05
T1
X6033Y35559
X8308Y35559
T2
X1598Y33625
X2535Y18625
X2535Y11125
X2535Y3625
X3473Y26125
X3473Y3625
X4410Y18625
X5598Y33625
X6285Y11125
X6535Y18625
X6535Y11125
X6535Y3625
X7473Y26125
X7473Y3625
X8410Y18625
X9098Y33625
X10285Y11125
X10973Y11125
X11910Y3625
X12848Y26125
X12848Y3625
X13098Y33625
X14723Y18625
X14973Y11125
X15910Y3625
X16598Y33625
X16848Y26125
X16848Y3625
X18473Y11125
X18723Y18625
X20347Y26125
X20597Y33625
X21285Y3625
X22222Y18625
X22222Y3625
X22472Y11125
X24097Y33625
X24347Y26125
X25285Y3625
X25972Y11125
X26222Y18625
X26222Y3625
X27847Y26125
X28097Y33625
X29722Y18625
X29972Y11125
X31597Y33625
X31847Y26125
X33472Y11125
X33722Y18625
X34410Y3625
X35347Y26125
X35597Y33625
X36285Y3625
X37222Y18625
X37472Y11125
X38160Y3625
X38410Y3625
X39097Y33625
X39347Y26125
X40285Y3625
X40973Y11125
X41223Y18625
X42160Y3625
X42848Y26125
X43098Y33625
X44723Y18625
X44973Y11125
X46598Y33625
X46848Y26125
X47535Y3625
X48473Y11125
X48723Y18625
X49410Y3625
X50348Y26125
X50598Y33625
X51285Y3625
X51535Y3625
X52222Y18625
X52473Y11125
X53410Y3625
X54097Y33625
X54097Y3625
X54097Y3625
X54348Y26125
X55285Y3625
X55972Y11125
X56223Y18625
X57847Y26125
X58098Y33625
X58098Y3625
X58098Y3625
X59722Y18625
X59973Y11125
X61597Y33625
X61848Y26125
X62535Y3625
X63472Y11125
X63723Y18625
X64410Y3625
X65347Y26125
X65597Y33625
X66535Y3625
X67222Y18625
X67472Y11125
X68410Y3625
X69097Y33625
X69347Y26125
X70035Y3625
X70972Y11125
X71222Y18625
X72847Y26125
X73097Y33625
X74035Y3625
X74722Y18625
X74972Y11125
X76597Y33625
X76597Y3625
X76847Y26125
X77535Y3625
X78472Y11125
X78722Y18625
X80347Y26125
X80597Y33625
X80597Y3625
X81535Y3625
X82223Y18625
X82473Y11125
X84098Y33625
X84098Y3625
X84348Y26125
X85973Y11125
X85973Y3625
X86223Y18625
X86910Y3625
X87848Y26125
X88098Y33625
X88098Y3625
X89723Y18625
X89973Y11125
X89973Y3625
X90910Y3625
X91598Y33625
X91598Y3625
X91848Y26125
X93723Y18625
X95348Y26125
X95348Y3625
X95598Y33625
X95598Y3625
X96285Y11125
X96285Y3625
X97223Y18625
X99098Y33625
X99098Y3625
X99348Y26125
X99348Y3625
X100035Y11125
X100285Y11125
X100285Y3625
X101223Y18625
X101910Y18625
X102848Y33625
X103098Y33625
X103098Y3625
X104035Y11125
X104723Y26125
X104723Y3625
X105660Y3625
X105910Y18625
X106598Y33625
X106598Y11125
X106598Y3625
X106848Y33625
X107660Y24375
X107660Y20375
X108723Y26125
X108723Y3625
X109660Y3625
X110598Y33625
X110598Y11125
X110598Y3625
T3
X3585Y13875
X12985Y13875
X31710Y875
X31725Y875
X33585Y875
X33597Y875
X35460Y875
X41110Y875
X42985Y875
X44860Y875
X59835Y875
X61710Y875
X67335Y875
X69235Y875
X71095Y875
X71110Y875
X76735Y875
X78597Y875
X97335Y13875
X99210Y21375
X100148Y36375
X106735Y13875
X108610Y21375
X109548Y36375
X110410Y27075
X110410Y17675
T4
X3585Y7875
X3598Y33625
X4535Y18625
X4535Y11125
X4535Y3625
X5473Y26125
X5473Y3625
X6410Y18625
X8285Y11125
X11098Y33625
X12973Y11125
X12985Y7875
X13910Y3625
X14848Y26125
X14848Y3625
X16723Y18625
X18598Y33625
X20473Y11125
X22348Y26125
X23285Y3625
X24223Y18625
X24223Y3625
X26098Y33625
X27973Y11125
X29848Y26125
X31710Y6875
X31723Y18625
X31725Y6875
X33585Y6875
X33597Y33625
X33597Y6875
X35460Y6875
X35472Y11125
X36410Y3625
X37347Y26125
X38285Y3625
X39222Y18625
X40160Y3625
X41098Y33625
X41110Y6875
X42973Y11125
X42985Y6875
X44848Y26125
X44860Y6875
X46723Y18625
X48598Y33625
X49535Y3625
X50473Y11125
X51410Y3625
X52347Y26125
X53285Y3625
X54222Y18625
X56097Y33625
X56097Y3625
X56097Y3625
X57972Y11125
X59835Y6875
X59847Y26125
X61710Y6875
X61722Y18625
X63597Y33625
X64535Y3625
X65472Y11125
X66410Y3625
X67335Y6875
X67347Y26125
X69222Y18625
X69235Y6875
X71095Y6875
X71097Y33625
X71110Y6875
X72035Y3625
X72972Y11125
X74847Y26125
X76722Y18625
X76735Y6875
X78597Y33625
X78597Y6875
X78597Y3625
X79535Y3625
X80472Y11125
X82348Y26125
X84223Y18625
X86098Y33625
X86098Y3625
X87973Y11125
X87973Y3625
X88910Y3625
X89848Y26125
X91723Y18625
X93598Y33625
X93598Y3625
X97335Y7875
X97348Y26125
X97348Y3625
X98285Y11125
X98285Y3625
X99210Y15375
X99223Y18625
X100148Y30375
X101098Y33625
X101098Y3625
X102035Y11125
X103910Y18625
X104410Y27075
X104410Y17675
X104848Y33625
X106723Y26125
X106723Y3625
X106735Y7875
X107660Y22375
X107660Y3625
X108598Y33625
X108598Y11125
X108598Y3625
X108610Y15375
X109548Y30375
T0
M30
